<?xml version="1.0" encoding="UTF-8"?> <svg xmlns="http://www.w3.org/2000/svg" width="968" height="400" viewBox="0 0 968 400" fill="none"><path d="M198.86 214.153C198.86 272.939 160.462 314.186 105.342 314.153C80.0313 314.153 55.9485 301.894 44.5215 283.52L44.4983 394.97H0L0.0604872 119.001H44.5588V144.721C55.995 126.352 81.3153 114.111 108.25 114.116C162.547 114.121 198.875 154.139 198.86 214.153ZM154.362 214.153C154.362 178.634 131.513 153.729 98.8553 153.719C65.3563 153.719 42.5116 178.202 42.507 214.13C42.5024 250.058 65.3563 274.554 98.8321 274.563C131.471 274.554 154.353 249.658 154.362 214.143V214.153Z" fill="black"></path><path d="M506.379 23.5747L506.314 309.343H461.816V283.623C450.379 302.806 424.25 314.232 400.982 314.224C339.743 314.224 307.505 270.112 307.514 214.191C307.523 158.27 343.051 114.158 402.252 114.195C427.562 114.195 450.421 125.636 461.848 144.823L461.876 23.5747H506.379ZM463.876 214.214C463.876 181.552 445.522 153.79 407.552 153.78C372.852 153.78 352.026 179.487 352.017 214.191C352.008 248.895 372.824 274.616 407.524 274.624C445.494 274.624 463.872 246.871 463.881 214.214H463.876Z" fill="black"></path><path d="M740.102 119.15L740.061 301.223C740.061 338.784 728.21 366.947 705.751 383.273C689.826 395.105 671.447 400.023 644.094 400C618.783 400 598.368 394.681 580.818 382.841C572.028 377.217 564.705 369.58 559.453 360.562C554.202 351.545 551.175 341.406 550.621 330.986H597.149C600.82 350.584 613.07 363.243 643.675 363.248C680.008 363.248 695.534 347.336 695.543 304.476V283.641C684.107 302.824 657.977 314.25 634.709 314.246C575.513 314.246 541.233 270.134 541.246 214.213C541.261 158.293 578.826 114.181 635.98 114.214C661.29 114.214 684.149 125.654 695.576 144.846V119.126L740.102 119.15ZM697.623 214.26C697.623 181.598 677.617 153.835 641.298 153.826C607.822 153.826 585.773 179.533 585.763 214.232C585.754 248.932 607.793 274.656 641.269 274.665C677.612 274.675 697.618 246.921 697.628 214.26H697.623Z" fill="black"></path><path d="M960.344 229.019L819.096 228.987C820.312 259.196 839.904 275.513 872.136 275.536C894.184 275.536 907.248 268.604 914.6 253.911H959.504C953.784 289.425 917.848 314.321 872.128 314.312C812.104 314.312 774.974 275.913 774.988 214.279C774.988 153.45 812.568 114.247 870.536 114.279C924.84 114.279 961.568 151.035 961.552 204.541C961.576 213.097 961.168 217.587 960.344 229.019ZM917.896 195.124C917.496 165.733 900.352 149.397 869.736 149.393C838.304 149.393 819.512 168.162 819.104 195.105L917.896 195.124Z" fill="black"></path><path d="M277.393 9.99792C274.413 6.90768 270.853 4.43473 266.918 2.72018C262.982 1.00564 258.747 0.083132 254.454 0.00536408C250.162 -0.0724041 245.896 0.696112 241.901 2.26696C237.905 3.83781 234.258 6.18021 231.168 9.16048C230.917 9.40248 230.67 9.64904 230.424 9.90024C224.169 16.3346 220.662 24.9496 220.643 33.9233C220.625 42.897 224.098 51.5261 230.326 57.9858L251.883 80.0304C252.127 80.2912 252.425 80.4976 252.755 80.6352C253.086 80.7728 253.441 80.8392 253.799 80.8304C254.159 80.8488 254.519 80.7872 254.853 80.6488C255.187 80.5104 255.484 80.2984 255.725 80.0304L277.291 57.9952C283.578 51.5957 287.109 42.9887 287.128 34.0176C287.147 25.0464 283.653 16.4242 277.393 9.99792Z" fill="#492897"></path><path d="M281.013 269.185C279.106 268.662 277.354 267.682 275.91 266.331C274.465 264.98 273.371 263.298 272.722 261.429V195.142V151.105C272.722 116.898 238.915 114.139 238.915 114.139H210.999C221.5 128.883 225.93 154.246 225.93 154.246C227.837 154.769 229.588 155.748 231.033 157.099C232.477 158.45 233.571 160.133 234.221 162.002V228.293V266.226V272.326C234.221 306.532 268.027 309.291 268.027 309.291H295.943C285.446 294.547 281.013 269.185 281.013 269.185Z" fill="black"></path></svg> 