<?xml version="1.0" encoding="UTF-8"?> <svg xmlns="http://www.w3.org/2000/svg" width="151.083" height="86.35" viewBox="0 0 151.083 86.35"><g id="Group_111463" data-name="Group 111463" transform="translate(-394.524 -8232.687)"><path id="Path_69157" data-name="Path 69157" d="M394.523,8320.036a2,2,0,0,1-1.689-3.068c.083-.131,2.067-3.26,5.795-8.322a2,2,0,0,1,3.221,2.372c-3.634,4.936-5.615,8.057-5.634,8.088A2,2,0,0,1,394.523,8320.036Zm11.188-15.348a2,2,0,0,1-1.564-3.245c2.077-2.61,4.24-5.222,6.428-7.762a2,2,0,1,1,3.03,2.61c-2.155,2.5-4.284,5.072-6.328,7.643A2,2,0,0,1,405.711,8304.688Zm12.372-14.415a2,2,0,0,1-1.468-3.357c1.253-1.354,2.533-2.707,3.8-4.021,1.054-1.09,2.129-2.179,3.194-3.237a2,2,0,1,1,2.82,2.837c-1.047,1.04-2.1,2.11-3.139,3.182-1.25,1.292-2.509,2.623-3.742,3.955A1.992,1.992,0,0,1,418.082,8290.273Zm13.453-13.41a2,2,0,0,1-1.351-3.476c2.511-2.3,5.073-4.529,7.615-6.633a2,2,0,1,1,2.55,3.081c-2.491,2.062-5,4.25-7.465,6.5A2,2,0,0,1,431.535,8276.863Zm14.61-12.136a2,2,0,0,1-1.2-3.6c2.74-2.049,5.526-4.007,8.281-5.817a2,2,0,1,1,2.2,3.342c-2.688,1.768-5.407,3.678-8.083,5.679A1.992,1.992,0,0,1,446.145,8264.728Zm15.846-10.464a2,2,0,0,1-1-3.735c2.98-1.709,6-3.3,8.985-4.72a2,2,0,0,1,1.722,3.61c-2.892,1.38-5.825,2.92-8.717,4.579A1.993,1.993,0,0,1,461.991,8254.264Zm17.111-8.216a2,2,0,0,1-.722-3.866c3.209-1.241,6.459-2.328,9.658-3.23a2,2,0,0,1,1.086,3.85c-3.08.869-6.209,1.916-9.3,3.111A1.993,1.993,0,0,1,479.1,8246.048Zm18.239-5.217a2,2,0,0,1-.36-3.967,92.575,92.575,0,0,1,10.132-1.3q.073-.006.145-.006a2,2,0,0,1,.141,4,88.919,88.919,0,0,0-9.694,1.244A2.024,2.024,0,0,1,497.341,8240.831Zm28.866-.541a2.1,2.1,0,0,1-.3-.022,83.652,83.652,0,0,0-9.721-.889,2,2,0,0,1,.064-4h.066a87.8,87.8,0,0,1,10.188.931,2,2,0,0,1-.3,3.979Z" transform="translate(2 -1)" fill="#3626f1"></path><path id="Polygon_5" data-name="Polygon 5" d="M7,0l7,12H0Z" transform="matrix(-0.259, 0.966, -0.966, -0.259, 545.607, 8235.792)" fill="#3626f1"></path></g></svg> 