<svg width="225" height="25" viewBox="0 0 225 25" fill="none" xmlns="http://www.w3.org/2000/svg">
<g clip-path="url(#clip0_58_263)">
<path d="M26.6069 24.9317C34.4701 24.1999 42.3422 23.6525 50.201 22.9022C53.633 22.5763 57.1726 22.6993 60.5643 21.2048C61.7113 20.7005 63.0734 21.1125 64.3369 21.0941C67.0162 21.0572 69.7 20.9034 72.3748 21.0326C73.5397 21.0879 74.4851 20.27 75.6097 20.147C78.2173 19.8518 80.816 20.4114 83.4147 20.0916C85.0321 19.8948 86.6809 20.3684 88.2805 19.5197C89.0556 19.1076 89.8441 19.8456 90.6506 19.9502C94.4142 20.4237 98.0613 19.1261 101.767 18.8309C102.277 18.7878 102.752 18.6095 103.299 18.7325C105.696 19.2675 108.075 19.0338 110.481 18.5049C112.081 18.1482 113.685 19.1445 115.338 19.0277C116.893 18.917 118.456 19.083 120.007 18.6525C120.504 18.5111 121.055 18.5172 121.557 18.6464C124.81 19.4828 128.094 19.083 131.369 19.206C132.955 19.2675 134.393 18.2528 136.002 18.468C138.354 18.7817 140.724 18.8985 143.09 18.9539C146.912 19.04 150.734 19.0031 154.56 19.0154C154.932 19.0154 155.335 19.1322 155.676 18.9785C159.323 17.3364 163.073 18.6218 166.756 18.1913C170.631 17.7423 174.489 18.6894 178.356 18.0929C179.265 17.9514 180.309 17.5332 181.066 18.8063C181.237 19.0892 181.407 18.9969 181.635 18.8555C183.755 17.5394 186.04 18.0068 188.226 18.0191C192.886 18.0437 197.55 18.056 202.21 18.1913C205.261 18.2774 208.393 18.1298 211.484 17.8223C211.852 17.7854 212.242 17.9453 212.533 17.5148C213.899 15.5037 215.714 16.0633 217.381 16.0449C218.442 16.0326 219.433 16.0264 220.405 15.3376C220.92 14.9748 221.565 14.6734 222.116 14.7595C224.133 15.0793 225.934 13.8309 227.851 13.4803C228.134 13.4311 228.479 12.9268 228.653 13.0437C230.71 14.3598 232.462 11.8751 234.429 12.2134C234.612 12.2442 234.931 12.0658 234.993 11.869C235.056 11.6722 234.828 11.4385 234.639 11.2478C233.555 10.1654 232.068 10.6513 231.033 9.43972C230.871 9.24907 230.737 9.29827 230.71 9.54428C230.401 12.6132 229.191 10.1962 228.748 9.91328C227.421 9.07072 226.104 9.54427 224.791 9.43357C223.353 9.31672 221.825 10.1347 220.548 8.51106C220.235 8.11746 219.899 8.55411 219.554 8.70172C218.442 9.16912 217.291 9.87638 216.131 9.05227C215.194 8.38806 214.356 7.3364 214.038 9.88868C213.971 10.4299 213.097 10.7312 212.47 10.1347C210.248 8.01906 209.128 7.92681 206.386 8.78782C205.239 9.14452 203.984 8.80012 202.756 8.92927C200.113 9.21217 197.447 8.73247 194.786 8.75707C193.854 8.76322 192.949 8.57257 191.958 8.73862C190.937 8.91082 190.104 7.53935 189.418 6.53074C188.643 5.38683 188.199 5.07318 187.353 6.45694C186.855 7.2749 186.008 7.66851 185.027 7.2872C183.813 6.8198 182.37 7.92681 181.281 6.34624C180.202 8.18511 179.364 5.68819 178.414 6.03874C177.231 6.47539 176.232 5.81734 175.166 5.41758C174.606 5.20233 173.839 4.89483 173.432 5.22693C171.899 6.47539 170.412 5.63284 169.193 4.80873C167.831 3.88007 166.483 5.34993 165.268 4.24907C164.816 5.99569 163.552 5.21463 162.75 5.49753C161.218 6.03874 159.403 6.8444 158.082 4.47662C157.938 4.21832 157.535 4.09532 157.266 4.13222C154.887 4.46432 152.544 3.31426 150.16 3.81242C149.649 3.91697 149.143 4.03997 148.668 3.51106C148.458 3.27736 148.036 3.01906 147.871 3.15436C146.177 4.48277 144.864 3.12361 143.623 1.94895C141.947 0.368383 140.066 0.306883 138.184 0.0670302C137.812 0.0178297 137.391 -0.0928714 137.073 0.0854804C133.726 1.97355 130.379 0.626686 127.019 0.239232C124.671 -0.0313708 122.345 -0.271223 119.93 0.546735C117.74 1.28474 115.253 1.48769 113.08 0.817338C111.651 0.374533 110.414 0.718937 109.092 0.651286C108.375 0.614386 107.529 1.81365 106.937 0.257682C106.901 0.159281 106.507 0.214632 106.337 0.337633C104.885 1.38314 103.451 0.921889 102 0.356083C101.65 0.220782 101.095 -0.0252207 100.938 0.190031C99.9073 1.6353 98.6572 0.878838 97.5595 0.786587C95.5433 0.614386 93.5137 0.479084 91.5243 0.712787C86.3091 1.34009 81.0893 0.817338 75.8741 1.02644C73.6428 1.11869 71.4384 1.38314 69.2251 1.91205C67.0475 2.42865 64.8118 2.71156 62.5805 2.71156C58.8528 2.71156 55.2191 3.95387 51.5093 4.35977C48.0056 4.74108 44.466 5.33763 41.034 6.77675C39.6764 7.3487 38.0948 6.9428 36.6162 6.96125C34.1564 6.99815 31.8221 7.65006 29.4385 8.62792C26.7547 9.72878 23.9992 10.4483 21.4095 12.0227C20.7778 12.4102 19.913 12.3549 19.2006 12.1765C17.3457 11.7091 15.7776 13.3635 13.9943 13.3143C13.8017 13.3081 13.5463 13.5295 13.4208 13.7509C12.7398 14.9563 12.0946 16.0572 11.0955 14.1753C10.9969 13.9846 10.5265 14.0277 10.2756 14.3475C10.0336 14.655 9.97089 15.0855 10.0381 15.4668C10.1411 16.0695 10.4279 16.5307 10.7908 16.9366C12.2604 18.5541 14.0033 19.5812 15.7776 19.9071C17.6862 20.2638 19.5456 21.0695 21.4902 21.0879C21.7321 21.0879 21.9964 21.174 22.0009 21.4938C22.0099 21.8382 21.7142 21.7706 21.5215 21.8013C21.2975 21.8321 21.069 21.8198 20.8539 21.8997C20.1057 22.2011 20.1057 22.8776 20.6075 23.4373C21.2348 24.1384 21.9651 24.6242 22.8164 24.7349C24.0754 24.9071 25.3344 25.1039 26.6069 24.9317Z" fill="#7CCAF6"/>
</g>
<defs>
<clipPath id="clip0_58_263">
<rect width="225" height="25" fill="white" transform="matrix(-1 0 0 1 225 0)"/>
</clipPath>
</defs>
</svg>
