<svg width="174" height="53" viewBox="0 0 174 53" fill="none" xmlns="http://www.w3.org/2000/svg">
<path d="M110.236 47.7412C41.4818 58.2035 4.72211 27.6979 45.07 12.7661C-15.9129 26.5176 30.7205 65.3767 110.236 47.7412Z" fill="white"/>
<path d="M36.5481 11.1201C1.57303 21.2834 1.27401 43.4072 43.1201 50.5804C-1.71612 45.4972 -9.78633 20.3895 36.5481 11.1201Z" fill="white"/>
<path d="M32.9608 6.04004C8.14901 12.9142 -6.38302 24.9251 6.65395 41.3141C-9.48646 23.0775 5.46104 10.5221 32.9608 6.04004Z" fill="white"/>
<path d="M45.3455 8.06706L50.6553 13.5752L65.0174 0L37.6719 0.786877L43.18 6.78602L53.8028 4.13268" fill="white"/>
<path d="M57.6492 26.7066C57.7185 27.7044 58.3448 28.4 59.5975 28.4C60.7117 28.4 61.5458 28.0852 61.5458 27.1409C61.5458 24.8685 53.1514 26.886 53.1514 20.5784C53.1514 16.8455 56.2108 15.2686 59.5283 15.2686C62.8458 15.2686 65.6722 17.0532 65.9051 20.6949H61.1524C61.15 20.4855 61.1058 20.2787 61.0225 20.0866C60.9391 19.8945 60.8183 19.721 60.6671 19.5761C60.5158 19.4313 60.3372 19.3182 60.1416 19.2433C59.9461 19.1684 59.7376 19.1333 59.5283 19.14C58.7162 19.14 57.9042 19.3257 57.9042 20.2794C57.9042 22.4354 66.2986 20.4179 66.2986 26.8388C66.2986 30.5717 63.0976 32.2903 59.5975 32.2903C56.0975 32.2903 53.1294 30.4805 52.8965 26.7223L57.6492 26.7066Z" fill="white"/>
<path d="M76.1695 31.8777V25.5827C76.1695 24.5849 75.776 24.0089 74.8727 24.0089C73.8057 24.0089 73.1793 24.843 73.1793 26.0233V31.8903H68.6406V15.646H73.1856V21.6514C74.0669 20.6096 75.2032 19.892 76.5251 19.892C79.5373 19.892 80.7207 22.325 80.7207 25.3875V31.8777H76.1695Z" fill="white"/>
<path d="M83.5254 15.646H88.0704V18.9855H83.5254V15.646ZM83.5254 20.2854H88.0704V31.8777H83.5254V20.2854Z" fill="white"/>
<path d="M95.5372 36.401H90.9922V20.2858H95.5372V21.677C95.869 21.1264 96.3389 20.672 96.9004 20.359C97.4619 20.046 98.0954 19.8851 98.7382 19.8923C102.83 19.8923 103.793 23.811 103.793 26.0835C103.793 28.356 102.849 32.2746 98.7382 32.2746C98.0952 32.2812 97.4615 32.1197 96.9001 31.8061C96.3386 31.4926 95.8688 31.0378 95.5372 30.4868V36.401ZM97.3942 28.3088C98.691 28.3088 99.2481 27.289 99.2481 26.0835C99.2481 24.878 98.691 23.855 97.3942 23.855C96.0974 23.855 95.5372 24.878 95.5372 26.0835C95.5372 27.289 96.0943 28.3088 97.3942 28.3088Z" fill="white"/>
<path d="M114.402 18.9982L116.728 15.3062H121.516L116.864 22.0324L114.402 18.9982Z" fill="white"/>
<path d="M114.402 28.3937L116.864 25.3721L121.377 31.7489H116.864L114.402 28.3937Z" fill="white"/>
<path d="M110.162 31.7492L115.771 23.5279L113.448 20.1191L105.375 31.7649L110.162 31.7492Z" fill="white"/>
<path d="M113.405 26.9928L111.05 23.5684L105.385 15.3062H110.163L115.772 23.5274" fill="white"/>
<path d="M127.524 25.8964C127.524 27.1022 128.081 28.1225 129.379 28.1225C130.678 28.1225 131.234 27.1022 131.234 25.8964C131.234 24.6907 130.678 23.6704 129.379 23.6704C128.081 23.6704 127.524 24.6907 127.524 25.8964ZM127.524 30.3021V36.215H122.979V20.0995H127.524V21.4908C128.197 20.4705 129.217 19.7053 130.724 19.7053C134.828 19.7053 135.779 23.624 135.779 25.8964C135.779 28.1688 134.828 32.0875 130.724 32.0875C129.217 32.0875 128.197 31.3224 127.524 30.3021ZM136.895 25.8964C136.895 22.882 138.727 19.7053 143.295 19.7053C147.863 19.7053 149.695 22.882 149.695 25.8964C149.695 28.9108 147.863 32.0875 143.295 32.0875C138.727 32.0875 136.895 28.9108 136.895 25.8964ZM145.15 25.8964C145.15 24.8298 144.594 23.8095 143.295 23.8095C141.997 23.8095 141.44 24.8298 141.44 25.8964C141.44 26.9631 141.997 27.9833 143.295 27.9833C144.594 27.9833 145.15 26.9631 145.15 25.8964ZM150.892 27.7746H155.436C155.436 28.679 156.202 29.05 156.897 29.05C157.593 29.05 158.126 28.7949 158.126 28.192C158.126 26.7312 151.008 28.2616 151.008 23.7632C151.008 20.8879 153.813 19.7053 156.851 19.7053C159.773 19.7053 162.114 20.9807 162.439 23.8559H158.173C158.057 23.0675 157.431 22.7429 156.712 22.7429C156.178 22.7429 155.552 22.9284 155.552 23.5313C155.552 24.9457 162.671 23.3922 162.671 27.9601C162.671 30.8586 159.819 32.0875 157.036 32.0875C153.883 32.0875 151.054 30.6499 150.892 27.7746ZM172.884 31.6006C171.678 32.018 170.426 32.0875 169.545 32.0875C166.855 32.0875 165.441 30.4876 165.441 28.0065V24.0646H163.609V20.0995H165.441V16.8532H169.986V20.0995H172.884V24.0646H169.986V26.8935C169.986 27.7283 170.31 28.0297 170.936 28.0297C171.47 28.0297 172.212 27.9601 172.884 27.821V31.6006Z" fill="white"/>
<path d="M61.2852 40.1431H61.644V42.6894H61.2852V40.1431ZM61.4583 40.1431H62.9219V40.483H61.4583V40.1431ZM61.4583 41.2541H62.7173V41.5941H61.4583V41.2541ZM61.4583 42.3495H62.9219V42.6894H61.4583V42.3495Z" fill="white"/>
<path d="M65.2661 42.5761C65.2084 42.5228 65.1634 42.4572 65.1345 42.3842C65.1056 42.3112 65.0936 42.2326 65.0993 42.1543C65.0933 42.0794 65.104 42.0041 65.1307 41.9339C65.1574 41.8637 65.1993 41.8003 65.2535 41.7483C65.3846 41.6478 65.5484 41.5996 65.713 41.6129H66.2292L66.2544 41.8993H65.713C65.6385 41.895 65.5649 41.9173 65.5053 41.9623C65.4805 41.9873 65.4614 42.0175 65.4495 42.0507C65.4375 42.0838 65.4329 42.1192 65.4361 42.1543C65.4334 42.1933 65.4404 42.2323 65.4563 42.2679C65.4722 42.3036 65.4966 42.3348 65.5273 42.3589C65.6119 42.4088 65.7095 42.4318 65.8075 42.425C65.9142 42.4308 66.0211 42.4159 66.1222 42.3809C66.151 42.3717 66.1763 42.3537 66.1943 42.3294C66.2124 42.3052 66.2224 42.2758 66.2229 42.2456L66.2607 42.5005C66.2293 42.547 66.1899 42.5875 66.1442 42.6201C66.0951 42.653 66.0409 42.6775 65.9837 42.6925C65.9167 42.7085 65.848 42.7159 65.7791 42.7146C65.5971 42.7304 65.4154 42.6813 65.2661 42.5761ZM66.2103 41.5374C66.2168 41.4352 66.1829 41.3346 66.1159 41.2573C66.0795 41.224 66.0368 41.1982 65.9903 41.1814C65.9439 41.1647 65.8946 41.1573 65.8452 41.1597C65.7725 41.1602 65.7003 41.1719 65.6312 41.1943C65.5645 41.2138 65.5017 41.2447 65.4455 41.2856L65.1843 41.1062C65.2618 41.021 65.3591 40.9562 65.4675 40.9173C65.5865 40.8696 65.7139 40.8461 65.8421 40.8481C65.9755 40.8439 66.108 40.8708 66.2292 40.9268C66.3341 40.9758 66.4202 41.0575 66.4747 41.1597C66.5345 41.2719 66.5638 41.3978 66.5597 41.5248V42.6925H66.2198L66.2103 41.5374Z" fill="white"/>
<path d="M69.2449 42.6833C69.1526 42.6652 69.0635 42.6333 68.9805 42.5889C68.8981 42.5471 68.8219 42.4941 68.7539 42.4315L68.9648 42.1702C69.0541 42.2401 69.1526 42.2973 69.2575 42.3402C69.3502 42.3746 69.4482 42.3927 69.5471 42.3937C69.6556 42.3989 69.7637 42.3773 69.8618 42.3308C69.8953 42.31 69.9226 42.2807 69.9408 42.2458C69.9591 42.2109 69.9677 42.1718 69.9657 42.1325C69.9674 42.1075 69.9632 42.0825 69.9534 42.0595C69.9435 42.0365 69.9283 42.0162 69.909 42.0003C69.8659 41.9703 69.8163 41.9508 69.7643 41.9436C69.684 41.9298 69.6031 41.9204 69.5219 41.9153H69.4369C69.3305 41.9103 69.2249 41.8934 69.1222 41.8649C69.0417 41.8403 68.9711 41.7907 68.9207 41.7233C68.8599 41.6372 68.8309 41.5326 68.8389 41.4274C68.8353 41.3172 68.8625 41.2082 68.9176 41.1127C68.973 41.0257 69.0545 40.9585 69.1505 40.9207C69.2756 40.8759 69.4079 40.8545 69.5408 40.8577C69.6316 40.8577 69.7222 40.8661 69.8115 40.8829C69.8969 40.9005 69.9802 40.9268 70.0601 40.9616C70.1383 40.998 70.213 41.0411 70.2836 41.0907L70.0696 41.3519C69.9852 41.2975 69.8942 41.2542 69.7989 41.2229C69.7161 41.193 69.6287 41.1781 69.5408 41.1788C69.4462 41.1713 69.3517 41.1933 69.2701 41.2417C69.2395 41.2615 69.2149 41.2893 69.1988 41.322C69.1827 41.3547 69.1758 41.3911 69.1788 41.4274C69.1776 41.4485 69.1815 41.4696 69.1903 41.4888C69.1991 41.508 69.2124 41.5248 69.2292 41.5376C69.2685 41.5644 69.314 41.5807 69.3614 41.5848C69.4354 41.5961 69.51 41.6035 69.5848 41.6068H69.6509C69.7574 41.6121 69.8629 41.629 69.9657 41.6572C70.0553 41.6824 70.1346 41.7353 70.1923 41.8083C70.259 41.905 70.2912 42.0215 70.2836 42.1388C70.286 42.2497 70.2565 42.3589 70.1986 42.4535C70.1361 42.5436 70.0469 42.6118 69.9437 42.6487C69.8078 42.6941 69.6651 42.7154 69.5219 42.7116C69.4288 42.7122 69.336 42.7027 69.2449 42.6833Z" fill="white"/>
<path d="M72.2969 40.8701H72.662L73.2222 42.4439L73.0208 42.8373L72.2969 40.8701ZM73.9084 40.8701L73.1341 43.1206C73.1105 43.1931 73.073 43.2605 73.0239 43.3189C72.9762 43.3664 72.918 43.402 72.854 43.4227C72.774 43.4445 72.6914 43.4551 72.6085 43.4542H72.5392V43.1206H72.6085C72.6649 43.1236 72.7209 43.1094 72.769 43.0797C72.8147 43.0437 72.8496 42.9958 72.8697 42.9412L73.5433 40.8859L73.9084 40.8701Z" fill="white"/>
<path d="M79.5273 39.8413H79.883V42.9888H79.5273V39.8413Z" fill="white"/>
<path d="M86.5 40.1431H86.8714V42.6894H86.5126L86.5 40.1431ZM86.6763 40.1431H88.1021V40.483H86.6763V40.1431ZM86.6763 41.2762H87.9101V41.6161H86.6763V41.2762Z" fill="white"/>
<path d="M90.3325 42.5762C90.2748 42.523 90.2298 42.4574 90.2009 42.3844C90.1721 42.3114 90.16 42.2328 90.1657 42.1545C90.1597 42.0796 90.1704 42.0043 90.1971 41.9341C90.2238 41.8639 90.2657 41.8005 90.3199 41.7484C90.451 41.648 90.6148 41.5998 90.7794 41.6131H91.2956L91.3208 41.8995H90.7826C90.707 41.8944 90.6321 41.9168 90.5717 41.9625C90.5469 41.9875 90.5278 42.0177 90.5159 42.0508C90.5039 42.084 90.4993 42.1193 90.5025 42.1545C90.4998 42.1934 90.5068 42.2324 90.5227 42.2681C90.5386 42.3038 90.563 42.335 90.5937 42.3591C90.6783 42.4089 90.776 42.432 90.8739 42.4251C90.9806 42.431 91.0876 42.416 91.1886 42.3811C91.2174 42.3719 91.2427 42.3539 91.2607 42.3296C91.2788 42.3053 91.2888 42.276 91.2893 42.2457L91.3271 42.5007C91.2958 42.5472 91.2563 42.5877 91.2107 42.6203C91.1615 42.6532 91.1073 42.6776 91.0501 42.6927C90.9831 42.7086 90.9144 42.716 90.8455 42.7147C90.6636 42.73 90.482 42.681 90.3325 42.5762ZM91.2767 41.5376C91.2832 41.4354 91.2493 41.3348 91.1823 41.2574C91.1461 41.2238 91.1034 41.1979 91.0569 41.1811C91.0104 41.1643 90.961 41.1571 90.9116 41.1599C90.8389 41.1603 90.7668 41.172 90.6976 41.1945C90.6319 41.214 90.5701 41.2449 90.515 41.2858L90.2538 41.1063C90.3271 41.0214 90.42 40.9555 90.5245 40.9143C90.6445 40.8664 90.7729 40.8429 90.9022 40.8451C91.0346 40.8412 91.166 40.8681 91.2862 40.9238C91.3911 40.9728 91.4772 41.0545 91.5317 41.1567C91.5914 41.2689 91.6207 41.3948 91.6167 41.5218V42.6895H91.2767V41.5376Z" fill="white"/>
<path d="M94.3094 42.6833C94.217 42.6652 94.1279 42.6334 94.045 42.5889C93.9626 42.5471 93.8863 42.4942 93.8184 42.4315L94.0324 42.1703C94.1212 42.2408 94.2198 42.2981 94.3251 42.3403C94.4167 42.3747 94.5137 42.3928 94.6115 42.3938C94.7201 42.3994 94.8283 42.3777 94.9263 42.3308C94.9597 42.3101 94.987 42.2807 95.0053 42.2459C95.0235 42.211 95.0321 42.1719 95.0302 42.1325C95.0319 42.1076 95.0277 42.0826 95.0178 42.0596C95.008 42.0366 94.9928 42.0163 94.9735 42.0003C94.9307 41.9696 94.8809 41.9502 94.8287 41.9437C94.7496 41.9298 94.6697 41.9204 94.5895 41.9154H94.5014C94.4002 41.9094 94.2999 41.8926 94.2024 41.865C94.1209 41.8406 94.0493 41.791 93.9978 41.7234C93.9383 41.6366 93.9095 41.5325 93.9159 41.4275C93.9123 41.3173 93.9396 41.2083 93.9946 41.1127C94.0513 41.0256 94.1339 40.9585 94.2307 40.9207C94.3557 40.8756 94.4881 40.8543 94.621 40.8578C94.7118 40.8581 94.8024 40.8665 94.8917 40.883C94.9759 40.9011 95.0581 40.9274 95.1372 40.9617C95.2167 40.9973 95.2926 41.0405 95.3638 41.0907L95.1466 41.352C95.063 41.2982 94.9732 41.2549 94.8791 41.2229C94.7962 41.1936 94.7089 41.1786 94.621 41.1788C94.5254 41.1709 94.4297 41.1929 94.3471 41.2418C94.3166 41.2616 94.2919 41.2893 94.2758 41.322C94.2598 41.3547 94.2529 41.3912 94.2559 41.4275C94.2546 41.4486 94.2585 41.4696 94.2673 41.4889C94.2761 41.5081 94.2895 41.5248 94.3062 41.5377C94.3455 41.5645 94.391 41.5807 94.4384 41.5849C94.5125 41.5962 94.5871 41.6035 94.6619 41.6069H94.7406C94.847 41.6119 94.9526 41.6288 95.0553 41.6573C95.1453 41.6816 95.2249 41.7347 95.2819 41.8083C95.3487 41.9051 95.3808 42.0215 95.3732 42.1388C95.3756 42.2497 95.3461 42.359 95.2882 42.4536C95.227 42.5436 95.1389 42.6119 95.0364 42.6487C94.8995 42.6939 94.7557 42.7152 94.6115 42.7117C94.5101 42.7138 94.4087 42.7043 94.3094 42.6833Z" fill="white"/>
<path d="M97.4805 40.8705H98.2988V41.1852H97.4805V40.8705ZM97.77 42.5764C97.6939 42.4729 97.6571 42.3457 97.6662 42.2176V40.3291H98.025V42.2176C98.0231 42.2529 98.0319 42.288 98.0502 42.3183C98.0591 42.3307 98.071 42.3406 98.0847 42.3472C98.0985 42.3538 98.1136 42.3569 98.1289 42.3561H98.2988V42.696H98.0942C98.0347 42.7016 97.9747 42.6938 97.9185 42.6731C97.8624 42.6524 97.8117 42.6193 97.77 42.5764Z" fill="white"/>
<path d="M104.094 39.8413H104.449V42.9888H104.094V39.8413Z" fill="white"/>
<path d="M111.066 40.1403H111.421V42.6897H111.062L111.066 40.1403ZM111.223 41.2734H112.092C112.155 41.2751 112.218 41.2575 112.271 41.223C112.325 41.1902 112.368 41.1419 112.394 41.0845C112.448 40.9514 112.448 40.8021 112.394 40.669C112.368 40.6086 112.323 40.5579 112.267 40.524C112.21 40.4901 112.145 40.4748 112.079 40.4802H111.21V40.1403H112.063C112.199 40.138 112.333 40.1693 112.454 40.2315C112.563 40.2902 112.653 40.38 112.712 40.4896C112.775 40.6086 112.807 40.742 112.803 40.8768C112.805 41.0114 112.774 41.1443 112.712 41.2639C112.651 41.3728 112.56 41.4622 112.451 41.522C112.331 41.5846 112.198 41.616 112.063 41.6133H111.21L111.223 41.2734ZM111.915 41.5346L112.271 41.4528L112.923 42.6897H112.501L111.915 41.5346Z" fill="white"/>
<path d="M115.407 42.6202C115.289 42.5586 115.195 42.4617 115.136 42.3432C115.069 42.2049 115.037 42.0528 115.041 41.8994V41.6948C115.037 41.5368 115.069 41.3798 115.133 41.2353C115.188 41.1144 115.279 41.0133 115.394 40.9457C115.52 40.876 115.662 40.8413 115.806 40.845C115.945 40.8411 116.081 40.8807 116.197 40.9583C116.309 41.0416 116.395 41.1567 116.442 41.2888C116.503 41.454 116.532 41.6291 116.527 41.805V41.9246H115.299V41.635H116.187C116.185 41.5113 116.144 41.3914 116.071 41.2919C116.04 41.2511 116 41.2183 115.954 41.1964C115.908 41.1744 115.857 41.164 115.806 41.166C115.747 41.1627 115.688 41.1732 115.633 41.1967C115.578 41.2201 115.53 41.256 115.491 41.3014C115.412 41.4096 115.373 41.5421 115.381 41.6759V41.9089C115.377 41.9716 115.386 42.0345 115.406 42.094C115.427 42.1534 115.459 42.2081 115.501 42.2551C115.546 42.2965 115.599 42.3284 115.657 42.349C115.715 42.3695 115.776 42.3783 115.838 42.3747C115.912 42.3753 115.986 42.3603 116.055 42.3306C116.125 42.3018 116.189 42.2601 116.244 42.2079L116.48 42.4439C116.388 42.5292 116.281 42.5974 116.165 42.6454C116.058 42.6909 115.942 42.7145 115.825 42.7146C115.68 42.7166 115.537 42.6843 115.407 42.6202Z" fill="white"/>
<path d="M119.167 42.2209C119.165 42.2568 119.175 42.2924 119.196 42.3216C119.205 42.334 119.218 42.344 119.232 42.3505C119.246 42.3571 119.262 42.3601 119.278 42.3594H119.447V42.6993H119.237C119.178 42.7025 119.12 42.6928 119.065 42.6711C119.011 42.6494 118.962 42.616 118.922 42.5734C118.842 42.4726 118.803 42.3459 118.812 42.2178V40.1436H119.167V42.2209Z" fill="white"/>
<path d="M121.641 40.1431H121.999V40.4987H121.641V40.1431ZM121.641 40.8701H121.999V42.6894H121.641V40.8701Z" fill="white"/>
<path d="M124.414 42.5763C124.357 42.523 124.312 42.4575 124.283 42.3844C124.254 42.3114 124.242 42.2328 124.247 42.1545C124.242 42.0797 124.253 42.0046 124.28 41.9345C124.306 41.8644 124.348 41.8009 124.402 41.7485C124.533 41.648 124.697 41.5998 124.861 41.6131H125.377L125.403 41.8996H124.864C124.789 41.8945 124.714 41.9168 124.653 41.9625C124.629 41.988 124.611 42.0182 124.599 42.0513C124.587 42.0843 124.582 42.1195 124.584 42.1545C124.582 42.1935 124.589 42.2325 124.604 42.2682C124.62 42.3038 124.645 42.335 124.676 42.3591C124.76 42.409 124.858 42.432 124.956 42.4252C125.062 42.4314 125.169 42.4164 125.27 42.3811C125.299 42.3724 125.325 42.3545 125.343 42.3301C125.361 42.3057 125.371 42.2762 125.371 42.2458L125.409 42.5007C125.378 42.548 125.339 42.5886 125.292 42.6203C125.243 42.6532 125.189 42.6777 125.132 42.6927C125.065 42.7087 124.996 42.7161 124.927 42.7148C124.745 42.7295 124.564 42.6805 124.414 42.5763ZM125.359 41.5376C125.365 41.4355 125.331 41.3349 125.264 41.2575C125.228 41.2239 125.185 41.1979 125.139 41.1812C125.092 41.1644 125.043 41.1572 124.993 41.1599C124.921 41.1606 124.849 41.1723 124.779 41.1945C124.714 41.214 124.652 41.2449 124.597 41.2858L124.336 41.1064C124.41 41.0221 124.502 40.9564 124.606 40.9144C124.726 40.8664 124.855 40.8429 124.984 40.8452C125.117 40.841 125.25 40.8679 125.371 40.9238C125.475 40.9747 125.56 41.0559 125.617 41.1568C125.674 41.2698 125.702 41.3952 125.698 41.5219V42.6896H125.359V41.5376Z" fill="white"/>
<path d="M128.039 40.1436H128.395V42.6899H128.039V40.1436ZM128.555 42.6332C128.471 42.5778 128.406 42.4975 128.37 42.4035L128.395 42.0226C128.393 42.0923 128.409 42.1613 128.439 42.2241C128.464 42.2779 128.506 42.3221 128.558 42.35C128.619 42.3803 128.686 42.3954 128.754 42.394C128.804 42.3963 128.855 42.388 128.902 42.3696C128.949 42.3511 128.992 42.323 129.027 42.287C129.099 42.1982 129.133 42.0857 129.125 41.9723V41.5788C129.131 41.4656 129.097 41.3539 129.027 41.2641C128.992 41.227 128.95 41.198 128.903 41.1789C128.855 41.1599 128.804 41.1514 128.754 41.1539C128.686 41.1525 128.619 41.1676 128.558 41.198C128.506 41.2245 128.464 41.2677 128.439 41.3207C128.408 41.3812 128.393 41.4482 128.395 41.5159L128.36 41.1665C128.408 41.0661 128.482 40.9804 128.574 40.9178C128.662 40.8615 128.765 40.832 128.87 40.8329C128.986 40.8302 129.1 40.8596 129.2 40.9178C129.294 40.98 129.366 41.0688 129.408 41.1728C129.46 41.2994 129.485 41.4357 129.481 41.5725V41.9691C129.484 42.1048 129.459 42.2398 129.408 42.3657C129.362 42.4694 129.287 42.557 129.191 42.6175C129.089 42.6768 128.972 42.7063 128.854 42.7025C128.75 42.71 128.646 42.6859 128.555 42.6332Z" fill="white"/>
<path d="M132.141 42.2209C132.138 42.2568 132.148 42.2924 132.169 42.3216C132.179 42.334 132.191 42.344 132.206 42.3505C132.22 42.3571 132.235 42.3601 132.251 42.3594H132.418V42.6993H132.21C132.152 42.7025 132.093 42.6928 132.039 42.6711C131.985 42.6494 131.936 42.616 131.895 42.5734C131.815 42.473 131.775 42.3463 131.782 42.2178V40.1436H132.141V42.2209Z" fill="white"/>
<path d="M134.93 42.6202C134.812 42.5591 134.716 42.4622 134.656 42.3432C134.591 42.2046 134.56 42.0525 134.565 41.8994V41.6948C134.56 41.537 134.59 41.3801 134.653 41.2353C134.709 41.1143 134.8 41.0133 134.914 40.9457C135.042 40.8763 135.185 40.8416 135.33 40.845C135.468 40.8411 135.603 40.8807 135.717 40.9583C135.83 41.0416 135.915 41.1567 135.963 41.2888C136.023 41.4539 136.052 41.6291 136.048 41.805V41.9246H134.823V41.635H135.711C135.706 41.5117 135.666 41.3924 135.594 41.2919C135.564 41.2511 135.524 41.2183 135.478 41.1964C135.432 41.1744 135.381 41.164 135.33 41.166C135.27 41.1624 135.211 41.1728 135.156 41.1963C135.102 41.2198 135.053 41.2558 135.015 41.3014C134.934 41.4086 134.893 41.5415 134.902 41.6759V41.9088C134.898 41.9716 134.906 42.0345 134.927 42.0939C134.947 42.1534 134.98 42.2081 135.021 42.2551C135.067 42.2966 135.121 42.3285 135.179 42.3491C135.238 42.3696 135.3 42.3783 135.361 42.3747C135.435 42.3755 135.508 42.3605 135.575 42.3306C135.647 42.3026 135.712 42.2609 135.767 42.2079L136 42.4439C135.909 42.5307 135.802 42.5991 135.686 42.6454C135.579 42.6912 135.465 42.7147 135.349 42.7146C135.204 42.717 135.06 42.6846 134.93 42.6202Z" fill="white"/>
<path d="M141.842 39.8413H142.201V42.9888H141.842V39.8413Z" fill="white"/>
<path d="M148.816 40.1431H149.172V42.6894H148.816V40.1431ZM148.99 40.1431H150.45V40.483H148.99V40.1431ZM148.99 41.2541H150.249V41.5941H148.99V41.2541ZM148.99 42.3495H150.45V42.6894H148.99V42.3495Z" fill="white"/>
<path d="M153.229 41.6853L153.399 42.0158L152.94 42.6894H152.543L153.229 41.6853ZM153.229 41.8616L152.562 40.8701H152.968L153.49 41.6853L154.18 42.6894H153.783L153.229 41.8616ZM153.346 41.5154L153.742 40.8701H154.142L153.506 41.8616L153.346 41.5154Z" fill="white"/>
<path d="M156.367 40.8705H156.723V43.4357H156.367V40.8705ZM156.883 42.6331C156.799 42.5777 156.734 42.4973 156.698 42.4033L156.723 42.0224C156.722 42.0917 156.736 42.1604 156.764 42.2239C156.791 42.2773 156.834 42.3212 156.887 42.3498C156.947 42.3801 157.014 42.3953 157.082 42.3938C157.132 42.3962 157.183 42.3878 157.23 42.3694C157.277 42.351 157.32 42.3228 157.356 42.2868C157.427 42.198 157.462 42.0856 157.453 41.9721V41.5786C157.459 41.4654 157.425 41.3537 157.356 41.2639C157.321 41.2268 157.278 41.1978 157.231 41.1788C157.183 41.1598 157.133 41.1512 157.082 41.1537C157.014 41.1523 156.947 41.1674 156.887 41.1978C156.834 41.2252 156.791 41.268 156.764 41.3205C156.736 41.3818 156.722 41.4484 156.723 41.5157L156.685 41.1663C156.736 41.0667 156.81 40.9813 156.902 40.9177C156.99 40.8608 157.093 40.8312 157.198 40.8327C157.314 40.83 157.428 40.8595 157.529 40.9177C157.622 40.9798 157.694 41.0687 157.736 41.1726C157.789 41.2992 157.813 41.4355 157.809 41.5723V41.9689C157.812 42.1047 157.787 42.2396 157.736 42.3655C157.691 42.4692 157.615 42.5568 157.519 42.6173C157.416 42.6763 157.298 42.7057 157.179 42.7023C157.076 42.7094 156.973 42.6853 156.883 42.6331Z" fill="white"/>
<path d="M160.111 40.8705H160.47V42.6897H160.111V40.8705ZM160.993 41.2135C160.939 41.1937 160.883 41.1841 160.826 41.1852C160.778 41.1785 160.729 41.183 160.683 41.1983C160.637 41.2136 160.595 41.2393 160.561 41.2734C160.526 41.3075 160.5 41.3491 160.484 41.395C160.469 41.4408 160.464 41.4897 160.47 41.5377L160.432 41.1884C160.482 41.0872 160.557 41.0005 160.65 40.9366C160.736 40.8754 160.84 40.8435 160.945 40.8453C161.021 40.8448 161.097 40.8565 161.169 40.8799C161.234 40.9037 161.294 40.94 161.345 40.9869L161.112 41.3017C161.079 41.2638 161.039 41.2337 160.993 41.2135Z" fill="white"/>
<path d="M163.715 42.6202C163.597 42.5599 163.502 42.4626 163.445 42.3432C163.378 42.2049 163.346 42.0528 163.35 41.8994V41.6948C163.345 41.537 163.375 41.3801 163.438 41.2353C163.495 41.1141 163.587 41.0131 163.703 40.9457C163.829 40.876 163.971 40.8413 164.115 40.845C164.253 40.8411 164.388 40.8807 164.502 40.9583C164.617 41.0404 164.704 41.1558 164.751 41.2888C164.811 41.454 164.84 41.6291 164.836 41.805V41.9246H163.608V41.635H164.496C164.491 41.5117 164.451 41.3924 164.379 41.2919C164.349 41.2511 164.309 41.2183 164.263 41.1964C164.217 41.1744 164.166 41.164 164.115 41.166C164.056 41.1627 163.996 41.1732 163.942 41.1967C163.887 41.2201 163.839 41.256 163.8 41.3014C163.721 41.4096 163.682 41.5421 163.69 41.6759V41.9089C163.685 41.9717 163.694 42.0348 163.714 42.0943C163.735 42.1538 163.767 42.2085 163.81 42.2551C163.855 42.2965 163.908 42.3284 163.966 42.349C164.024 42.3695 164.085 42.3783 164.146 42.3747C164.22 42.3755 164.293 42.3605 164.36 42.3306C164.432 42.3026 164.497 42.2609 164.552 42.2079L164.789 42.4439C164.697 42.5297 164.59 42.598 164.474 42.6454C164.367 42.6912 164.253 42.7147 164.137 42.7146C163.991 42.7171 163.846 42.6847 163.715 42.6202Z" fill="white"/>
<path d="M167.448 42.6833C167.356 42.6652 167.267 42.6333 167.184 42.5889C167.101 42.5471 167.025 42.4941 166.957 42.4315L167.168 42.1702C167.257 42.2401 167.356 42.2973 167.461 42.3402C167.553 42.3746 167.651 42.3927 167.75 42.3937C167.859 42.3989 167.967 42.3773 168.065 42.3308C168.098 42.31 168.126 42.2807 168.144 42.2458C168.162 42.2109 168.171 42.1718 168.169 42.1325C168.171 42.1075 168.166 42.0825 168.156 42.0595C168.147 42.0365 168.131 42.0162 168.112 42.0003C168.069 41.9703 168.019 41.9508 167.967 41.9436C167.887 41.9298 167.806 41.9204 167.725 41.9153H167.64C167.534 41.9103 167.428 41.8934 167.325 41.8649C167.245 41.8403 167.174 41.7907 167.124 41.7233C167.063 41.6372 167.034 41.5326 167.042 41.4274C167.038 41.3172 167.066 41.2082 167.121 41.1127C167.176 41.0257 167.258 40.9585 167.354 40.9207C167.479 40.8759 167.611 40.8545 167.744 40.8577C167.835 40.8577 167.925 40.8661 168.015 40.8829C168.1 40.9005 168.183 40.9268 168.263 40.9616C168.341 40.998 168.416 41.0411 168.487 41.0907L168.273 41.3519C168.188 41.2975 168.097 41.2542 168.002 41.2229C167.919 41.193 167.832 41.1781 167.744 41.1788C167.649 41.1713 167.555 41.1933 167.473 41.2417C167.443 41.2615 167.418 41.2893 167.402 41.322C167.386 41.3547 167.379 41.3911 167.382 41.4274C167.381 41.4485 167.385 41.4696 167.393 41.4888C167.402 41.508 167.416 41.5248 167.432 41.5376C167.472 41.5644 167.517 41.5807 167.564 41.5848C167.639 41.5961 167.713 41.6035 167.788 41.6068H167.854C167.961 41.6121 168.066 41.629 168.169 41.6572C168.258 41.6824 168.338 41.7353 168.395 41.8083C168.462 41.905 168.494 42.0215 168.487 42.1388C168.489 42.2497 168.46 42.3589 168.402 42.4535C168.34 42.5428 168.252 42.6109 168.15 42.6487C168.013 42.6938 167.869 42.7151 167.725 42.7116C167.632 42.7122 167.539 42.7027 167.448 42.6833Z" fill="white"/>
<path d="M171.111 42.6833C171.02 42.6646 170.932 42.6328 170.85 42.5889C170.767 42.5471 170.691 42.4941 170.623 42.4315L170.834 42.1702C170.923 42.2407 171.021 42.298 171.127 42.3402C171.218 42.3743 171.315 42.3924 171.413 42.3937C171.522 42.4003 171.63 42.3786 171.728 42.3308C171.762 42.3107 171.79 42.2816 171.809 42.2466C171.828 42.2116 171.837 42.1722 171.835 42.1325C171.837 42.1075 171.832 42.0825 171.822 42.0595C171.813 42.0365 171.797 42.0162 171.778 42.0003C171.735 41.9708 171.685 41.9514 171.633 41.9436C171.553 41.9298 171.472 41.9204 171.391 41.9153H171.303C171.196 41.9103 171.091 41.8934 170.988 41.8649C170.907 41.8396 170.836 41.7902 170.784 41.7233C170.725 41.6362 170.698 41.5321 170.705 41.4274C170.701 41.3172 170.729 41.2082 170.784 41.1127C170.838 41.0251 170.92 40.9577 171.016 40.9207C171.142 40.8759 171.274 40.8545 171.407 40.8577C171.498 40.8579 171.588 40.8663 171.677 40.8829C171.762 40.9001 171.844 40.9265 171.923 40.9616C172.002 40.9972 172.078 41.0404 172.15 41.0907L171.936 41.3519C171.851 41.2981 171.76 41.2548 171.665 41.2229C171.582 41.1933 171.495 41.1783 171.407 41.1788C171.311 41.1717 171.216 41.1936 171.133 41.2417C171.103 41.2624 171.08 41.2904 171.064 41.3229C171.049 41.3555 171.042 41.3915 171.045 41.4274C171.044 41.4485 171.047 41.4696 171.056 41.4888C171.065 41.508 171.078 41.5248 171.095 41.5376C171.134 41.5639 171.178 41.5802 171.224 41.5848C171.278 41.5848 171.353 41.5848 171.451 41.6068H171.539C171.645 41.6121 171.751 41.629 171.854 41.6572C171.943 41.6831 172.022 41.7359 172.08 41.8083C172.146 41.9054 172.177 42.0218 172.168 42.1388C172.172 42.2494 172.144 42.3586 172.087 42.4535C172.024 42.5436 171.935 42.6118 171.832 42.6487C171.695 42.6943 171.551 42.7156 171.407 42.7116C171.307 42.7133 171.208 42.7038 171.111 42.6833Z" fill="white"/>
</svg>
