<svg width="1386" height="154" viewBox="0 0 1386 154" fill="none" xmlns="http://www.w3.org/2000/svg">
<g opacity="0.08">
<path d="M1179.32 127.916C1181.33 127.174 1183.34 126.434 1185.7 125.566C1187.96 127.902 1189.52 129.513 1191.23 131.273C1195.21 129.441 1195.38 124.456 1203.06 125.141C1211.59 133.17 1195.69 134.306 1191.51 139.475C1212.7 145.171 1232.64 148.348 1254.46 144.536C1259.48 143.658 1265.96 144.612 1271.04 145.91C1277.53 147.573 1283.18 150.713 1290.81 149.942C1294 149.621 1297.25 149.236 1300.26 148.516C1305.9 147.162 1310.68 146.804 1314.2 150.881C1317.2 154.352 1322.63 154.03 1326.39 152.204C1337.44 146.84 1349.67 147.392 1362.23 148.054C1374.36 148.692 1368.91 149.647 1381.06 149.942C1387.77 150.105 1380.43 150.853 1385.13 146.494C1380.89 141.248 1383.17 141.265 1376.63 141.209C1361.09 141.076 1360.98 140.766 1345.48 141.587C1320.4 142.915 1295.5 143.717 1270.37 141.209C1252.05 139.378 1234.53 136.136 1216.85 132.408V46.5122H1249.2C1250.29 68.9481 1251.36 91.1661 1252.45 113.606H1264.22V72.7857H1271.4C1272.16 86.604 1272.91 100.232 1273.66 113.916C1279.25 112.839 1279.36 112.65 1279.18 110.086C1278.39 98.5141 1277.71 86.9401 1276.96 75.3674C1276.75 72.0899 1276.43 68.8174 1276.13 65.2797H1322.15V130.16C1325.23 130.402 1327.65 130.591 1330.86 130.843C1331.76 125.129 1332.57 119.935 1333.47 114.176C1337.77 114.548 1341.62 114.88 1345.76 115.239C1346.57 119.617 1347.37 124.008 1348.2 128.483C1352.97 129.241 1357.6 129.977 1362.85 130.812C1365.64 129.336 1366.75 125.017 1372.33 126.644C1375.74 127.634 1378.2 129.958 1381.06 131.67" stroke="white" stroke-width="0.8" stroke-linecap="round" stroke-linejoin="round"/>
<path d="M80.0508 134.364C85.7135 134.731 91.0514 135.079 97.0079 135.464C97.7329 127.77 98.4134 120.562 99.1055 113.19C106.634 112.705 113.92 112.236 122.301 111.695C122.964 120.075 123.612 128.233 124.275 136.595H129.982V76.5391H159.86V133.562C163.504 132.766 164.96 132.448 167.146 131.97V100.703H213.055V131.78C220.247 130.683 220.306 130.683 220.33 126.977C220.374 119.938 220.341 112.902 220.341 105.628H240.745V130.838C243.761 129.587 245.857 128.716 247.96 127.843C255.607 128.889 255.879 133.575 258.965 136.83" stroke="white" stroke-width="0.8" stroke-linecap="round" stroke-linejoin="round"/>
<path d="M1122.48 130.731C1121.05 127.229 1117.1 129.035 1115.34 129.909C1111.51 131.808 1107.78 133.177 1102.81 133.103C1094.65 132.985 1091.88 131.283 1091.88 126.038C1091.88 93.0389 1091.88 60.0398 1091.88 27.0445C1093.34 26.7296 1094.79 26.4122 1096.61 26.0138V1H1117.75V25.791C1119.43 26.2802 1120.89 26.7084 1123.21 27.3843V32.2016C1123.21 56.5993 1123.2 80.9969 1123.24 105.395C1123.25 106.958 1123.7 108.521 1123.94 110.086" stroke="white" stroke-width="0.8" stroke-linecap="round" stroke-linejoin="round"/>
<path d="M865.976 116.186C865.275 120.118 863.817 124.133 866.852 127.665C867.596 127.598 868.343 127.531 869.089 127.465C869.652 124.944 870.212 122.424 870.871 119.47H879.274C880.207 114.681 881.07 110.268 882.019 105.394H898.767V99.2945C898.767 86.3139 898.713 73.3334 898.839 60.3528C898.854 58.7247 899.823 57.1002 900.35 55.4745C901.284 55.5131 902.22 55.5517 903.154 55.5903C904.074 69.548 904.992 83.5057 905.918 97.568C911.268 96.6556 910.417 94.3129 910.419 92.2565C910.433 69.5804 910.427 46.903 910.427 23.7563H960.708V132.245C958.593 133.272 955.535 134.757 953.265 135.861C954.139 141.298 956.461 143.102 965.099 144.285C984.144 146.891 1001.5 144.745 1016.14 135.725C1018.19 137.045 1020.13 138.296 1021.36 139.085C1025.42 138.713 1029.06 138.378 1033.61 137.959C1035.42 132.857 1041.89 135.371 1047.29 135.71C1049.64 134.867 1052.01 134.014 1054.39 133.161C1050.73 128.822 1046.9 128.237 1039.48 131.172C1036.71 129.238 1033.93 127.29 1030.56 124.937C1025.15 128.767 1020.87 131.799 1017.08 134.483H1007.35" stroke="white" stroke-width="0.8" stroke-linecap="round" stroke-linejoin="round"/>
<path d="M977.471 129.323C977.227 127.289 976.727 125.253 976.783 123.225C977.191 108.679 977.805 94.1347 978.163 79.5882C978.362 71.4561 978.198 63.3202 978.198 55.0064C986.412 54.2122 993.239 53.5512 1000.79 52.8218V107.358C1002.57 107.219 1004.24 107.087 1006.25 106.929V79.9916C1009.11 79.6318 1011.78 79.297 1014.63 78.936C1014.63 84.7503 1015.2 89.9448 1014.47 95.0633C1013.8 99.7225 1016.37 102.035 1023.38 102.602C1024.65 102.705 1025.86 103.102 1027.75 103.499V113.734C1031.08 113.973 1033.74 114.166 1036.87 114.391C1037.66 96.7973 1038.43 79.7438 1039.21 62.4638H1057.63V128.183C1065.3 124.877 1059.49 119.807 1064.26 116.151C1065.37 116.404 1066.97 116.764 1068.56 117.125" stroke="white" stroke-width="0.8" stroke-linecap="round" stroke-linejoin="round"/>
<path d="M703.477 117.594C703.719 114.465 703.854 111.333 704.235 108.211C704.676 104.571 705.335 100.941 705.995 96.7003C709.705 97.8355 712.061 98.5575 715.501 99.6081V42.7578H741.37V123.889C743.578 123.591 745.028 123.397 747.868 123.015C750.012 125.03 752.452 127.321 755.077 129.789C759.667 129.76 759.667 129.76 768.409 140.68C778.824 134.893 789.581 136.674 800.294 140.294C807.11 128.234 817.216 125.976 836.375 132.228C839.772 131.952 842.465 127.047 847.031 131.201" stroke="white" stroke-width="0.8" stroke-linecap="round" stroke-linejoin="round"/>
<path d="M791.649 128.854C778.986 123.932 781.636 124.015 764.219 127.699C765.679 111.93 767.113 96.4548 768.602 80.376C771.328 80.6162 773.476 80.8042 776.538 81.073C777.341 75.5624 778.143 70.0543 779.009 64.1055H826.75C827.585 71.1397 828.368 77.7233 829.173 84.4862C832.225 84.653 834.942 84.7999 838.286 84.9816V101.397C842.574 101.868 846.186 102.267 849.832 102.669C850.447 100.548 850.901 98.9804 851.409 97.2278C856.318 97.8639 861.175 98.4925 865.248 99.0203V115.247" stroke="white" stroke-width="0.8" stroke-linecap="round" stroke-linejoin="round"/>
<path d="M675.057 132.608C683.132 128.843 686.339 129.787 692.015 132.796C695.712 129.747 699.418 126.69 702.977 123.753C706.386 124.63 708.526 125.18 710.662 125.732C710.697 125.365 710.73 124.999 710.763 124.631H720.882C722.03 124.511 724.742 124.224 727.82 123.901C728.346 125.363 728.801 126.618 729.346 128.123C728.101 128.401 727.105 128.76 726.063 128.831C720.727 129.194 715.31 129.24 710.055 129.864C705.377 130.42 701.137 131.912 699.13 134.962C691.646 146.337 675.901 149.178 656.361 143.863C660.269 140.591 664.593 136.967 670.096 132.36C669.81 128.998 669.382 123.989 668.92 118.531H645.908V108.458C643.027 108.213 640.816 108.026 637.893 107.778V93.807C632.86 93.3676 628.475 92.9854 622.776 92.49C622.461 95.8098 622.045 98.9579 621.894 102.111C621.744 105.238 621.86 108.368 621.86 111.661C619.675 111.184 618.219 110.865 616.394 110.468V77.9473H591.621V115.952H581.742C582.032 112.592 582.3 109.474 582.588 106.099C572.015 104.478 562.138 102.964 552.268 101.45V136.126H586.155V121.112H590.824C591.992 125.129 593.082 128.869 594.169 132.608" stroke="white" stroke-width="0.8" stroke-linecap="round" stroke-linejoin="round"/>
<path d="M385.029 135.891C379.842 134.004 378.919 131.098 379.07 127.444C379.457 118.067 379.198 108.679 379.198 98.9151C381.439 98.355 383.875 97.7438 386.098 97.1874C390.486 103.915 384.994 111.265 389.423 116.89H409.694C410.858 113.382 411.793 110.561 412.961 107.045C416.76 107.49 420.609 107.941 424.696 108.419C424.955 110.406 425.185 112.155 425.516 114.694C441.214 116.027 456.78 117.349 473.566 118.774V96.7144H523.482V132.154C529.866 130.755 531.689 133.404 534.009 136.255C535.413 134.979 536.726 133.786 537.453 133.124C549.213 137.732 559.809 142.242 570.99 146.045C574.214 147.144 579.343 146.778 583.197 146.115C598.116 143.544 612.869 140.575 627.692 137.775C631.086 137.134 634.518 136.57 638.949 135.79C635.429 133.544 633.488 130.414 627.69 133.077" stroke="white" stroke-width="0.8" stroke-linecap="round" stroke-linejoin="round"/>
<path d="M326.005 79.1199H332.926V115.247H324.913V51.4385H373.008V120.861C370.102 119.096 368.219 117.774 366.061 116.672C356.579 111.833 348.24 112.954 342.079 119.955C340.103 122.199 338.636 124.631 336.934 126.977" stroke="white" stroke-width="0.8" stroke-linecap="round" stroke-linejoin="round"/>
<path d="M395.231 138.706C396.689 136.36 397.789 133.888 399.674 131.693C404.471 126.108 410.439 122.68 421.358 127.088C433.726 132.082 445.985 137.391 457.012 143.516C476.106 154.124 500.983 153.222 516.504 140.328C513.351 136.473 510.366 132.453 502.136 131.418C500.682 132.82 499.332 134.122 498.054 135.355C492.311 133.513 491.404 137.301 488.856 138.996C477.878 129.885 474.522 129.44 463.73 135.421" stroke="white" stroke-width="0.8" stroke-linecap="round" stroke-linejoin="round"/>
<path d="M1071.47 116.655C1071.86 113.207 1072.24 109.762 1072.65 106.098H1082.32C1081.79 112.581 1081.23 119.297 1080.67 126.108C1082.88 125.96 1084.08 125.879 1085.25 125.8C1086.29 129.493 1087.28 132.969 1088.27 136.492C1091.05 137.16 1093.41 138.304 1095.5 138.126C1102.35 137.545 1107.96 137.907 1111.83 142.36C1112.57 143.212 1117.19 143.32 1119.49 142.797C1122.7 142.071 1125.18 140.079 1128.37 139.264C1132.27 138.266 1137.03 136.864 1140.61 137.509C1149.38 139.089 1155.96 137.041 1162.57 134.021C1168.76 131.192 1171.11 131.371 1176.69 135.143C1171.56 137.016 1166.35 136.568 1161.1 135.891" stroke="white" stroke-width="0.8" stroke-linecap="round" stroke-linejoin="round"/>
<path d="M1145.8 96.9492V84.9844H1178.59C1178.59 88.9614 1178.53 92.7207 1178.6 96.4799C1178.81 106.332 1179.08 116.186 1179.32 126.038" stroke="white" stroke-width="0.8" stroke-linecap="round" stroke-linejoin="round"/>
<path d="M286.654 133.545V110.086V104.925H299.915C300.723 96.5054 301.491 88.5027 302.345 79.5889H323.82" stroke="white" stroke-width="0.8" stroke-linecap="round" stroke-linejoin="round"/>
<path d="M675.055 130.731V91.5115C683.544 91.2613 692.036 91.0135 701.261 90.7422C701.801 95.0417 702.272 98.8096 702.746 102.579" stroke="white" stroke-width="0.8" stroke-linecap="round" stroke-linejoin="round"/>
<path d="M221.8 143.867C223.208 141.594 225.866 140.89 229.039 142.046C231.846 143.068 234.237 144.567 238.344 146.624C228.337 148.402 220.093 150.385 211.575 151.279C188.194 153.73 164.602 154.523 140.915 153.703C140.176 153.677 139.457 153.407 138.728 153.25" stroke="white" stroke-width="0.8" stroke-linecap="round" stroke-linejoin="round"/>
<path d="M880.553 116.187C885.897 116.499 891.258 117.138 896.58 117.027C901.288 116.928 902.875 118.473 903.735 120.547C910.622 119.871 917.423 118.801 924.281 118.62C936.337 118.304 938.121 119.672 938.121 127.447C931.001 131.687 921.638 130.601 910.902 124.485C909.286 125.786 907.896 127.248 905.986 128.333C904.489 129.184 902.351 129.57 899.629 130.44C897.278 127.626 895.215 125.154 893.214 122.758C884.52 122.653 881.176 126.013 880.222 131.288C878.059 130.184 876.563 129.421 875.625 128.942C870.39 130.365 865.931 131.574 861.199 132.86C859.468 131.937 857.332 130.798 854.428 129.25C852.619 130.418 850.917 131.513 849.218 132.608" stroke="white" stroke-width="0.8" stroke-linecap="round" stroke-linejoin="round"/>
<path d="M791.648 126.977C792.103 122.583 792.559 118.187 793.038 113.561C802.602 113.839 811.351 114.096 820.783 114.373C820.486 116.212 820.259 117.602 819.917 119.704H834.755C835.281 117.899 835.747 116.303 836.331 114.304C850.941 114.947 865.017 115.566 879.094 116.186" stroke="white" stroke-width="0.8" stroke-linecap="round" stroke-linejoin="round"/>
<path d="M75.33 149.498C78.5876 150.421 81.8433 151.342 85.041 152.248C87.1541 149.79 89.7002 146.831 92.6176 143.438C97.1918 145.157 100.91 146.079 103.655 147.688C108.902 150.764 113.981 150.646 119.821 148.607C123.168 147.438 126.909 146.736 131.419 145.582C134.271 147.96 136.915 150.161 140.672 153.29C121.522 153.365 104.527 152.38 87.7186 149.968" stroke="white" stroke-width="0.8" stroke-linecap="round" stroke-linejoin="round"/>
<path d="M258.964 139.176C260.6 134.218 264.157 130.022 270.245 126.912C279.098 128.41 282.007 133.119 278.017 137.806C274.581 141.846 272.08 146.214 269.164 150.436" stroke="white" stroke-width="0.8" stroke-linecap="round" stroke-linejoin="round"/>
<path d="M299.043 134.484C302.798 130.163 309.187 128.006 315.803 126.04C323.231 123.832 329.858 125.614 336.159 127.968C339.109 129.069 341.551 130.731 344.223 132.138" stroke="white" stroke-width="0.8" stroke-linecap="round" stroke-linejoin="round"/>
<path d="M538.061 133.077C531.944 130.239 537.533 126.029 533.144 122.52H545.711V131.512C543.636 132.284 541.941 132.915 540.247 133.545" stroke="white" stroke-width="0.8" stroke-linecap="round" stroke-linejoin="round"/>
<path d="M139.457 151.844C149.884 145.196 154.102 145.002 170.064 150.438C174.761 146.444 175.506 140.028 184.677 138.839C193.747 137.664 199.052 141.844 203.862 146.69C206.75 144.995 209.437 143.418 213.138 141.247C216.074 142.772 218.938 144.259 221.801 145.746" stroke="white" stroke-width="0.8" stroke-linecap="round" stroke-linejoin="round"/>
<path d="M1124.67 131.199C1132.36 126.706 1131.75 133.679 1136.11 134.59C1139.36 133.032 1142.87 131.346 1146.34 129.685C1150.18 131.666 1153.82 133.545 1157.46 135.422" stroke="white" stroke-width="0.8" stroke-linecap="round" stroke-linejoin="round"/>
<path d="M1126.13 110.556C1128.31 109.922 1130.49 109.287 1132.92 108.583C1133.39 105.242 1133.87 101.785 1134.4 97.9785C1141.11 97.4719 1147.43 96.9964 1153.82 96.5146V105.16H1146.21C1145.81 102.599 1145.44 100.244 1145.07 97.8876" stroke="white" stroke-width="0.8" stroke-linecap="round" stroke-linejoin="round"/>
<path d="M1.00056 146.214C11.5873 144.452 22.2167 143.297 33.0645 145.275" stroke="white" stroke-width="0.8" stroke-linecap="round" stroke-linejoin="round"/>
<path d="M437.496 135.421C436.626 136.542 435.756 137.663 435.043 138.581C432.721 138.191 430.784 137.865 428.831 137.535C423.756 141.685 428.522 146.301 427.271 149.71C423.721 150.386 421.173 151.015 418.534 151.318C417.164 151.477 415.634 151.061 414.177 150.904" stroke="white" stroke-width="0.8" stroke-linecap="round" stroke-linejoin="round"/>
<path d="M345.68 131.2C348.569 129.592 351.459 127.985 355.426 125.778C360.387 128.92 364.551 131.556 368.484 134.048C371.266 133.051 374.504 131.891 377.744 130.731" stroke="white" stroke-width="0.8" stroke-linecap="round" stroke-linejoin="round"/>
<path d="M35.2494 144.337C42.2944 145.119 49.3529 145.851 56.3785 146.697C62.2287 147.404 68.0422 148.247 73.8711 149.028" stroke="white" stroke-width="0.8" stroke-linecap="round" stroke-linejoin="round"/>
<path d="M380.658 134.014V149.497" stroke="white" stroke-width="0.8" stroke-linecap="round" stroke-linejoin="round"/>
<path d="M437.497 132.608C438.955 131.043 440.003 129.194 442.002 128.009C443.547 127.09 446.282 127.004 449.068 127.396C451.147 125.922 453.223 124.447 456.753 121.943C459.431 126.394 461.581 129.97 463.73 133.545" stroke="white" stroke-width="0.8" stroke-linecap="round" stroke-linejoin="round"/>
<path d="M336.936 129.792C335.951 131.198 334.966 132.603 333.09 135.283C331.658 133.35 330.554 131.864 329.452 130.376C328.688 130.544 327.924 130.712 327.159 130.88C325.313 133.496 323.466 136.108 321.631 138.705C314.063 136.158 314.063 136.158 306.331 142.461C296.943 137.723 287.569 138.053 279.366 143.397C276.711 145.127 274.024 146.838 271.352 148.56" stroke="white" stroke-width="0.8" stroke-linecap="round" stroke-linejoin="round"/>
<path d="M992.772 129.323C995.347 128.14 997.923 126.959 1000.68 125.692C1006.7 128.616 1005.93 132.563 1005.89 136.36" stroke="white" stroke-width="0.8" stroke-linecap="round" stroke-linejoin="round"/>
<path d="M976.741 131.669C979.272 129.101 981.801 126.535 985.279 123.007C987.736 125.198 989.526 126.791 991.314 128.384" stroke="white" stroke-width="0.8" stroke-linecap="round" stroke-linejoin="round"/>
<path d="M592.71 134.483C599.578 129.162 602.139 129.222 612.337 134.925C613.497 132.406 614.655 129.888 615.81 127.368C617.528 128.231 619.247 129.091 620.964 129.952C622.963 131.463 624.962 132.973 626.961 134.483" stroke="white" stroke-width="0.8" stroke-linecap="round" stroke-linejoin="round"/>
<path d="M1124.67 111.025C1124.18 114.465 1123.7 117.906 1123.21 121.347" stroke="white" stroke-width="0.8" stroke-linecap="round" stroke-linejoin="round"/>
<path d="M1070.02 118.296C1069.29 121.502 1068.56 124.708 1067.83 127.916" stroke="white" stroke-width="0.8" stroke-linecap="round" stroke-linejoin="round"/>
<path d="M379.928 152.312C381.84 150.896 383.754 149.481 386.022 147.799C388.44 149.149 390.016 150.027 391.588 150.905" stroke="white" stroke-width="0.8" stroke-linecap="round" stroke-linejoin="round"/>
<path d="M392.319 152.313C393.662 151.312 395.008 150.312 396.796 148.979C399.193 150.35 401.254 151.53 403.352 152.732C406.103 151.421 407.632 148.209 412.723 149.967" stroke="white" stroke-width="0.8" stroke-linecap="round" stroke-linejoin="round"/>
<path d="M384.302 138.237C385.394 137.006 386.488 135.774 387.578 134.54C388.423 134.512 389.264 134.482 390.109 134.453C391.816 136.654 393.525 138.852 395.232 141.053" stroke="white" stroke-width="0.8" stroke-linecap="round" stroke-linejoin="round"/>
<path d="M64.3995 148.559C65.4338 150.334 66.4681 152.109 67.4947 153.868C70.1723 152.574 72.3879 151.505 74.5996 150.436" stroke="white" stroke-width="0.8" stroke-linecap="round" stroke-linejoin="round"/>
<path d="M288.11 131.2C294.498 128.439 294.498 128.439 298.312 133.077" stroke="white" stroke-width="0.8" stroke-linecap="round" stroke-linejoin="round"/>
</g>
</svg>
