<svg width="177" height="54" viewBox="0 0 177 54" fill="none" xmlns="http://www.w3.org/2000/svg">
<g clip-path="url(#clip0_14_1578)">
<path d="M110.235 48.6169C41.4809 59.0792 4.72113 28.5736 45.069 13.6418C-15.9139 27.3933 30.7195 66.2524 110.235 48.6169Z" fill="#0000FF"/>
<path d="M36.5491 11.9958C1.574 22.1591 1.27499 44.283 43.1211 51.4561C-1.71514 46.3729 -9.78535 21.2653 36.5491 11.9958Z" fill="#0000FF"/>
<path d="M32.9608 6.91577C8.14901 13.7899 -6.38302 25.8008 6.65395 42.1899C-9.48646 23.9532 5.46104 11.3978 32.9608 6.91577Z" fill="#0000FF"/>
<path d="M45.3465 8.94279L50.6563 14.4509L65.0184 0.875732L37.6729 1.66261L43.181 7.66176L53.8038 5.00841" fill="#0000FF"/>
<path d="M57.6492 27.5823C57.7185 28.5801 58.3448 29.2757 59.5975 29.2757C60.7117 29.2757 61.5458 28.9609 61.5458 28.0167C61.5458 25.7442 53.1514 27.7617 53.1514 21.4541C53.1514 17.7212 56.2108 16.1443 59.5283 16.1443C62.8458 16.1443 65.6722 17.9289 65.9051 21.5706H61.1524C61.15 21.3612 61.1058 21.1544 61.0225 20.9623C60.9391 20.7702 60.8183 20.5967 60.6671 20.4519C60.5158 20.3071 60.3372 20.1939 60.1416 20.119C59.9461 20.0441 59.7376 20.009 59.5283 20.0157C58.7162 20.0157 57.9042 20.2014 57.9042 21.1551C57.9042 23.3112 66.2986 21.2936 66.2986 27.7145C66.2986 31.4475 63.0976 33.166 59.5975 33.166C56.0975 33.166 53.1294 31.3562 52.8965 27.5981L57.6492 27.5823Z" fill="#070330"/>
<path d="M76.1695 32.7537V26.4586C76.1695 25.4609 75.776 24.8849 74.8727 24.8849C73.8057 24.8849 73.1793 25.719 73.1793 26.8993V32.7663H68.6406V16.522H73.1856V22.5274C74.0669 21.4856 75.2032 20.768 76.5251 20.768C79.5373 20.768 80.7207 23.201 80.7207 26.2635V32.7537H76.1695Z" fill="#070330"/>
<path d="M83.5254 16.522H88.0704V19.8615H83.5254V16.522ZM83.5254 21.1614H88.0704V32.7537H83.5254V21.1614Z" fill="#070330"/>
<path d="M95.5362 37.2765H90.9912V21.1612H95.5362V22.5524C95.868 22.0019 96.3379 21.5475 96.8994 21.2345C97.4609 20.9215 98.0944 20.7606 98.7372 20.7678C102.829 20.7678 103.792 24.6865 103.792 26.959C103.792 29.2315 102.848 33.1501 98.7372 33.1501C98.0942 33.1567 97.4606 32.9952 96.8991 32.6816C96.3377 32.3681 95.8679 31.9133 95.5362 31.3623V37.2765ZM97.3932 29.1842C98.69 29.1842 99.2471 28.1645 99.2471 26.959C99.2471 25.7535 98.69 24.7305 97.3932 24.7305C96.0965 24.7305 95.5362 25.7535 95.5362 26.959C95.5362 28.1645 96.0933 29.1842 97.3932 29.1842Z" fill="#070330"/>
<path d="M114.402 19.8739L116.728 16.1819H121.516L116.864 22.9081L114.402 19.8739Z" fill="#3626F1"/>
<path d="M114.402 29.2694L116.864 26.2478L121.377 32.6247H116.864L114.402 29.2694Z" fill="#3626F1"/>
<path d="M110.162 32.6247L115.771 24.4034L113.448 20.9946L105.375 32.6404L110.162 32.6247Z" fill="#3626F1"/>
<g style="mix-blend-mode:multiply">
<path d="M113.405 27.8686L111.05 24.4441L105.385 16.1819H110.163L115.772 24.4032" fill="#3C2CF2"/>
</g>
<path d="M127.523 26.7722C127.523 27.9779 128.08 28.9982 129.378 28.9982C130.677 28.9982 131.233 27.9779 131.233 26.7722C131.233 25.5664 130.677 24.5462 129.378 24.5462C128.08 24.5462 127.523 25.5664 127.523 26.7722ZM127.523 31.1778V37.0907H122.979V20.9753H127.523V22.3665C128.196 21.3463 129.216 20.5811 130.723 20.5811C134.827 20.5811 135.778 24.4998 135.778 26.7722C135.778 29.0446 134.827 32.9633 130.723 32.9633C129.216 32.9633 128.196 32.1981 127.523 31.1778ZM136.894 26.7722C136.894 23.7578 138.726 20.5811 143.294 20.5811C147.862 20.5811 149.694 23.7578 149.694 26.7722C149.694 29.7866 147.862 32.9633 143.294 32.9633C138.726 32.9633 136.894 29.7866 136.894 26.7722ZM145.149 26.7722C145.149 25.7055 144.593 24.6853 143.294 24.6853C141.996 24.6853 141.439 25.7055 141.439 26.7722C141.439 27.8388 141.996 28.8591 143.294 28.8591C144.593 28.8591 145.149 27.8388 145.149 26.7722ZM150.891 28.6504H155.435C155.435 29.5547 156.201 29.9257 156.896 29.9257C157.592 29.9257 158.125 29.6706 158.125 29.0678C158.125 27.6069 151.007 29.1373 151.007 24.6389C151.007 21.7636 153.812 20.5811 156.85 20.5811C159.772 20.5811 162.114 21.8564 162.438 24.7317H158.172C158.056 23.9433 157.43 23.6186 156.711 23.6186C156.177 23.6186 155.551 23.8041 155.551 24.407C155.551 25.8215 162.67 24.2679 162.67 28.8359C162.67 31.7343 159.818 32.9633 157.035 32.9633C153.882 32.9633 151.053 31.5256 150.891 28.6504ZM172.883 32.4763C171.677 32.8937 170.425 32.9633 169.544 32.9633C166.854 32.9633 165.44 31.3633 165.44 28.8823V24.9403H163.608V20.9753H165.44V17.729H169.985V20.9753H172.883V24.9403H169.985V27.7692C169.985 28.604 170.309 28.9054 170.935 28.9054C171.469 28.9054 172.211 28.8359 172.883 28.6967V32.4763Z" fill="#070330"/>
<path d="M61.2852 41.019H61.644V43.5654H61.2852V41.019ZM61.4583 41.019H62.9219V41.359H61.4583V41.019ZM61.4583 42.1301H62.7173V42.47H61.4583V42.1301ZM61.4583 43.2254H62.9219V43.5654H61.4583V43.2254Z" fill="#0000FF"/>
<path d="M65.2671 43.452C65.2094 43.3988 65.1644 43.3332 65.1355 43.2602C65.1066 43.1872 65.0946 43.1086 65.1002 43.0303C65.0943 42.9554 65.105 42.8801 65.1317 42.8099C65.1583 42.7397 65.2003 42.6763 65.2545 42.6242C65.3856 42.5238 65.5494 42.4756 65.714 42.4889H66.2302L66.2554 42.7753H65.714C65.6395 42.771 65.5659 42.7933 65.5063 42.8383C65.4815 42.8633 65.4624 42.8935 65.4505 42.9266C65.4385 42.9598 65.4339 42.9952 65.437 43.0303C65.4344 43.0692 65.4413 43.1082 65.4572 43.1439C65.4731 43.1796 65.4976 43.2108 65.5283 43.2349C65.6128 43.2847 65.7105 43.3078 65.8084 43.301C65.9152 43.3068 66.0221 43.2918 66.1232 43.2569C66.152 43.2477 66.1772 43.2297 66.1953 43.2054C66.2134 43.1811 66.2234 43.1518 66.2239 43.1216L66.2617 43.3765C66.2303 43.423 66.1909 43.4635 66.1452 43.4961C66.0961 43.529 66.0419 43.5535 65.9847 43.5685C65.9177 43.5845 65.849 43.5919 65.7801 43.5905C65.5981 43.6063 65.4164 43.5573 65.2671 43.452ZM66.2113 42.4134C66.2178 42.3112 66.1839 42.2106 66.1169 42.1332C66.0804 42.0999 66.0377 42.0742 65.9913 42.0574C65.9448 42.0407 65.8955 42.0333 65.8462 42.0357C65.7735 42.0361 65.7013 42.0478 65.6322 42.0703C65.5655 42.0897 65.5026 42.1206 65.4465 42.1616L65.1852 41.9822C65.2628 41.897 65.3601 41.8322 65.4685 41.7933C65.5875 41.7456 65.7149 41.7221 65.8431 41.7241C65.9765 41.7199 66.109 41.7468 66.2302 41.8027C66.3351 41.8518 66.4212 41.9335 66.4757 42.0357C66.5355 42.1478 66.5648 42.2737 66.5607 42.4008V43.5685H66.2208L66.2113 42.4134Z" fill="#0000FF"/>
<path d="M69.2449 43.559C69.1526 43.5409 69.0635 43.5091 68.9805 43.4646C68.8981 43.4228 68.8219 43.3698 68.7539 43.3072L68.9648 43.046C69.0541 43.1158 69.1526 43.173 69.2575 43.2159C69.3502 43.2504 69.4482 43.2685 69.5471 43.2695C69.6556 43.2747 69.7637 43.253 69.8618 43.2065C69.8953 43.1857 69.9226 43.1564 69.9408 43.1215C69.9591 43.0867 69.9677 43.0475 69.9657 43.0082C69.9674 42.9833 69.9632 42.9583 69.9534 42.9353C69.9435 42.9123 69.9283 42.892 69.909 42.876C69.8659 42.846 69.8163 42.8266 69.7643 42.8194C69.684 42.8056 69.6031 42.7961 69.5219 42.791H69.4369C69.3305 42.786 69.2249 42.7691 69.1222 42.7407C69.0417 42.716 68.9711 42.6664 68.9207 42.599C68.8599 42.5129 68.8309 42.4083 68.8389 42.3032C68.8353 42.193 68.8625 42.084 68.9176 41.9884C68.973 41.9014 69.0545 41.8342 69.1505 41.7964C69.2756 41.7516 69.4079 41.7303 69.5408 41.7335C69.6316 41.7334 69.7222 41.7419 69.8115 41.7587C69.8969 41.7762 69.9802 41.8026 70.0601 41.8373C70.1383 41.8737 70.213 41.9169 70.2836 41.9664L70.0696 42.2276C69.9852 42.1733 69.8942 42.1299 69.7989 42.0986C69.7161 42.0687 69.6287 42.0538 69.5408 42.0545C69.4462 42.0471 69.3517 42.069 69.2701 42.1175C69.2395 42.1373 69.2149 42.165 69.1988 42.1977C69.1827 42.2304 69.1758 42.2669 69.1788 42.3032C69.1776 42.3243 69.1815 42.3453 69.1903 42.3645C69.1991 42.3837 69.2124 42.4005 69.2292 42.4133C69.2685 42.4402 69.314 42.4564 69.3614 42.4605C69.4354 42.4718 69.51 42.4792 69.5848 42.4826H69.6509C69.7574 42.4879 69.8629 42.5047 69.9657 42.5329C70.0553 42.5581 70.1346 42.611 70.1923 42.684C70.259 42.7808 70.2912 42.8972 70.2836 43.0145C70.286 43.1254 70.2565 43.2346 70.1986 43.3293C70.1361 43.4193 70.0469 43.4875 69.9437 43.5244C69.8078 43.5698 69.6651 43.5911 69.5219 43.5874C69.4288 43.5879 69.336 43.5784 69.2449 43.559Z" fill="#0000FF"/>
<path d="M72.2979 41.7461H72.663L73.2232 43.3198L73.0218 43.7133L72.2979 41.7461ZM73.9094 41.7461L73.1351 43.9966C73.1114 44.0691 73.074 44.1364 73.0249 44.1949C72.9772 44.2424 72.919 44.2779 72.855 44.2987C72.775 44.3205 72.6924 44.3311 72.6095 44.3302H72.5402V43.9966H72.6095C72.6659 43.9996 72.7219 43.9853 72.77 43.9556C72.8157 43.9197 72.8506 43.8717 72.8707 43.8171L73.5443 41.7618L73.9094 41.7461Z" fill="#0000FF"/>
<path d="M79.5283 40.717H79.884V43.8645H79.5283V40.717Z" fill="#0000FF"/>
<path d="M86.5 41.019H86.8714V43.5654H86.5126L86.5 41.019ZM86.6763 41.019H88.1021V41.359H86.6763V41.019ZM86.6763 42.1521H87.9101V42.4921H86.6763V42.1521Z" fill="#0000FF"/>
<path d="M90.3335 43.452C90.2758 43.3987 90.2308 43.3331 90.2019 43.2601C90.173 43.1871 90.161 43.1085 90.1667 43.0302C90.1607 42.9553 90.1714 42.88 90.1981 42.8098C90.2247 42.7396 90.2667 42.6762 90.3209 42.6242C90.452 42.5237 90.6158 42.4755 90.7804 42.4888H91.2966L91.3218 42.7752H90.7836C90.708 42.7702 90.6331 42.7925 90.5727 42.8382C90.5479 42.8632 90.5288 42.8934 90.5169 42.9266C90.5049 42.9597 90.5003 42.9951 90.5034 43.0302C90.5008 43.0692 90.5077 43.1082 90.5236 43.1438C90.5396 43.1795 90.564 43.2107 90.5947 43.2348C90.6792 43.2847 90.7769 43.3077 90.8748 43.3009C90.9816 43.3067 91.0885 43.2918 91.1896 43.2568C91.2184 43.2476 91.2436 43.2296 91.2617 43.2053C91.2798 43.1811 91.2898 43.1517 91.2903 43.1215L91.3281 43.3764C91.2967 43.4229 91.2573 43.4634 91.2116 43.496C91.1625 43.5289 91.1083 43.5534 91.0511 43.5684C90.9841 43.5844 90.9154 43.5918 90.8465 43.5905C90.6646 43.6057 90.483 43.5567 90.3335 43.452ZM91.2777 42.4133C91.2842 42.3111 91.2503 42.2105 91.1833 42.1332C91.147 42.0996 91.1044 42.0736 91.0579 42.0568C91.0114 42.0401 90.962 42.0328 90.9126 42.0356C90.8399 42.0361 90.7677 42.0478 90.6986 42.0702C90.6329 42.0897 90.5711 42.1206 90.516 42.1615L90.2548 41.9821C90.3281 41.8971 90.421 41.8312 90.5255 41.7901C90.6455 41.7421 90.7739 41.7186 90.9032 41.7208C91.0355 41.7169 91.167 41.7438 91.2872 41.7995C91.392 41.8486 91.4782 41.9303 91.5327 42.0324C91.5924 42.1446 91.6217 42.2705 91.6177 42.3975V43.5653H91.2777V42.4133Z" fill="#0000FF"/>
<path d="M94.3084 43.5591C94.216 43.541 94.1269 43.5091 94.044 43.4647C93.9616 43.4228 93.8853 43.3699 93.8174 43.3073L94.0314 43.046C94.1203 43.1165 94.2189 43.1738 94.3241 43.216C94.4157 43.2504 94.5127 43.2686 94.6106 43.2695C94.7191 43.2751 94.8273 43.2535 94.9253 43.2066C94.9588 43.1858 94.986 43.1565 95.0043 43.1216C95.0226 43.0867 95.0312 43.0476 95.0292 43.0083C95.0309 42.9833 95.0267 42.9583 95.0168 42.9353C95.007 42.9123 94.9918 42.892 94.9725 42.8761C94.9297 42.8454 94.88 42.8259 94.8277 42.8194C94.7486 42.8056 94.6687 42.7961 94.5885 42.7911H94.5004C94.3992 42.7852 94.2989 42.7683 94.2014 42.7407C94.1199 42.7163 94.0483 42.6667 93.9968 42.5991C93.9373 42.5123 93.9085 42.4082 93.915 42.3032C93.9113 42.193 93.9386 42.084 93.9936 41.9885C94.0503 41.9014 94.1329 41.8342 94.2297 41.7965C94.3547 41.7514 94.4871 41.73 94.62 41.7335C94.7108 41.7338 94.8014 41.7422 94.8907 41.7587C94.9749 41.7768 95.0571 41.8032 95.1362 41.8374C95.2157 41.873 95.2916 41.9162 95.3628 41.9664L95.1456 42.2277C95.062 42.1739 94.9722 42.1306 94.8781 42.0986C94.7952 42.0693 94.7079 42.0544 94.62 42.0546C94.5244 42.0467 94.4287 42.0687 94.3462 42.1175C94.3156 42.1373 94.2909 42.1651 94.2749 42.1978C94.2588 42.2305 94.2519 42.2669 94.2549 42.3032C94.2536 42.3243 94.2576 42.3454 94.2663 42.3646C94.2751 42.3838 94.2885 42.4005 94.3052 42.4134C94.3445 42.4402 94.3901 42.4565 94.4374 42.4606C94.5115 42.4719 94.5861 42.4793 94.6609 42.4826H94.7396C94.8461 42.4877 94.9516 42.5045 95.0544 42.533C95.1443 42.5573 95.2239 42.6104 95.281 42.6841C95.3477 42.7808 95.3799 42.8973 95.3723 43.0146C95.3746 43.1255 95.3451 43.2347 95.2873 43.3293C95.226 43.4193 95.1379 43.4876 95.0355 43.5245C94.8985 43.5696 94.7547 43.5909 94.6106 43.5874C94.5091 43.5895 94.4077 43.58 94.3084 43.5591Z" fill="#0000FF"/>
<path d="M97.4814 41.746H98.2998V42.0607H97.4814V41.746ZM97.771 43.4519C97.6949 43.3484 97.6581 43.2212 97.6671 43.0931V41.2046H98.026V43.0931C98.0241 43.1284 98.0328 43.1635 98.0511 43.1938C98.0601 43.2062 98.0719 43.2161 98.0857 43.2227C98.0994 43.2293 98.1146 43.2324 98.1298 43.2316H98.2998V43.5715H98.0952C98.0357 43.5771 97.9756 43.5692 97.9195 43.5485C97.8634 43.5278 97.8127 43.4948 97.771 43.4519Z" fill="#0000FF"/>
<path d="M104.095 40.717H104.45V43.8645H104.095V40.717Z" fill="#0000FF"/>
<path d="M111.066 41.016H111.421V43.5655H111.062L111.066 41.016ZM111.223 42.1491H112.092C112.155 42.1508 112.218 42.1332 112.271 42.0987C112.325 42.0659 112.368 42.0177 112.394 41.9602C112.448 41.8271 112.448 41.6779 112.394 41.5448C112.368 41.4843 112.323 41.4336 112.267 41.3997C112.21 41.3658 112.145 41.3505 112.079 41.3559H111.21V41.016H112.063C112.199 41.0137 112.333 41.0451 112.454 41.1073C112.563 41.1659 112.653 41.2557 112.712 41.3654C112.775 41.4844 112.807 41.6177 112.803 41.7525C112.805 41.8871 112.774 42.0201 112.712 42.1396C112.651 42.2485 112.56 42.338 112.451 42.3977C112.331 42.4603 112.198 42.4917 112.063 42.489H111.21L111.223 42.1491ZM111.915 42.4103L112.271 42.3285L112.923 43.5655H112.501L111.915 42.4103Z" fill="#0000FF"/>
<path d="M115.407 43.4962C115.289 43.4346 115.195 43.3377 115.136 43.2192C115.069 43.0809 115.037 42.9287 115.041 42.7754V42.5708C115.037 42.4128 115.069 42.2558 115.133 42.1113C115.188 41.9903 115.279 41.8893 115.394 41.8217C115.52 41.752 115.662 41.7172 115.806 41.721C115.945 41.717 116.081 41.7567 116.197 41.8343C116.309 41.9176 116.395 42.0326 116.442 42.1648C116.503 42.3299 116.532 42.5051 116.527 42.681V42.8006H115.299V42.511H116.187C116.185 42.3873 116.144 42.2674 116.071 42.1679C116.04 42.1271 116 42.0943 115.954 42.0724C115.908 42.0504 115.857 42.04 115.806 42.042C115.747 42.0387 115.688 42.0492 115.633 42.0726C115.578 42.0961 115.53 42.132 115.491 42.1774C115.412 42.2856 115.373 42.418 115.381 42.5519V42.7848C115.377 42.8476 115.386 42.9105 115.406 42.9699C115.427 43.0294 115.459 43.0841 115.501 43.1311C115.546 43.1725 115.599 43.2044 115.657 43.2249C115.715 43.2455 115.776 43.2542 115.838 43.2507C115.912 43.2513 115.986 43.2363 116.055 43.2066C116.125 43.1777 116.189 43.1361 116.244 43.0838L116.48 43.3199C116.388 43.4052 116.281 43.4734 116.165 43.5213C116.058 43.5669 115.942 43.5904 115.825 43.5906C115.68 43.5926 115.537 43.5602 115.407 43.4962Z" fill="#0000FF"/>
<path d="M119.167 43.0964C119.165 43.1322 119.175 43.1679 119.196 43.1971C119.205 43.2095 119.218 43.2194 119.232 43.226C119.246 43.2326 119.262 43.2356 119.278 43.2349H119.447V43.5748H119.237C119.178 43.578 119.12 43.5683 119.065 43.5466C119.011 43.5248 118.962 43.4915 118.922 43.4489C118.842 43.3481 118.803 43.2213 118.812 43.0933V41.019H119.167V43.0964Z" fill="#0000FF"/>
<path d="M121.642 41.019H122V41.3747H121.642V41.019ZM121.642 41.7461H122V43.5654H121.642V41.7461Z" fill="#0000FF"/>
<path d="M124.414 43.452C124.357 43.3988 124.312 43.3332 124.283 43.2602C124.254 43.1872 124.242 43.1086 124.247 43.0302C124.242 42.9554 124.253 42.8803 124.28 42.8102C124.306 42.7401 124.348 42.6766 124.402 42.6242C124.533 42.5238 124.697 42.4756 124.861 42.4889H125.377L125.403 42.7753H124.864C124.789 42.7702 124.714 42.7926 124.653 42.8382C124.629 42.8638 124.611 42.894 124.599 42.927C124.587 42.9601 124.582 42.9952 124.584 43.0302C124.582 43.0692 124.589 43.1082 124.604 43.1439C124.62 43.1795 124.645 43.2108 124.676 43.2348C124.76 43.2847 124.858 43.3078 124.956 43.3009C125.062 43.3071 125.169 43.2921 125.27 43.2569C125.299 43.2481 125.325 43.2302 125.343 43.2058C125.361 43.1815 125.371 43.1519 125.371 43.1215L125.409 43.3765C125.378 43.4237 125.339 43.4644 125.292 43.4961C125.243 43.529 125.189 43.5534 125.132 43.5685C125.065 43.5844 124.996 43.5918 124.927 43.5905C124.745 43.6052 124.564 43.5563 124.414 43.452ZM125.359 42.4133C125.365 42.3112 125.331 42.2106 125.264 42.1332C125.228 42.0996 125.185 42.0736 125.139 42.0569C125.092 42.0401 125.043 42.0329 124.993 42.0356C124.921 42.0364 124.849 42.048 124.779 42.0703C124.714 42.0898 124.652 42.1207 124.597 42.1615L124.336 41.9821C124.41 41.8979 124.502 41.8321 124.606 41.7901C124.726 41.7422 124.855 41.7186 124.984 41.7209C125.117 41.7167 125.25 41.7436 125.371 41.7996C125.475 41.8504 125.56 41.9316 125.617 42.0325C125.674 42.1455 125.702 42.271 125.698 42.3976V43.5653H125.359V42.4133Z" fill="#0000FF"/>
<path d="M128.04 41.019H128.396V43.5654H128.04V41.019ZM128.556 43.5087C128.472 43.4533 128.407 43.373 128.371 43.279L128.396 42.8981C128.394 42.9678 128.409 43.0368 128.44 43.0995C128.465 43.1534 128.507 43.1976 128.559 43.2254C128.62 43.2558 128.687 43.2709 128.755 43.2695C128.805 43.2718 128.856 43.2635 128.903 43.2451C128.95 43.2266 128.993 43.1985 129.028 43.1625C129.1 43.0737 129.134 42.9612 129.126 42.8477V42.4543C129.132 42.3411 129.098 42.2293 129.028 42.1396C128.993 42.1025 128.951 42.0735 128.904 42.0544C128.856 42.0354 128.805 42.0269 128.755 42.0294C128.687 42.028 128.62 42.0431 128.559 42.0735C128.507 42.1 128.465 42.1431 128.44 42.1962C128.409 42.2567 128.394 42.3237 128.396 42.3914L128.361 42.042C128.409 41.9416 128.483 41.8558 128.575 41.7933C128.663 41.737 128.766 41.7074 128.871 41.7083C128.987 41.7057 129.101 41.7351 129.201 41.7933C129.295 41.8555 129.367 41.9443 129.409 42.0483C129.461 42.1749 129.486 42.3111 129.482 42.448V42.8446C129.485 42.9803 129.46 43.1152 129.409 43.2412C129.363 43.3448 129.288 43.4325 129.192 43.493C129.09 43.5523 128.973 43.5818 128.855 43.578C128.751 43.5855 128.647 43.5614 128.556 43.5087Z" fill="#0000FF"/>
<path d="M132.142 43.0964C132.139 43.1322 132.149 43.1679 132.17 43.1971C132.18 43.2095 132.192 43.2194 132.207 43.226C132.221 43.2326 132.236 43.2356 132.252 43.2349H132.419V43.5748H132.211C132.153 43.578 132.094 43.5683 132.04 43.5466C131.986 43.5248 131.937 43.4915 131.896 43.4489C131.816 43.3485 131.776 43.2218 131.783 43.0933V41.019H132.142V43.0964Z" fill="#0000FF"/>
<path d="M134.93 43.4962C134.812 43.4351 134.716 43.3381 134.656 43.2192C134.591 43.0806 134.56 42.9285 134.565 42.7754V42.5708C134.56 42.413 134.59 42.2561 134.653 42.1113C134.709 41.9903 134.8 41.8893 134.914 41.8217C135.042 41.7523 135.185 41.7176 135.33 41.721C135.468 41.717 135.603 41.7567 135.717 41.8343C135.83 41.9176 135.915 42.0326 135.963 42.1648C136.023 42.3299 136.052 42.5051 136.048 42.681V42.8006H134.823V42.511H135.711C135.706 42.3877 135.666 42.2684 135.594 42.1679C135.564 42.1271 135.524 42.0943 135.478 42.0723C135.432 42.0504 135.381 42.04 135.33 42.042C135.27 42.0384 135.211 42.0488 135.156 42.0723C135.102 42.0958 135.053 42.1318 135.015 42.1774C134.934 42.2845 134.893 42.4175 134.902 42.5519V42.7848C134.898 42.8476 134.906 42.9105 134.927 42.9699C134.947 43.0294 134.98 43.0841 135.021 43.131C135.067 43.1726 135.121 43.2045 135.179 43.2251C135.238 43.2456 135.3 43.2543 135.361 43.2507C135.435 43.2515 135.508 43.2365 135.575 43.2066C135.647 43.1786 135.712 43.1369 135.767 43.0838L136 43.3199C135.909 43.4067 135.802 43.4751 135.686 43.5213C135.579 43.5671 135.465 43.5907 135.349 43.5906C135.204 43.5929 135.06 43.5606 134.93 43.4962Z" fill="#0000FF"/>
<path d="M141.842 40.717H142.201V43.8645H141.842V40.717Z" fill="#0000FF"/>
<path d="M148.817 41.019H149.173V43.5654H148.817V41.019ZM148.99 41.019H150.451V41.359H148.99V41.019ZM148.99 42.1301H150.249V42.47H148.99V42.1301ZM148.99 43.2254H150.451V43.5654H148.99V43.2254Z" fill="#0000FF"/>
<path d="M153.23 42.5613L153.4 42.8918L152.941 43.5654H152.544L153.23 42.5613ZM153.23 42.7376L152.563 41.7461H152.969L153.491 42.5613L154.181 43.5654H153.784L153.23 42.7376ZM153.347 42.3913L153.743 41.7461H154.143L153.507 42.7376L153.347 42.3913Z" fill="#0000FF"/>
<path d="M156.368 41.7459H156.724V44.3112H156.368V41.7459ZM156.884 43.5085C156.8 43.4531 156.735 43.3728 156.699 43.2788L156.724 42.8979C156.723 42.9672 156.737 43.0359 156.765 43.0994C156.792 43.1528 156.835 43.1967 156.888 43.2253C156.948 43.2556 157.015 43.2708 157.083 43.2693C157.133 43.2716 157.184 43.2633 157.231 43.2449C157.278 43.2264 157.321 43.1983 157.356 43.1623C157.428 43.0735 157.462 42.9611 157.454 42.8476V42.4541C157.46 42.3409 157.426 42.2292 157.356 42.1394C157.322 42.1023 157.279 42.0733 157.232 42.0543C157.184 42.0352 157.134 42.0267 157.083 42.0292C157.015 42.0278 156.948 42.0429 156.888 42.0733C156.835 42.1007 156.792 42.1435 156.765 42.196C156.737 42.2573 156.723 42.3239 156.724 42.3912L156.686 42.0418C156.737 41.9422 156.811 41.8567 156.903 41.7932C156.991 41.7363 157.094 41.7067 157.199 41.7082C157.315 41.7055 157.429 41.7349 157.53 41.7932C157.623 41.8553 157.695 41.9442 157.737 42.0481C157.79 42.1747 157.814 42.311 157.81 42.4478V42.8444C157.813 42.9802 157.788 43.1151 157.737 43.241C157.692 43.3447 157.616 43.4323 157.52 43.4928C157.417 43.5518 157.299 43.5812 157.18 43.5778C157.077 43.5849 156.974 43.5608 156.884 43.5085Z" fill="#0000FF"/>
<path d="M160.11 41.746H160.469V43.5652H160.11V41.746ZM160.992 42.089C160.938 42.0692 160.882 42.0596 160.825 42.0607C160.777 42.054 160.728 42.0585 160.682 42.0738C160.636 42.0891 160.594 42.1148 160.56 42.1489C160.525 42.183 160.499 42.2246 160.483 42.2705C160.468 42.3163 160.463 42.3652 160.469 42.4132L160.431 42.0639C160.481 41.9627 160.556 41.876 160.649 41.8121C160.735 41.7509 160.839 41.7189 160.944 41.7208C161.02 41.7203 161.096 41.732 161.168 41.7554C161.233 41.7792 161.293 41.8155 161.344 41.8624L161.111 42.1772C161.078 42.1393 161.038 42.1092 160.992 42.089Z" fill="#0000FF"/>
<path d="M163.714 43.4962C163.596 43.4358 163.501 43.3386 163.444 43.2192C163.377 43.0809 163.345 42.9287 163.349 42.7754V42.5708C163.344 42.413 163.374 42.2561 163.437 42.1113C163.494 41.9901 163.586 41.8891 163.702 41.8217C163.828 41.752 163.97 41.7172 164.114 41.721C164.252 41.7171 164.387 41.7567 164.501 41.8343C164.616 41.9164 164.703 42.0318 164.75 42.1648C164.81 42.3299 164.839 42.5051 164.835 42.681V42.8006H163.607V42.511H164.495C164.49 42.3877 164.45 42.2684 164.378 42.1679C164.348 42.1271 164.308 42.0943 164.262 42.0724C164.216 42.0504 164.165 42.04 164.114 42.042C164.055 42.0387 163.995 42.0492 163.941 42.0726C163.886 42.0961 163.838 42.132 163.799 42.1774C163.72 42.2856 163.681 42.418 163.689 42.5519V42.7848C163.684 42.8476 163.693 42.9108 163.713 42.9703C163.734 43.0298 163.766 43.0845 163.809 43.1311C163.854 43.1725 163.907 43.2044 163.965 43.2249C164.023 43.2455 164.084 43.2542 164.145 43.2507C164.219 43.2515 164.292 43.2365 164.36 43.2066C164.431 43.1786 164.496 43.1369 164.551 43.0838L164.788 43.3199C164.696 43.4057 164.589 43.474 164.473 43.5213C164.366 43.5671 164.252 43.5907 164.136 43.5906C163.99 43.5931 163.845 43.5607 163.714 43.4962Z" fill="#0000FF"/>
<path d="M167.447 43.559C167.355 43.5409 167.266 43.5091 167.183 43.4646C167.1 43.4228 167.024 43.3698 166.956 43.3072L167.167 43.046C167.256 43.1158 167.355 43.173 167.46 43.2159C167.552 43.2504 167.65 43.2685 167.749 43.2695C167.858 43.2747 167.966 43.253 168.064 43.2065C168.097 43.1857 168.125 43.1564 168.143 43.1215C168.161 43.0867 168.17 43.0475 168.168 43.0082C168.17 42.9833 168.165 42.9583 168.156 42.9353C168.146 42.9123 168.13 42.892 168.111 42.876C168.068 42.846 168.018 42.8266 167.966 42.8194C167.886 42.8056 167.805 42.7961 167.724 42.791H167.639C167.533 42.786 167.427 42.7691 167.324 42.7407C167.244 42.716 167.173 42.6664 167.123 42.599C167.062 42.5129 167.033 42.4083 167.041 42.3032C167.037 42.193 167.065 42.084 167.12 41.9884C167.175 41.9014 167.257 41.8342 167.353 41.7964C167.478 41.7516 167.61 41.7303 167.743 41.7335C167.834 41.7334 167.924 41.7419 168.014 41.7587C168.099 41.7762 168.182 41.8026 168.262 41.8373C168.34 41.8737 168.415 41.9169 168.486 41.9664L168.272 42.2276C168.187 42.1733 168.096 42.1299 168.001 42.0986C167.918 42.0687 167.831 42.0538 167.743 42.0545C167.648 42.0471 167.554 42.069 167.472 42.1175C167.442 42.1373 167.417 42.165 167.401 42.1977C167.385 42.2304 167.378 42.2669 167.381 42.3032C167.38 42.3243 167.384 42.3453 167.392 42.3645C167.401 42.3837 167.415 42.4005 167.431 42.4133C167.471 42.4402 167.516 42.4564 167.564 42.4605C167.638 42.4718 167.712 42.4792 167.787 42.4826H167.853C167.96 42.4879 168.065 42.5047 168.168 42.5329C168.257 42.5581 168.337 42.611 168.394 42.684C168.461 42.7808 168.493 42.8972 168.486 43.0145C168.488 43.1254 168.459 43.2346 168.401 43.3293C168.339 43.4185 168.251 43.4866 168.149 43.5244C168.012 43.5696 167.868 43.5909 167.724 43.5874C167.631 43.5879 167.538 43.5784 167.447 43.559Z" fill="#0000FF"/>
<path d="M171.111 43.559C171.02 43.5403 170.932 43.5085 170.85 43.4646C170.767 43.4228 170.691 43.3698 170.623 43.3072L170.834 43.046C170.923 43.1165 171.021 43.1737 171.127 43.2159C171.218 43.2501 171.315 43.2682 171.413 43.2695C171.522 43.276 171.63 43.2543 171.728 43.2065C171.762 43.1864 171.79 43.1573 171.809 43.1223C171.828 43.0874 171.837 43.0479 171.835 43.0082C171.837 42.9833 171.832 42.9583 171.822 42.9353C171.813 42.9123 171.797 42.892 171.778 42.876C171.735 42.8465 171.685 42.8271 171.633 42.8194C171.553 42.8056 171.472 42.7961 171.391 42.791H171.303C171.196 42.786 171.091 42.7691 170.988 42.7407C170.907 42.7153 170.836 42.6659 170.784 42.599C170.725 42.5119 170.698 42.4078 170.705 42.3032C170.701 42.193 170.729 42.084 170.784 41.9884C170.838 41.9008 170.92 41.8334 171.016 41.7964C171.142 41.7516 171.274 41.7303 171.407 41.7335C171.498 41.7336 171.588 41.742 171.677 41.7587C171.762 41.7758 171.844 41.8022 171.923 41.8373C172.002 41.873 172.078 41.9162 172.15 41.9664L171.936 42.2276C171.851 42.1738 171.76 42.1305 171.665 42.0986C171.582 42.069 171.495 42.0541 171.407 42.0545C171.311 42.0474 171.216 42.0694 171.133 42.1175C171.103 42.1381 171.08 42.1661 171.064 42.1987C171.049 42.2312 171.042 42.2672 171.045 42.3032C171.044 42.3243 171.047 42.3453 171.056 42.3645C171.065 42.3837 171.078 42.4005 171.095 42.4133C171.134 42.4397 171.178 42.4559 171.224 42.4605C171.278 42.4605 171.353 42.4605 171.451 42.4826H171.539C171.645 42.4879 171.751 42.5047 171.854 42.5329C171.943 42.5589 172.022 42.6116 172.08 42.684C172.146 42.7812 172.177 42.8976 172.168 43.0145C172.172 43.1251 172.144 43.2344 172.087 43.3293C172.024 43.4193 171.935 43.4875 171.832 43.5244C171.695 43.5701 171.551 43.5914 171.407 43.5874C171.307 43.589 171.208 43.5795 171.111 43.559Z" fill="#0000FF"/>
</g>
<defs>
<clipPath id="clip0_14_1578">
<rect width="177" height="52.2486" fill="white" transform="translate(0 0.875732)"/>
</clipPath>
</defs>
</svg>
