<svg width="92" height="92" viewBox="0 0 92 92" fill="none" xmlns="http://www.w3.org/2000/svg">
<circle cx="2.48649" cy="37.2975" r="2.48649" transform="rotate(-90 2.48649 37.2975)" fill="#DDF7FD" fill-opacity="0.6"/>
<circle cx="54.7033" cy="37.2975" r="2.48649" transform="rotate(-90 54.7033 37.2975)" fill="#DDF7FD" fill-opacity="0.6"/>
<circle cx="54.7033" cy="89.215" r="2.48649" transform="rotate(-90 54.7033 89.215)" fill="#DDF7FD" fill-opacity="0.6"/>
<circle cx="19.8927" cy="37.2973" r="2.48649" transform="rotate(-90 19.8927 37.2973)" fill="#DDF7FD" fill-opacity="0.6"/>
<circle cx="72.1076" cy="37.2973" r="2.48649" transform="rotate(-90 72.1076 37.2973)" fill="#DDF7FD" fill-opacity="0.6"/>
<circle cx="72.1076" cy="89.2148" r="2.48649" transform="rotate(-90 72.1076 89.2148)" fill="#DDF7FD" fill-opacity="0.6"/>
<circle cx="37.297" cy="37.2973" r="2.48649" transform="rotate(-90 37.297 37.2973)" fill="#DDF7FD" fill-opacity="0.6"/>
<circle cx="89.5138" cy="37.2973" r="2.48649" transform="rotate(-90 89.5138 37.2973)" fill="#DDF7FD" fill-opacity="0.6"/>
<circle cx="89.5138" cy="89.2148" r="2.48649" transform="rotate(-90 89.5138 89.2148)" fill="#DDF7FD" fill-opacity="0.6"/>
<circle cx="37.297" cy="19.8919" r="2.48649" transform="rotate(-90 37.297 19.8919)" fill="#DDF7FD" fill-opacity="0.6"/>
<circle cx="89.5138" cy="19.8919" r="2.48649" transform="rotate(-90 89.5138 19.8919)" fill="#DDF7FD" fill-opacity="0.6"/>
<circle cx="89.5138" cy="71.8093" r="2.48649" transform="rotate(-90 89.5138 71.8093)" fill="#DDF7FD" fill-opacity="0.6"/>
<circle cx="37.297" cy="2.48654" r="2.48649" transform="rotate(-90 37.297 2.48654)" fill="#DDF7FD" fill-opacity="0.6"/>
<circle cx="89.5138" cy="2.48654" r="2.48649" transform="rotate(-90 89.5138 2.48654)" fill="#DDF7FD" fill-opacity="0.6"/>
<circle cx="89.5138" cy="54.404" r="2.48649" transform="rotate(-90 89.5138 54.404)" fill="#DDF7FD" fill-opacity="0.6"/>
<circle cx="2.48649" cy="19.8919" r="2.48649" transform="rotate(-90 2.48649 19.8919)" fill="#DDF7FD" fill-opacity="0.6"/>
<circle cx="54.7033" cy="19.8919" r="2.48649" transform="rotate(-90 54.7033 19.8919)" fill="#DDF7FD" fill-opacity="0.6"/>
<circle cx="54.7033" cy="71.8093" r="2.48649" transform="rotate(-90 54.7033 71.8093)" fill="#DDF7FD" fill-opacity="0.6"/>
<circle cx="2.48649" cy="2.48647" r="2.48649" transform="rotate(-90 2.48649 2.48647)" fill="#DDF7FD" fill-opacity="0.6"/>
<circle cx="54.7033" cy="2.48647" r="2.48649" transform="rotate(-90 54.7033 2.48647)" fill="#DDF7FD" fill-opacity="0.6"/>
<circle cx="54.7033" cy="54.4039" r="2.48649" transform="rotate(-90 54.7033 54.4039)" fill="#DDF7FD" fill-opacity="0.6"/>
<circle cx="19.8927" cy="19.8919" r="2.48649" transform="rotate(-90 19.8927 19.8919)" fill="#DDF7FD" fill-opacity="0.6"/>
<circle cx="72.1076" cy="19.8919" r="2.48649" transform="rotate(-90 72.1076 19.8919)" fill="#DDF7FD" fill-opacity="0.6"/>
<circle cx="72.1076" cy="71.8093" r="2.48649" transform="rotate(-90 72.1076 71.8093)" fill="#DDF7FD" fill-opacity="0.6"/>
<circle cx="19.8927" cy="2.48654" r="2.48649" transform="rotate(-90 19.8927 2.48654)" fill="#DDF7FD" fill-opacity="0.6"/>
<circle cx="72.1076" cy="2.48654" r="2.48649" transform="rotate(-90 72.1076 2.48654)" fill="#DDF7FD" fill-opacity="0.6"/>
<circle cx="72.1076" cy="54.404" r="2.48649" transform="rotate(-90 72.1076 54.404)" fill="#DDF7FD" fill-opacity="0.6"/>
</svg>
