<svg width="336" height="293" viewBox="0 0 336 293" fill="none" xmlns="http://www.w3.org/2000/svg">
<g clip-path="url(#clip0_225_1844)">
<path d="M269.59 240.553C269.59 240.553 294.984 233.929 314.856 200.809C337.13 163.681 327.574 98.8985 297.907 67.4262C270.384 38.2392 209.452 33.1056 174.096 47.3472C140.686 60.8105 115.027 93.1687 94.6083 97.582C74.1898 101.995 48.7868 94.8247 21.1895 125.179C-6.40772 155.534 -0.338479 223.993 31.1255 246.622C62.5895 269.251 108.958 242.755 149.256 224.539C189.555 206.323 196.171 246.067 269.59 240.553Z" fill="#E4EBFE"/>
<g opacity="0.7">
<path d="M269.59 240.553C269.59 240.553 294.984 233.929 314.856 200.809C337.13 163.681 327.574 98.8985 297.907 67.4262C270.384 38.2392 209.452 33.1056 174.096 47.3472C140.686 60.8105 115.027 93.1687 94.6083 97.582C74.1898 101.995 48.7868 94.8247 21.1895 125.179C-6.40772 155.534 -0.338479 223.993 31.1255 246.622C62.5895 269.251 108.958 242.755 149.256 224.539C189.555 206.323 196.171 246.067 269.59 240.553Z" fill="white"/>
</g>
<path d="M261.177 173.7V173.65C254.42 171.406 244.054 172.168 242.514 173.087C240.876 174.183 239.47 175.59 238.374 177.227C234.734 182.39 232.125 188.207 230.69 194.359L157.205 201.19C154.497 195.344 150.415 190.103 146.317 186.94C145.145 185.959 143.796 185.214 142.342 184.746C141.702 184.669 141.054 184.691 140.421 184.812C137.755 177.087 133.979 169.635 129.26 169.163C119.324 168.169 101.985 171.498 97.2575 181.135C92.5296 190.773 91.0475 214.835 91.0475 214.835L87.7355 218.147C85.3199 213.441 81.9601 209.283 77.8658 205.934C76.6985 204.948 75.3478 204.202 73.8914 203.74C73.0634 203.508 69.7514 204.021 66.282 205.156C66.1413 205.023 66.0088 204.891 65.8598 204.767C62.5478 201.993 55.7582 200.478 51.9659 207.549C48.1737 214.62 52.7277 228.009 54.9964 231.039C56.0982 232.587 57.4799 233.915 59.0702 234.955C61.7446 241.579 66.5222 250.025 73.8748 250.414C76.3932 250.55 78.9114 250.142 81.2586 249.219C83.6058 248.297 85.7271 246.88 87.4788 245.065C92.2481 240.097 92.7615 233.117 90.9647 226.286L91.7348 225.16C91.7348 225.16 93.4487 227.603 100.015 226.617C101.918 226.421 103.723 225.673 105.206 224.465C108.286 232.322 113.263 240.197 121.17 241.372C124.564 241.892 128.03 241.674 131.331 240.734C134.633 239.794 137.694 238.153 140.305 235.924C141.823 234.613 143.147 233.094 144.238 231.412C148.666 231.167 152.837 229.256 155.913 226.063C158.666 223.127 160.24 219.28 160.335 215.257L170.113 214.115C176.252 216.853 182.949 218.107 189.662 217.774C196.091 217.361 202.176 214.727 206.876 210.322L229.158 208.418C229.531 217.054 232.636 224.978 239.922 229.342C242.712 231.007 245.829 232.047 249.059 232.392C252.29 232.736 255.557 232.376 258.635 231.337C268.91 227.893 271.345 212.624 272.007 203.342C273.034 188.438 268.281 175.811 261.177 173.7Z" fill="#263238" stroke="#263238" stroke-width="0.621" stroke-linecap="round" stroke-linejoin="round"/>
<path d="M125.135 236.578C124.281 237.671 123.191 238.556 121.947 239.17" stroke="white" stroke-width="0.414" stroke-linecap="round" stroke-linejoin="round"/>
<path d="M129.151 216.955C129.151 216.955 130.137 227.719 126.469 234.55" stroke="white" stroke-width="0.414" stroke-linecap="round" stroke-linejoin="round"/>
<path d="M132.057 228.845C131.122 232.985 129.259 237.001 125.648 238.781" stroke="white" stroke-width="0.414" stroke-linecap="round" stroke-linejoin="round"/>
<path d="M136.555 216.135C136.555 216.135 138.211 234.028 129.359 238.35" stroke="white" stroke-width="0.414" stroke-linecap="round" stroke-linejoin="round"/>
<path d="M140.262 215.721C140.262 215.721 141.918 233.622 133.059 237.936" stroke="white" stroke-width="0.414" stroke-linecap="round" stroke-linejoin="round"/>
<path d="M251.968 228.265C251.016 229.467 249.834 230.466 248.49 231.205" stroke="white" stroke-width="0.414" stroke-linecap="round" stroke-linejoin="round"/>
<path d="M258.626 205.917C258.626 205.917 258.097 218.164 253.551 225.955" stroke="white" stroke-width="0.414" stroke-linecap="round" stroke-linejoin="round"/>
<path d="M259.81 219.48C258.32 224.191 255.935 228.762 252.168 230.749" stroke="white" stroke-width="0.414" stroke-linecap="round" stroke-linejoin="round"/>
<path d="M265.978 205.007C265.978 205.007 265.093 225.409 255.844 230.294" stroke="white" stroke-width="0.414" stroke-linecap="round" stroke-linejoin="round"/>
<path d="M269.67 204.56C269.67 204.56 268.784 224.953 259.535 229.847" stroke="white" stroke-width="0.414" stroke-linecap="round" stroke-linejoin="round"/>
<path d="M76.2085 247.649C75.5039 248.728 74.5747 249.643 73.4844 250.331" stroke="white" stroke-width="0.414" stroke-linecap="round" stroke-linejoin="round"/>
<path d="M77.5168 230.236C77.5168 230.236 79.8518 239.344 77.2188 245.711" stroke="white" stroke-width="0.414" stroke-linecap="round" stroke-linejoin="round"/>
<path d="M81.8486 240.015C81.476 243.699 80.1926 247.409 76.9883 249.445" stroke="white" stroke-width="0.414" stroke-linecap="round" stroke-linejoin="round"/>
<path d="M84.5045 228.464C84.5045 228.464 88.3961 243.575 80.4805 248.551" stroke="white" stroke-width="0.414" stroke-linecap="round" stroke-linejoin="round"/>
<path d="M87.9987 227.57C87.9987 227.57 91.8986 242.681 83.9746 247.665" stroke="white" stroke-width="0.414" stroke-linecap="round" stroke-linejoin="round"/>
<path d="M116.542 210.819C118.512 222.088 117.279 231.726 113.801 232.347C110.324 232.968 105.894 224.307 103.923 213.038C101.952 201.769 103.186 192.131 106.672 191.51C110.158 190.889 114.571 199.542 116.542 210.819Z" fill="#E4EBFE" stroke="#263238" stroke-width="0.828" stroke-linecap="round" stroke-linejoin="round"/>
<path d="M114.786 211.059C115.333 215.382 114.828 219 113.644 219.149C112.46 219.298 111.069 215.92 110.522 211.598C109.976 207.275 110.522 203.649 111.665 203.5C112.807 203.351 114.24 206.737 114.786 211.059Z" fill="#E4EBFE" stroke="#263238" stroke-width="0.828" stroke-linecap="round" stroke-linejoin="round"/>
<path d="M106.48 200.726C106.598 199.275 106.828 197.836 107.168 196.42" stroke="#263238" stroke-width="0.621" stroke-linecap="round" stroke-linejoin="round"/>
<path d="M111.971 228.282C109.679 223.694 108.041 218.808 107.102 213.767C106.478 210.201 106.226 206.58 106.348 202.962" stroke="#263238" stroke-width="0.621" stroke-linecap="round" stroke-linejoin="round"/>
<path d="M67.812 244.31C70.3151 243.617 70.5235 236.484 68.2776 228.38C66.0316 220.276 62.1818 214.269 59.6787 214.963C57.1756 215.656 56.9672 222.788 59.2131 230.892C61.4591 238.997 65.3089 245.004 67.812 244.31Z" fill="#E4EBFE" stroke="#263238" stroke-width="0.828" stroke-linecap="round" stroke-linejoin="round"/>
<path d="M67.4574 228.704C68.244 231.784 68.2026 234.45 67.358 234.666C66.5135 234.881 65.2052 232.554 64.4186 229.482C63.632 226.41 63.6734 223.728 64.518 223.521C65.3625 223.314 66.6708 225.624 67.4574 228.704Z" stroke="#263238" stroke-width="0.621" stroke-linecap="round" stroke-linejoin="round"/>
<path d="M60.5175 221.972C60.4713 220.911 60.5073 219.848 60.6252 218.793" stroke="#263238" stroke-width="0.621" stroke-linecap="round" stroke-linejoin="round"/>
<path d="M66.9699 241.422C64.8994 238.307 63.2746 234.918 62.1427 231.354C61.3689 228.83 60.8584 226.233 60.6191 223.604" stroke="#263238" stroke-width="0.621" stroke-linecap="round" stroke-linejoin="round"/>
<path d="M245.304 90.072C236.577 72.063 232.809 70.4981 227.005 70.2C221.201 69.9019 207.497 68.1962 192.229 70.6388C192.229 70.6388 149.637 69.8936 116.682 89.8567C82.279 110.697 65.5369 129.005 63.1936 138.493C60.8504 147.982 52.8519 172.706 49.0597 186.882C45.2674 201.057 42.6841 213.543 47.5196 225.019C50.4424 231.958 53.5557 234.045 57.555 234.012C56.9431 232.914 56.4038 231.777 55.9404 230.608C51.966 220.764 52.4462 206.679 56.9836 205.768C61.5211 204.858 64.2287 214.289 66.9693 224.572C67.5134 226.839 68.2502 229.055 69.1718 231.196C75.9531 228.638 86.8165 222.916 101.257 216.971C99.886 207.939 99.8553 198.754 101.166 189.714C103.302 175.58 112.335 172.458 116.268 181.061C119.522 188.149 120.731 204.013 121.054 209.362C126.85 207.366 131.702 206.05 134.691 205.868C134.691 205.868 184.106 194.706 220.53 193.812C256.954 192.918 275.178 192.048 275.178 192.048C275.178 192.048 254.031 108.048 245.304 90.072Z" fill="white"/>
<mask id="mask0_225_1844" style="mask-type:luminance" maskUnits="userSpaceOnUse" x="44" y="69" width="232" height="166">
<path d="M245.306 90.072C236.579 72.063 232.811 70.4981 227.007 70.2C221.203 69.9019 207.499 68.1962 192.231 70.6388C192.231 70.6388 149.639 69.8937 116.684 89.8567C82.281 110.697 65.5388 129.005 63.1956 138.493C60.8524 147.982 52.8539 172.706 49.0616 186.882C45.2694 201.057 42.686 213.543 47.5216 225.019C50.4444 231.958 53.5577 234.045 57.5569 234.012C56.9451 232.914 56.4057 231.777 55.9423 230.608C51.9679 220.764 52.4482 206.679 56.9856 205.768C61.523 204.858 64.2306 214.289 66.9713 224.572C67.5153 226.839 68.2522 229.055 69.1738 231.196C75.9551 228.638 86.8185 222.916 101.259 216.971C99.8879 207.939 99.8572 198.754 101.168 189.714C103.304 175.58 112.337 172.458 116.27 181.061C119.524 188.149 120.733 204.013 121.056 209.362C126.852 207.366 131.704 206.05 134.693 205.868C134.693 205.868 184.108 194.706 220.532 193.812C256.956 192.918 275.18 192.048 275.18 192.048C275.18 192.048 254.033 108.048 245.306 90.072Z" fill="white"/>
</mask>
<g mask="url(#mask0_225_1844)">
<path d="M128.855 176.962C128.855 176.962 123.846 183.818 117.752 185.284C119.905 193.183 120.791 204.874 121.064 209.296C126.239 207.516 130.636 206.265 133.65 205.901C134.088 203.318 134.353 201.67 134.353 201.67L128.855 176.962Z" fill="#E4EBFE"/>
<path opacity="0.2" d="M67.1845 225.318C69.4864 225.549 71.0182 226.543 75.6964 225.375C83.9764 223.314 78.023 207.333 91.7596 200.809C94.4261 199.464 97.3279 198.649 100.305 198.408C100.428 195.483 100.704 192.568 101.133 189.672C101.497 186.828 102.337 184.066 103.617 181.5C99.8657 180.349 99.1867 179.248 92.7946 182.286C79.0498 188.811 81.1115 205.644 72.8729 207.706C66.2986 209.362 65.9342 206.721 60.9414 207.946C63.2764 211.258 65.0814 217.708 66.903 224.506C67.0438 224.812 67.11 225.036 67.1845 225.318Z" fill="#E4EBFE"/>
<g style="mix-blend-mode:multiply">
<path opacity="0.2" d="M53.6629 211.167C49.8127 213.817 47.5192 217.791 46.2109 221.144C46.5658 222.468 47.0027 223.767 47.5192 225.036C50.442 231.975 53.5553 234.061 57.5545 234.028C56.9427 232.93 56.4033 231.793 55.9399 230.625C53.4145 224.357 52.7356 216.383 53.6629 211.167Z" fill="#E4EBFE"/>
</g>
<g style="mix-blend-mode:multiply" opacity="0.2">
<path d="M227.005 70.2L225.506 70.1089C165.12 85.5594 140.553 158.341 132.1 193.415C132.555 196.901 133.052 200.32 133.59 203.649C134.617 203.45 133.905 205.868 134.691 205.826C134.691 205.826 184.106 194.665 220.53 193.771C256.954 192.876 275.178 192.007 275.178 192.007C275.178 192.007 254.031 108.048 245.304 90.072C236.577 72.0961 232.809 70.465 227.005 70.2Z" fill="#E4EBFE"/>
</g>
</g>
<path d="M245.304 90.072C236.577 72.063 232.809 70.4981 227.005 70.2C221.201 69.9019 207.497 68.1962 192.229 70.6388C192.229 70.6388 149.637 69.8936 116.682 89.8567C82.279 110.697 65.5369 129.005 63.1936 138.493C60.8504 147.982 52.8519 172.706 49.0597 186.882C45.2674 201.057 42.6841 213.543 47.5196 225.019C50.4424 231.958 53.5557 234.045 57.555 234.012C56.9431 232.914 56.4038 231.777 55.9404 230.608C51.966 220.764 52.4462 206.679 56.9836 205.768C61.5211 204.858 64.2287 214.289 66.9693 224.572C67.5134 226.839 68.2502 229.055 69.1718 231.196C75.9531 228.638 86.8165 222.916 101.257 216.971C99.886 207.939 99.8553 198.754 101.166 189.714C103.302 175.58 112.335 172.458 116.268 181.061C119.522 188.149 120.731 204.013 121.054 209.362C126.85 207.366 131.702 206.05 134.691 205.868C134.691 205.868 184.106 194.706 220.53 193.812C256.954 192.918 275.178 192.048 275.178 192.048C275.178 192.048 254.031 108.048 245.304 90.072Z" stroke="#263238" stroke-width="0.828" stroke-linecap="round" stroke-linejoin="round"/>
<path opacity="0.2" d="M64.5508 180.953C65.1192 181.426 65.811 181.727 66.5446 181.819C67.2781 181.911 68.0229 181.792 68.6908 181.475C71.299 180.432 71.5639 176.507 71.5639 176.507L75.4721 176.25L76.2587 163.988L67.6475 167.374C67.6475 167.374 65.3374 179.388 64.5508 180.953Z" fill="#E4EBFE"/>
<path d="M53.2574 216.814C50.7849 218.128 48.4471 219.681 46.2773 221.451C46.6207 222.664 47.0354 223.855 47.5193 225.019C50.4422 231.958 53.5555 234.045 57.5547 234.012C56.9428 232.914 56.4035 231.777 55.9401 230.608C54.2427 226.204 53.3346 221.534 53.2574 216.814Z" fill="#263238" stroke="#263238" stroke-width="0.621" stroke-linecap="round" stroke-linejoin="round"/>
<path d="M66.4461 209.975C66.222 209.974 66.0024 209.912 65.8101 209.797C65.6178 209.682 65.46 209.518 65.3532 209.321C65.2024 209.034 65.1701 208.701 65.263 208.391C65.3559 208.081 65.5667 207.82 65.85 207.665C66.0487 207.557 82.1616 197.571 95.5089 190.475C95.653 190.399 95.8108 190.351 95.9732 190.335C96.1356 190.32 96.2996 190.336 96.4557 190.384C96.6117 190.432 96.7569 190.509 96.8829 190.613C97.0088 190.717 97.1131 190.845 97.1898 190.989C97.2664 191.133 97.314 191.29 97.3296 191.453C97.3453 191.615 97.3289 191.779 97.2812 191.935C97.2335 192.091 97.1556 192.237 97.0518 192.363C96.948 192.489 96.8205 192.593 96.6764 192.669C83.3373 199.757 67.2327 209.735 67.034 209.842C66.8528 209.936 66.6502 209.982 66.4461 209.975Z" fill="#263238" stroke="#263238" stroke-width="0.828" stroke-miterlimit="10"/>
<path d="M87.5104 126.976L86.9391 141.193C86.8149 143.13 87.9409 144.066 89.4231 143.23L112.317 128.326C113.159 127.739 113.838 126.948 114.289 126.026C114.741 125.105 114.952 124.084 114.901 123.06L114.76 107.203C114.594 105.763 113.617 105.175 112.417 105.796C108.111 108.023 99.7979 115.558 89.8619 122.571C89.1887 123.105 88.6324 123.771 88.2279 124.529C87.8233 125.287 87.5791 126.12 87.5104 126.976Z" fill="#E4EBFE" stroke="#263238" stroke-width="0.828" stroke-linecap="round" stroke-linejoin="round"/>
<path d="M102.977 122.968L114.163 125.701" stroke="#263238" stroke-width="0.828" stroke-linecap="round" stroke-linejoin="round"/>
<path d="M87.6777 143.296L94.5833 128.044" stroke="#263238" stroke-width="0.828" stroke-linecap="round" stroke-linejoin="round"/>
<path d="M87.6426 126.504L97.7939 127.771C98.8454 127.928 100.154 127.059 101.106 125.552L114.354 106.582" stroke="#263238" stroke-width="0.828" stroke-linecap="round" stroke-linejoin="round"/>
<path d="M144.321 100.563L146.673 136.167C146.734 137.194 147.003 138.199 147.466 139.119C147.928 140.039 148.572 140.855 149.36 141.518C150.148 142.18 151.063 142.675 152.049 142.972C153.035 143.27 154.071 143.363 155.094 143.246L234.184 132.979C235.274 132.853 236.323 132.493 237.26 131.922C238.196 131.351 238.998 130.584 239.609 129.673C240.22 128.762 240.626 127.729 240.799 126.646C240.971 125.563 240.907 124.455 240.609 123.399L230.624 88.0931C230.151 86.4153 229.113 84.9523 227.686 83.9519C226.258 82.9515 224.529 82.4752 222.791 82.6034C209.973 83.5474 179.23 86.3046 150.208 92.7713C148.466 93.1671 146.919 94.1662 145.842 95.592C144.765 97.0177 144.226 98.7783 144.321 100.563Z" fill="#E4EBFE" stroke="#263238" stroke-width="0.828" stroke-linecap="round" stroke-linejoin="round"/>
<path d="M203.109 111.6L239.218 128.706" stroke="#263238" stroke-width="0.828" stroke-linecap="round" stroke-linejoin="round"/>
<path d="M149.67 141.681L180.165 114.39" stroke="#263238" stroke-width="0.828" stroke-linecap="round" stroke-linejoin="round"/>
<path d="M144.584 99.6271L188.344 117.62C189.987 118.291 191.789 118.47 193.533 118.137C195.276 117.803 196.885 116.97 198.164 115.74L229.355 86.288" stroke="#263238" stroke-width="0.828" stroke-linecap="round" stroke-linejoin="round"/>
<path d="M231.978 138.018C239.411 137.835 245.291 131.765 245.111 124.46C244.931 117.154 238.76 111.381 231.326 111.564C223.893 111.747 218.013 117.817 218.193 125.122C218.373 132.428 224.544 138.201 231.978 138.018Z" fill="#263238" stroke="#263238" stroke-width="0.621" stroke-linecap="round" stroke-linejoin="round"/>
<path d="M230.2 131.108H230.159C229.898 131.108 229.64 131.047 229.407 130.929C229.174 130.811 228.972 130.64 228.818 130.429L223.527 123.126C223.269 122.77 223.162 122.326 223.232 121.892C223.301 121.458 223.539 121.07 223.895 120.811C224.251 120.553 224.695 120.447 225.129 120.516C225.563 120.586 225.951 120.824 226.209 121.18L230.159 126.628L239.598 113.587C239.856 113.231 240.245 112.993 240.679 112.924C241.113 112.855 241.557 112.961 241.912 113.219C242.268 113.477 242.507 113.866 242.576 114.3C242.645 114.734 242.539 115.177 242.281 115.533L231.517 130.437C231.364 130.643 231.166 130.811 230.938 130.927C230.709 131.044 230.457 131.105 230.2 131.108Z" fill="white" stroke="#263238" stroke-width="0.828" stroke-linecap="round" stroke-linejoin="round"/>
<path d="M180.189 166.794C180.189 166.794 208.341 161.396 227.634 161.777L228.793 166.414C228.793 166.414 188.287 168.335 180.57 172.21L180.189 166.794Z" fill="#263238" stroke="#263238" stroke-width="0.621" stroke-linecap="round" stroke-linejoin="round"/>
<path d="M180.57 172.193L181.398 176.83C181.484 177.347 181.768 177.809 182.191 178.119C182.613 178.428 183.14 178.56 183.659 178.486C190.722 177.476 215.512 174.073 228.371 174.387C228.687 174.397 229.002 174.332 229.289 174.197C229.576 174.062 229.826 173.861 230.021 173.611C230.215 173.361 230.348 173.068 230.408 172.757C230.468 172.446 230.454 172.125 230.366 171.82L228.826 166.43" stroke="#263238" stroke-width="0.828" stroke-linecap="round" stroke-linejoin="round"/>
<path d="M77.8407 164.004L77.6833 144.877L78.6355 125.212C78.6427 125.024 78.5929 124.838 78.4927 124.679C78.3925 124.52 78.2466 124.394 78.074 124.319C77.9013 124.244 77.7101 124.223 77.5252 124.258C77.3403 124.293 77.1703 124.383 77.0375 124.517C73.4771 128.16 67.383 133.674 65.578 138.195C63.2347 144.049 60.4609 172.864 60.4609 172.864L77.8407 164.004Z" fill="#263238" stroke="#263238" stroke-width="0.621" stroke-linecap="round" stroke-linejoin="round"/>
<path d="M55.7894 160.162H53.0155C51.6025 160.162 50.457 161.308 50.457 162.721V177.012C50.457 178.425 51.6025 179.571 53.0155 179.571H55.7894C57.2024 179.571 58.3479 178.425 58.3479 177.012V162.721C58.3479 161.308 57.2024 160.162 55.7894 160.162Z" fill="#263238" stroke="#263238" stroke-width="0.621" stroke-linecap="round" stroke-linejoin="round"/>
<path d="M57.5371 146.815C58.8502 147.067 60.1325 147.458 61.3625 147.982C62.3823 148.484 63.3091 149.156 64.1031 149.97L68.2431 144.496C68.2431 144.496 62.1739 141.954 61.023 140.406L59.8803 138.849L57.5371 146.815Z" fill="white"/>
<mask id="mask1_225_1844" style="mask-type:luminance" maskUnits="userSpaceOnUse" x="57" y="138" width="12" height="12">
<path d="M57.5371 146.815C58.8502 147.067 60.1325 147.458 61.3625 147.982C62.3823 148.484 63.3091 149.156 64.1031 149.97L68.2431 144.496C68.2431 144.496 62.1739 141.954 61.023 140.406L59.8803 138.849L57.5371 146.815Z" fill="white"/>
</mask>
<g mask="url(#mask1_225_1844)">
<g style="mix-blend-mode:multiply" opacity="0.5">
<path d="M61.0147 140.406L59.9466 138.924L59.8224 139.007L57.5371 146.79C57.5371 146.79 57.9759 146.873 58.5969 147.022L64.5171 142.733C63.2233 142.167 62.0381 141.379 61.0147 140.406Z" fill="#E4EBFE"/>
</g>
</g>
<path d="M57.5371 146.815C58.8502 147.067 60.1325 147.458 61.3625 147.982C62.3823 148.484 63.3091 149.156 64.1031 149.97L68.2431 144.496C68.2431 144.496 62.1739 141.954 61.023 140.406L59.8803 138.849L57.5371 146.815Z" stroke="#263238" stroke-width="0.621" stroke-linecap="round" stroke-linejoin="round"/>
<path d="M66.2817 142.17L61.2227 148.62L61.9099 150.814L69.6186 142.807L66.2817 142.17Z" fill="#E4EBFE" stroke="#263238" stroke-width="0.828" stroke-linecap="round" stroke-linejoin="round"/>
<path d="M58.1818 123.945C54.7622 121.296 45.8529 122.985 44.1058 129.261C43.0294 133.128 43.6256 138.924 43.6256 138.924L53.7769 136.771L54.6049 138.021C56.2609 140.505 59.8461 138.849 60.7735 138.021C61.2786 137.583 61.2454 136.291 61.113 135.223L61.5187 135.132C61.5187 135.132 61.5932 126.603 58.1818 123.945Z" fill="#263238" stroke="#263238" stroke-width="0.621" stroke-linecap="round" stroke-linejoin="round"/>
<path d="M54.3912 136.009C49.9357 135.513 45.4256 135.942 41.1432 137.268C34.5192 139.487 33.5008 141.408 38.2452 141.292C42.9897 141.176 54.3912 136.009 54.3912 136.009Z" fill="#263238" stroke="#263238" stroke-width="0.621" stroke-linecap="round" stroke-linejoin="round"/>
<path d="M46.2099 133.6C46.9827 133.6 47.6092 132.744 47.6092 131.687C47.6092 130.631 46.9827 129.775 46.2099 129.775C45.437 129.775 44.8105 130.631 44.8105 131.687C44.8105 132.744 45.437 133.6 46.2099 133.6Z" fill="#E4EBFE"/>
<path d="M77.6824 144.877C77.6824 144.877 68.6158 142.575 65.8255 144.695C63.0351 146.815 62.323 150.317 63.2173 154.565C64.1115 158.813 66.2892 169.982 66.2892 169.982L77.8398 164.004L77.6824 144.877Z" fill="#263238" stroke="#263238" stroke-width="0.621" stroke-linecap="round" stroke-linejoin="round"/>
<path d="M63.2928 168.202C63.2928 168.202 62.8043 172.491 62.233 173.096C61.6617 173.7 46.5921 161.04 45.673 159.848C44.7539 158.655 45.3832 154.399 45.673 153.066C45.9628 151.733 45.4743 151.005 44.017 151.924C42.5597 152.843 42.9489 156.668 42.9489 156.668C42.9489 156.668 38.5025 155.6 37.6166 155.476C36.7306 155.352 35.9606 156.453 36.093 157.33C36.2255 158.208 37.393 158.283 37.393 158.283C37.0943 159.554 37.1778 160.884 37.6331 162.108C38.4114 163.714 39.2891 164.725 40.9451 165.122C42.6537 165.388 44.3835 165.494 46.1118 165.437C46.1118 165.437 53.8122 172.773 56.0478 175.513C58.2834 178.254 62.9948 181.98 65.338 181.309C67.6812 180.639 69.9168 168.939 69.9168 168.939L63.2928 168.202Z" fill="white"/>
<mask id="mask2_225_1844" style="mask-type:luminance" maskUnits="userSpaceOnUse" x="36" y="151" width="34" height="31">
<path d="M63.2948 168.202C63.2948 168.202 62.8063 172.491 62.2349 173.096C61.6636 173.7 46.594 161.04 45.6749 159.848C44.7559 158.655 45.3851 154.399 45.6749 153.066C45.9647 151.733 45.4762 151.005 44.0189 151.924C42.5617 152.843 42.9508 156.668 42.9508 156.668C42.9508 156.668 38.5045 155.6 37.6185 155.476C36.7325 155.352 35.9625 156.453 36.095 157.33C36.2275 158.208 37.3949 158.283 37.3949 158.283C37.0963 159.554 37.1798 160.884 37.6351 162.108C38.4134 163.714 39.2911 164.724 40.9471 165.122C42.6556 165.388 44.3855 165.494 46.1138 165.437C46.1138 165.437 53.8142 172.773 56.0498 175.513C58.2854 178.254 62.9967 181.98 65.34 181.309C67.6832 180.639 69.9188 168.939 69.9188 168.939L63.2948 168.202Z" fill="white"/>
</mask>
<g mask="url(#mask2_225_1844)">
<g style="mix-blend-mode:multiply" opacity="0.5">
<path d="M62.2339 173.096L66.6389 174.561C66.7786 175.485 66.5833 176.429 66.0883 177.221C65.5933 178.014 64.8312 178.603 63.9396 178.883C61.9938 179.529 58.4996 177.318 56.0156 175.455L56.0901 175.546C58.3671 178.295 63.0371 182.013 65.3803 181.342C67.7235 180.672 69.9591 168.972 69.9591 168.972L63.2937 168.144C63.2937 168.144 62.8052 172.491 62.2339 173.096Z" fill="#E4EBFE"/>
</g>
</g>
<path d="M63.2928 168.202C63.2928 168.202 62.8043 172.491 62.233 173.096C61.6617 173.7 46.5921 161.04 45.673 159.848C44.7539 158.655 45.3832 154.399 45.673 153.066C45.9628 151.733 45.4743 151.005 44.017 151.924C42.5597 152.843 42.9489 156.668 42.9489 156.668C42.9489 156.668 38.5025 155.6 37.6166 155.476C36.7306 155.352 35.9606 156.453 36.093 157.33C36.2255 158.208 37.393 158.283 37.393 158.283C37.0943 159.554 37.1778 160.884 37.6331 162.108C38.4114 163.714 39.2891 164.725 40.9451 165.122C42.6537 165.388 44.3835 165.494 46.1118 165.437C46.1118 165.437 53.8122 172.773 56.0478 175.513C58.2834 178.254 62.9948 181.98 65.338 181.309C67.6812 180.639 69.9168 168.939 69.9168 168.939L63.2928 168.202Z" stroke="#263238" stroke-width="0.621" stroke-linecap="round" stroke-linejoin="round"/>
<path d="M48.231 162.174L46.1113 165.47L47.196 166.207L49.3654 163.102L48.231 162.174Z" fill="#263238" stroke="#263238" stroke-width="0.828" stroke-miterlimit="10"/>
<path d="M47.5018 165.279C47.9591 165.279 48.3298 164.909 48.3298 164.451C48.3298 163.994 47.9591 163.623 47.5018 163.623C47.0445 163.623 46.6738 163.994 46.6738 164.451C46.6738 164.909 47.0445 165.279 47.5018 165.279Z" fill="white" stroke="#263238" stroke-width="0.621" stroke-linecap="round" stroke-linejoin="round"/>
<path d="M45.4727 139.984C45.4727 139.984 45.9777 141.234 46.8223 143.428C47.6669 145.623 52.2043 150.251 54.4233 150.516C56.6424 150.781 59.3003 142.716 59.7225 141.052C59.8633 140.505 60.0041 139.628 60.0041 139.628C60.0041 139.628 62.7944 138.311 62.1486 136.722C61.5027 135.132 60.1945 134.403 59.5735 134.892C58.9525 135.38 58.8449 137.442 57.9175 137.458C56.9901 137.475 56.4851 137.185 55.6653 136.092C54.8456 134.999 46.3503 137.268 45.4727 139.984Z" fill="white"/>
<mask id="mask3_225_1844" style="mask-type:luminance" maskUnits="userSpaceOnUse" x="45" y="134" width="18" height="17">
<path d="M45.4727 139.984C45.4727 139.984 45.9777 141.234 46.8223 143.428C47.6669 145.623 52.2043 150.251 54.4233 150.516C56.6424 150.781 59.3003 142.716 59.7225 141.052C59.8633 140.505 60.0041 139.628 60.0041 139.628C60.0041 139.628 62.7944 138.311 62.1486 136.722C61.5027 135.132 60.1945 134.403 59.5735 134.892C58.9525 135.38 58.8449 137.442 57.9175 137.458C56.9901 137.475 56.4851 137.185 55.6653 136.092C54.8456 134.999 46.3503 137.268 45.4727 139.984Z" fill="white"/>
</mask>
<g mask="url(#mask3_225_1844)">
<path opacity="0.5" d="M55.6488 136.092C54.8208 135.008 46.3503 137.276 45.4727 139.984L45.9529 141.209C49.1908 139.257 52.7094 137.813 56.3857 136.929C56.111 136.677 55.864 136.396 55.6488 136.092Z" fill="#E4EBFE"/>
<g style="mix-blend-mode:multiply">
<path opacity="0.5" d="M62.0405 136.498C61.3616 135.074 60.161 134.428 59.5565 134.892C59.1777 135.386 58.8966 135.948 58.7285 136.548C59.8283 136.424 60.9375 136.408 62.0405 136.498Z" fill="#E4EBFE"/>
</g>
</g>
<path d="M45.4727 139.984C45.4727 139.984 45.9777 141.234 46.8223 143.428C47.6669 145.623 52.2043 150.251 54.4233 150.516C56.6424 150.781 59.3003 142.716 59.7225 141.052C59.8633 140.505 60.0041 139.628 60.0041 139.628C60.0041 139.628 62.7944 138.311 62.1486 136.722C61.5027 135.132 60.1945 134.403 59.5735 134.892C58.9525 135.38 58.8449 137.442 57.9175 137.458C56.9901 137.475 56.4851 137.185 55.6653 136.092C54.8456 134.999 46.3503 137.268 45.4727 139.984Z" stroke="#263238" stroke-width="0.621" stroke-linecap="round" stroke-linejoin="round"/>
<path d="M48.4779 140.58C48.6269 141.085 48.5772 141.549 48.3785 141.607C48.1798 141.665 47.89 141.3 47.741 140.779C47.5919 140.257 47.6416 139.81 47.8403 139.752C48.039 139.694 48.3288 140.091 48.4779 140.58Z" fill="#263238" stroke="#263238" stroke-width="0.828" stroke-miterlimit="10"/>
<path d="M46.9395 139.172C48.0987 138.841 48.5955 139.711 48.7362 140.514L48.9515 141.466L49.6719 145.151L50.7648 144.687" stroke="#263238" stroke-width="0.414" stroke-linecap="round" stroke-linejoin="round"/>
<path d="M51.6602 139.454C51.912 139.178 52.2254 138.965 52.575 138.832C52.9246 138.7 53.3005 138.652 53.6722 138.692" stroke="#263238" stroke-width="0.414" stroke-linecap="round" stroke-linejoin="round"/>
<path d="M52.6202 137.16C52.1491 137.259 51.7168 137.492 51.3758 137.832C51.0348 138.171 50.7997 138.602 50.6992 139.073" stroke="#263238" stroke-width="0.414" stroke-linecap="round" stroke-linejoin="round"/>
<path d="M51.75 145.879C51.75 145.879 54.1512 145.399 54.3416 143.677" stroke="#263238" stroke-width="0.414" stroke-linecap="round" stroke-linejoin="round"/>
<path d="M72.1356 174.412L60.0137 171.034C60.0137 171.034 61.0818 150.334 62.9531 146.831C65.8676 141.391 72.5496 143.842 73.8081 150.682C74.9839 157.14 72.1356 174.412 72.1356 174.412Z" fill="#E4EBFE" stroke="#263238" stroke-width="0.828" stroke-linecap="round" stroke-linejoin="round"/>
<path d="M60.3027 168.732C60.3027 168.732 66.9267 170.256 70.9591 171.58" stroke="#263238" stroke-width="0.414" stroke-linecap="round" stroke-linejoin="round"/>
<path d="M70.793 143.213C70.793 143.213 74.7342 143.519 77.3093 145.639" stroke="#E4EBFE" stroke-width="0.414" stroke-linecap="round" stroke-linejoin="round"/>
<path d="M140.247 196.164C140.247 196.164 122.594 202.39 120.979 204.088C119.364 205.785 119.53 212.409 123.339 215.63C127.148 218.851 154.298 211.548 173.706 209.42C193.114 207.292 235.723 204.162 253.111 203.318C270.499 202.473 278.407 204.767 279.93 199.343C281.454 193.92 281.263 188.124 277.951 186.948C274.639 185.772 214.295 176.109 140.247 196.164Z" fill="#263238" stroke="#263238" stroke-width="0.621" stroke-linecap="round" stroke-linejoin="round"/>
<path d="M119.721 207.706C119.721 207.706 120.549 214.885 124.962 215.986C129.375 217.087 181.821 207.151 212.73 206.05C243.639 204.949 270.69 204.121 270.69 204.121" stroke="white" stroke-width="0.414" stroke-linecap="round" stroke-linejoin="round"/>
<path d="M145.338 211.349C165.839 206.381 208.009 199.36 278.969 201.355" stroke="white" stroke-width="0.414" stroke-linecap="round" stroke-linejoin="round"/>
<path d="M128.531 215.721C128.531 215.721 133.243 214.578 140.405 212.624" stroke="white" stroke-width="0.414" stroke-linecap="round" stroke-linejoin="round"/>
<path d="M132.852 216.541C133.075 219.619 132.992 222.711 132.604 225.773" stroke="white" stroke-width="0.414" stroke-linecap="round" stroke-linejoin="round"/>
<path d="M132.1 84.1352C132.1 84.1352 128.15 88.7638 127.844 92.912" stroke="#263238" stroke-width="0.621" stroke-linecap="round" stroke-linejoin="round"/>
<path d="M127.43 96.2572C127.43 96.2572 124.457 143.544 132.323 193.87" stroke="#263238" stroke-width="0.621" stroke-linecap="round" stroke-linejoin="round"/>
<path d="M128.364 150.897C128.364 150.897 121.947 153.132 121.864 156.03C121.649 163.822 122.468 180.448 124.166 182.063C125.863 183.677 131.137 179.405 131.137 179.405C131.137 179.405 138.589 180.051 139.417 178.378C140.245 176.706 137.14 153.166 136.677 151.112C136.213 149.059 128.364 150.897 128.364 150.897Z" fill="#E4EBFE" stroke="#263238" stroke-width="0.828" stroke-linecap="round" stroke-linejoin="round"/>
<path d="M262.4 162.108C264.071 162.924 265.886 163.402 267.741 163.516C265.688 155.799 263.361 147.204 260.96 138.626C258.79 138.477 255.992 138.477 256.05 139.454C256.091 141.126 260.306 160.899 262.4 162.108Z" fill="#E4EBFE" stroke="#263238" stroke-width="0.828" stroke-linecap="round" stroke-linejoin="round"/>
<path d="M127.445 153.331C127.445 153.331 127.727 168.235 128.828 174.031" stroke="#263238" stroke-width="0.621" stroke-linecap="round" stroke-linejoin="round"/>
<path d="M204.848 156.776C204.848 156.776 241.793 150.822 284.841 158.432" stroke="#263238" stroke-width="0.828" stroke-linecap="round" stroke-linejoin="round"/>
<path d="M317.322 180.117C319.864 180.879 322.365 181.682 324.774 182.543" stroke="#263238" stroke-width="0.828" stroke-linecap="round" stroke-linejoin="round"/>
<path d="M250.992 168.873C250.992 168.873 280.287 170.653 308.339 177.666" stroke="#263238" stroke-width="0.828" stroke-linecap="round" stroke-linejoin="round"/>
<path d="M161.832 237.092C185.953 233.406 210.459 232.968 234.696 235.792" stroke="#263238" stroke-width="0.828" stroke-linecap="round" stroke-linejoin="round"/>
<path d="M158.803 233.192C158.803 233.192 176.141 231.022 181.78 230.592" stroke="#263238" stroke-width="0.828" stroke-linecap="round" stroke-linejoin="round"/>
<path d="M274.92 72.3776C277.404 72.7337 279.888 73.2056 282.14 73.7438" stroke="#263238" stroke-width="0.828" stroke-linecap="round" stroke-linejoin="round"/>
<path d="M239.225 71.5579C249.427 70.8373 259.669 70.9065 269.861 71.7649" stroke="#263238" stroke-width="0.828" stroke-linecap="round" stroke-linejoin="round"/>
<path d="M105.637 171.862C105.637 171.862 130.377 160.146 166.172 156.892" stroke="#263238" stroke-width="0.828" stroke-linecap="round" stroke-linejoin="round"/>
<path d="M147.301 150.375C147.301 150.375 162.279 146.475 185.066 145.167" stroke="#263238" stroke-width="0.828" stroke-linecap="round" stroke-linejoin="round"/>
<path d="M105.23 233.101C108.237 238.486 113.089 242.603 118.892 244.693" stroke="#263238" stroke-width="0.828" stroke-linecap="round" stroke-linejoin="round"/>
<path d="M104.402 236.827C104.402 236.827 108.128 242.623 113.096 245.107" stroke="#263238" stroke-width="0.828" stroke-linecap="round" stroke-linejoin="round"/>
<path d="M226.533 216.127C226.533 216.127 229.017 227.719 238.953 232.687" stroke="#263238" stroke-width="0.828" stroke-linecap="round" stroke-linejoin="round"/>
<path d="M227.773 226.477C229.743 229.361 232.463 231.651 235.639 233.101" stroke="#263238" stroke-width="0.828" stroke-linecap="round" stroke-linejoin="round"/>
<path d="M63.9629 248.8C63.9629 248.8 66.4469 252.94 75.1409 252.94" stroke="#263238" stroke-width="0.828" stroke-linecap="round" stroke-linejoin="round"/>
<path d="M62.3066 251.284C65.474 253.918 69.3783 255.508 73.4846 255.838" stroke="#263238" stroke-width="0.828" stroke-linecap="round" stroke-linejoin="round"/>
<path d="M174.238 241.066C152.247 242.262 130.419 245.528 109.041 250.82L109.554 251.59C109.554 251.59 127.77 247.723 161.437 256.003C195.103 264.283 197.322 270.907 234.301 270.907C271.279 270.907 307.165 262.081 307.165 262.081L302.677 259.597C269.474 245.546 223.967 238.284 174.238 241.066Z" fill="#E4EBFE"/>
<path opacity="0.5" d="M174.238 241.066C152.247 242.262 130.419 245.528 109.041 250.82L109.554 251.59C109.554 251.59 127.77 247.723 161.437 256.003C195.103 264.283 197.322 270.907 234.301 270.907C271.279 270.907 307.165 262.081 307.165 262.081L302.677 259.597C269.474 245.546 223.967 238.284 174.238 241.066Z" fill="white"/>
<path d="M93.2266 260.011C93.2266 260.011 136.697 253.387 174.371 278.641" stroke="#263238" stroke-width="0.828" stroke-linecap="round" stroke-linejoin="round"/>
<path d="M138.768 269.533C138.768 269.533 156.57 274.915 167.334 286.507" stroke="#263238" stroke-width="0.828" stroke-linecap="round" stroke-linejoin="round"/>
<path d="M243.924 248.419C243.924 248.419 269.178 250.903 291.948 264.565" stroke="#263238" stroke-width="0.828" stroke-linecap="round" stroke-linejoin="round"/>
<path d="M322.666 269.814C327.214 272.597 331.543 275.722 335.616 279.162" stroke="#263238" stroke-width="0.828" stroke-linecap="round" stroke-linejoin="round"/>
<path d="M26.416 289.347C56.5966 263.679 111.129 244.635 174.239 241.066C231.843 237.795 283.8 248.112 317.483 266.734" stroke="#263238" stroke-width="0.828" stroke-linecap="round" stroke-linejoin="round"/>
<path d="M210.389 248.005C210.389 248.005 236.471 249.247 253.859 255.043" stroke="#263238" stroke-width="0.828" stroke-linecap="round" stroke-linejoin="round"/>
<path d="M92.1302 51.4375C92.1302 51.4375 91.3022 39.9863 74.5352 39.5723C57.7682 39.1583 62.256 51.0318 57.76 53.8967C53.2639 56.7616 52.0302 52.2407 47.5259 55.1221C43.0216 58.0036 45.0419 63.7168 41.3904 64.5365C37.7389 65.3562 32.7958 60.8519 28.2997 63.7085C23.8037 66.5651 23.7954 69.0242 21.7502 69.0242C19.7051 69.0242 15.6148 67.3682 13.1639 69.0242C10.713 70.6802 7.83984 72.684 7.83984 72.684H111.34C111.34 72.684 112.565 68.9994 108.028 66.5485C103.49 64.0976 101.478 66.1345 99.8472 64.0645C98.216 61.9945 104.401 56.7616 92.1302 51.4375Z" fill="#E4EBFE"/>
<path d="M153.626 7.61148C153.626 7.61148 153.129 0.722517 143.044 0.474117C132.959 0.225717 135.659 7.37135 132.951 9.09359C130.243 10.8158 129.507 8.10827 126.799 9.83051C124.091 11.5528 125.325 14.9972 123.106 15.4858C120.887 15.9743 117.939 13.275 115.232 14.9972C112.524 16.7195 112.524 18.1933 111.291 18.1933C110.057 18.1933 107.598 17.2163 106.124 18.1933C104.65 19.1704 102.928 20.4124 102.928 20.4124H165.193C165.193 20.4124 165.93 18.1933 163.223 16.7195C160.515 15.2456 159.29 16.4711 158.304 15.2456C157.319 14.0202 161.012 10.8158 153.626 7.61148Z" fill="#E4EBFE"/>
<path opacity="0.7" d="M92.1302 51.4375C92.1302 51.4375 91.3022 39.9863 74.5352 39.5723C57.7682 39.1583 62.256 51.0318 57.76 53.8967C53.2639 56.7616 52.0302 52.2407 47.5259 55.1221C43.0216 58.0036 45.0419 63.7168 41.3904 64.5365C37.7389 65.3562 32.7958 60.8519 28.2997 63.7085C23.8037 66.5651 23.7954 69.0242 21.7502 69.0242C19.7051 69.0242 15.6148 67.3682 13.1639 69.0242C10.713 70.6802 7.83984 72.684 7.83984 72.684H111.34C111.34 72.684 112.565 68.9994 108.028 66.5485C103.49 64.0976 101.478 66.1345 99.8472 64.0645C98.216 61.9945 104.401 56.7616 92.1302 51.4375Z" fill="white"/>
<path opacity="0.8" d="M153.626 7.61148C153.626 7.61148 153.129 0.722517 143.044 0.474117C132.959 0.225717 135.659 7.37135 132.951 9.09359C130.243 10.8158 129.507 8.10827 126.799 9.83051C124.091 11.5528 125.325 14.9972 123.106 15.4858C120.887 15.9743 117.939 13.275 115.232 14.9972C112.524 16.7195 112.524 18.1933 111.291 18.1933C110.057 18.1933 107.598 17.2163 106.124 18.1933C104.65 19.1704 102.928 20.4124 102.928 20.4124H165.193C165.193 20.4124 165.93 18.1933 163.223 16.7195C160.515 15.2456 159.29 16.4711 158.304 15.2456C157.319 14.0202 161.012 10.8158 153.626 7.61148Z" fill="white"/>
</g>
<defs>
<clipPath id="clip0_225_1844">
<rect width="336" height="293" fill="white"/>
</clipPath>
</defs>
</svg>
