<svg width="148" height="148" viewBox="0 0 148 148" fill="none" xmlns="http://www.w3.org/2000/svg">
<path d="M112.878 82.3972C70.5416 88.8395 47.9063 70.0553 72.751 60.8608C35.2001 69.3285 63.9152 93.2564 112.878 82.3972Z" fill="white"/>
<path d="M67.5077 59.8472C45.9714 66.1053 45.7872 79.7283 71.5545 84.1453C43.946 81.0153 38.9767 65.5549 67.5077 59.8472Z" fill="white"/>
<path d="M65.296 56.7192C50.0179 60.9521 41.0696 68.3479 49.0972 78.4397C39.1586 67.2102 48.3627 59.4791 65.296 56.7192Z" fill="white"/>
<path d="M72.9224 57.9674L76.192 61.3591L85.0356 53L68.1973 53.4845L71.589 57.1786L78.1301 55.5447" fill="white"/>
<path d="M16.1612 70.0348L21.1297 70.3863L20.9108 73.4804L19.7397 73.3976L19.8527 71.8003L19.1286 71.7491L19.0224 73.2493L17.8513 73.1665L17.9575 71.6662L17.2264 71.6145L17.1053 73.3261L15.9342 73.2433L16.1612 70.0348Z" fill="white"/>
<path d="M17.1988 79.5594C16.7963 79.5766 16.4774 79.4361 16.2421 79.1379C16.0093 78.842 15.8811 78.4198 15.8577 77.8715C15.8509 77.7119 15.8586 77.5134 15.8809 77.276C15.9033 77.0409 15.9345 76.8484 15.9744 76.6983L17.012 76.654C16.8364 77.0996 16.7549 77.4692 16.7674 77.7631C16.7798 78.0523 16.8612 78.1936 17.0115 78.1872C17.074 78.1845 17.1235 78.1488 17.1599 78.08C17.1987 78.0112 17.2594 77.8324 17.3421 77.5438C17.4281 77.2249 17.5502 76.9902 17.7084 76.8398C17.8665 76.6893 18.0774 76.6084 18.3412 76.5972C18.709 76.5814 19.0056 76.7148 19.2309 76.9972C19.4586 77.2818 19.5838 77.689 19.6065 78.2188C19.6197 78.5288 19.5887 78.8593 19.5133 79.2101L18.5173 79.2527C18.5735 79.1043 18.6188 78.9425 18.653 78.7672C18.6872 78.5919 18.7018 78.4452 18.6967 78.3272C18.6926 78.2301 18.6731 78.1532 18.6382 78.0968C18.6034 78.0403 18.557 78.0133 18.4992 78.0158C18.4321 78.0187 18.379 78.0522 18.3401 78.1165C18.3011 78.1807 18.2567 78.3078 18.2069 78.4977C18.116 78.8654 17.9906 79.1316 17.8308 79.296C17.6709 79.4604 17.4603 79.5483 17.1988 79.5594Z" fill="white"/>
<path d="M16.6524 84.9698L17.1877 84.8856L17.1855 84.8719C16.7348 84.7037 16.4716 84.3794 16.396 83.8991C16.3438 83.5674 16.4013 83.2923 16.5685 83.0737C16.7357 82.8552 16.984 82.72 17.3134 82.6682C18.0042 82.5595 18.4713 82.9208 18.7147 83.7522L18.9651 84.6059C19.0794 84.5879 19.1651 84.5217 19.2221 84.4072C19.2791 84.2928 19.294 84.1486 19.2666 83.9748C19.2047 83.5813 19.0273 83.1838 18.7343 82.7821L19.6848 82.6326C19.797 82.8095 19.9019 83.0367 19.9995 83.3144C20.0971 83.5921 20.162 83.8327 20.194 84.0363C20.288 84.6333 20.2279 85.0858 20.0138 85.3938C19.8024 85.7036 19.3982 85.9056 18.8011 85.9995L16.8625 86.3046L16.6524 84.9698ZM17.7104 83.9173C17.6143 83.9324 17.5401 83.9745 17.4877 84.0437C17.4356 84.1152 17.4184 84.207 17.4361 84.3191C17.4602 84.4723 17.5368 84.5869 17.666 84.6627C17.7955 84.7407 17.9494 84.7657 18.1278 84.7377L18.2617 84.7166L18.1153 84.2333C18.0352 83.9927 17.9003 83.8874 17.7104 83.9173Z" fill="white"/>
<path d="M16.1838 90.8546C16.1462 90.7208 16.118 90.5736 16.0993 90.4129C16.0784 90.2528 16.0733 90.1063 16.0841 89.9734L17.1575 89.6717C17.1308 89.7393 17.1149 89.8328 17.11 89.952C17.1056 90.0735 17.1172 90.1833 17.1448 90.2814C17.2194 90.5467 17.3736 90.6933 17.6076 90.7214L17.9061 90.7565L20.9147 88.3667L21.3574 89.9417L19.822 90.8206C19.5369 90.9874 19.3418 91.0891 19.2367 91.1259L19.2404 91.1392C19.2914 91.1321 19.3485 91.1257 19.4118 91.1199C19.4758 91.1164 20.228 91.0926 21.6684 91.0486L22.0575 92.433L18.1821 92.1619C17.5893 92.124 17.1364 91.9976 16.8234 91.7825C16.511 91.5696 16.2978 91.2603 16.1838 90.8546Z" fill="white"/>
<path d="M20.2391 101.787L26.5993 98.6003L27.108 99.6159L20.7478 102.802L20.2391 101.787Z" fill="white"/>
<path d="M30.8748 108.63L30.1641 109.176L31.0653 110.349L30.1341 111.064L29.2329 109.891L27.8554 110.949L26.9415 109.758L30.8921 106.725L32.794 109.201L31.8628 109.916L30.8748 108.63Z" fill="white"/>
<path d="M32.5589 116.36L32.9468 115.981L32.9371 115.971C32.4722 116.095 32.0699 115.982 31.7304 115.634C31.496 115.394 31.3838 115.136 31.3939 114.861C31.4039 114.586 31.5283 114.332 31.767 114.1C32.2677 113.611 32.8578 113.636 33.5371 114.174L34.2351 114.725C34.318 114.644 34.3496 114.541 34.3299 114.414C34.3102 114.288 34.2389 114.162 34.1161 114.036C33.838 113.751 33.4634 113.529 32.9921 113.371L33.681 112.699C33.8749 112.779 34.0919 112.903 34.3321 113.073C34.5723 113.243 34.7644 113.402 34.9082 113.55C35.3302 113.982 35.5429 114.386 35.5463 114.761C35.553 115.137 35.34 115.535 34.9073 115.957L33.5021 117.327L32.5589 116.36ZM32.8133 114.889C32.7436 114.957 32.7074 115.034 32.7047 115.121C32.7036 115.209 32.7426 115.294 32.8219 115.375C32.9302 115.487 33.0589 115.536 33.2081 115.523C33.3589 115.512 33.4989 115.443 33.6283 115.317L33.7253 115.222L33.3263 114.913C33.1219 114.763 32.9509 114.755 32.8133 114.889Z" fill="white"/>
<path d="M39.0794 120.6C38.8246 120.913 38.5076 121.057 38.1285 121.035C37.7526 121.012 37.352 120.827 36.9269 120.48C36.8032 120.379 36.66 120.241 36.4976 120.067C36.3369 119.893 36.2138 119.742 36.1283 119.613L36.7851 118.808C37.0011 119.236 37.223 119.542 37.4509 119.728C37.6751 119.911 37.8348 119.945 37.93 119.828C37.9695 119.78 37.9757 119.719 37.9486 119.646C37.9229 119.571 37.8298 119.407 37.6692 119.153C37.4883 118.877 37.3941 118.63 37.3869 118.412C37.3797 118.193 37.4595 117.982 37.6265 117.778C37.8593 117.492 38.1561 117.359 38.5169 117.379C38.8809 117.398 39.2683 117.575 39.679 117.911C39.9194 118.107 40.1456 118.35 40.3575 118.64L39.727 119.412C39.6536 119.271 39.5628 119.13 39.4546 118.988C39.3464 118.845 39.2466 118.737 39.1551 118.662C39.0798 118.601 39.0094 118.564 38.9441 118.553C38.8787 118.541 38.8278 118.558 38.7912 118.603C38.7487 118.655 38.7385 118.717 38.7606 118.789C38.7826 118.86 38.848 118.978 38.9567 119.142C39.1709 119.454 39.2863 119.725 39.3029 119.953C39.3194 120.182 39.2449 120.398 39.0794 120.6Z" fill="white"/>
<path d="M43.216 124.858C43.142 124.848 43.0335 124.813 42.8905 124.752C42.7462 124.693 42.584 124.605 42.4039 124.487C42.0592 124.261 41.8513 123.989 41.7801 123.671C41.7109 123.354 41.7912 123.021 42.0211 122.67L42.7391 121.575L42.2715 121.268L42.8334 120.411L43.301 120.718L43.6839 120.134L45.1248 120.597L44.521 121.518L45.1397 121.924L44.5778 122.781L43.9591 122.375L43.3744 123.267C43.2029 123.528 43.2208 123.727 43.428 123.863C43.5249 123.926 43.6415 123.972 43.7778 124.001L43.216 124.858Z" fill="white"/>
<path d="M50.0647 130.385L52.8285 123.83L53.8751 124.272L51.1113 130.827L50.0647 130.385Z" fill="white"/>
<path d="M62.8807 132.62L62.7291 131.494C62.7005 131.274 62.6414 131.093 62.5518 130.952C62.4644 130.811 62.3549 130.728 62.2233 130.701L62.1654 130.689L61.8184 132.405L60.3477 132.108L61.3348 127.226L63.2891 127.621C63.9722 127.759 64.4534 127.973 64.7325 128.263C65.0144 128.552 65.1101 128.92 65.0197 129.367C64.9518 129.703 64.7996 129.965 64.563 130.153C64.3287 130.342 64.014 130.45 63.6189 130.476L63.6161 130.49C63.8098 130.595 63.9603 130.733 64.0676 130.904C64.1771 131.075 64.2579 131.312 64.3099 131.615L64.5387 132.955L62.8807 132.62ZM63.415 129.259C63.4481 129.095 63.4243 128.956 63.3437 128.84C63.2631 128.725 63.1161 128.645 62.9028 128.602L62.5998 128.541L62.374 129.658L62.6395 129.711C62.837 129.751 63.0071 129.728 63.1499 129.641C63.2927 129.554 63.3811 129.427 63.415 129.259Z" fill="white"/>
<path d="M69.3484 132.134C69.3627 132.288 69.4418 132.415 69.5855 132.514C69.7294 132.61 69.925 132.667 70.1721 132.685C70.5162 132.71 70.8466 132.668 71.1634 132.559L71.0954 133.494C70.727 133.611 70.2876 133.651 69.7772 133.614C69.1582 133.569 68.6882 133.376 68.367 133.034C68.0459 132.693 67.9055 132.245 67.9458 131.691C67.9735 131.31 68.073 130.979 68.2442 130.699C68.4178 130.419 68.6584 130.208 68.9659 130.065C69.2759 129.921 69.6099 129.862 69.9679 129.888C70.3351 129.914 70.644 130.009 70.8946 130.171C71.1452 130.333 71.328 130.548 71.4432 130.817C71.5607 131.085 71.6068 131.393 71.5816 131.739L71.5413 132.293L69.3484 132.134ZM70.2914 131.426C70.3211 131.017 70.1893 130.802 69.896 130.781C69.7736 130.772 69.6667 130.821 69.5754 130.928C69.4842 131.033 69.4249 131.177 69.3976 131.361L70.2914 131.426Z" fill="white"/>
<path d="M74.7896 133.673L74.6225 128.41L76.1015 128.363L76.2686 133.626L74.7896 133.673Z" fill="white"/>
<path d="M81.039 128.679C81.0645 128.886 81.0093 129.063 80.8734 129.21C80.7399 129.357 80.5501 129.446 80.3042 129.476C80.0652 129.506 79.8605 129.463 79.6901 129.349C79.522 129.234 79.4258 129.078 79.4015 128.88C79.3766 128.678 79.43 128.506 79.5619 128.364C79.6957 128.219 79.8867 128.131 80.135 128.101C80.3809 128.07 80.5863 128.109 80.7512 128.217C80.9182 128.323 81.0141 128.477 81.039 128.679ZM80.0356 133.352L79.6013 129.822L81.0699 129.641L81.5043 133.171L80.0356 133.352Z" fill="white"/>
<path d="M87.1753 132.129L87.0535 131.601L87.0399 131.604C86.904 132.066 86.5991 132.351 86.1253 132.46C85.7981 132.536 85.5196 132.498 85.2898 132.347C85.06 132.195 84.9077 131.957 84.8327 131.632C84.6755 130.951 85.003 130.459 85.8151 130.158L86.649 129.848C86.623 129.735 86.5509 129.654 86.4327 129.605C86.3145 129.557 86.1697 129.552 85.9982 129.592C85.6101 129.681 85.2261 129.886 84.8461 130.207L84.6298 129.269C84.7984 129.145 85.0177 129.024 85.2878 128.907C85.5578 128.79 85.7933 128.709 85.9941 128.662C86.583 128.526 87.0386 128.554 87.3609 128.746C87.685 128.935 87.9149 129.324 88.0508 129.913L88.4919 131.825L87.1753 132.129ZM86.0507 131.148C86.0725 131.243 86.1198 131.314 86.1925 131.361C86.2675 131.408 86.3603 131.419 86.4708 131.393C86.622 131.358 86.7309 131.274 86.7973 131.14C86.8661 131.005 86.8802 130.85 86.8396 130.674L86.8091 130.542L86.3373 130.722C86.103 130.819 86.0075 130.961 86.0507 131.148Z" fill="white"/>
<path d="M94.997 127.702C95.1301 128.068 95.1872 128.414 95.1683 128.741C95.1508 129.066 95.0592 129.345 94.8935 129.581C94.727 129.814 94.5034 129.981 94.2227 130.084C94.0073 130.162 93.8081 130.19 93.6251 130.168C93.4435 130.143 93.2851 130.084 93.1499 129.99L93.1369 129.995L93.2628 130.341L91.8724 130.847L90.071 125.899L91.4614 125.393L92.2112 127.452L92.2243 127.447C92.2729 127.242 92.3722 127.058 92.5223 126.895C92.6746 126.731 92.8628 126.609 93.0869 126.527C93.509 126.373 93.8833 126.396 94.2096 126.595C94.5381 126.793 94.8005 127.162 94.997 127.702ZM93.6024 128.258C93.5208 128.034 93.4159 127.881 93.2877 127.799C93.1616 127.717 93.0181 127.705 92.8571 127.764C92.7156 127.815 92.6188 127.919 92.5667 128.073C92.5159 128.225 92.5249 128.395 92.5939 128.584L92.6675 128.787C92.7372 128.978 92.8351 129.115 92.9612 129.197C93.0872 129.28 93.2221 129.295 93.3657 129.242C93.5332 129.181 93.6377 129.066 93.6792 128.895C93.7199 128.723 93.6943 128.51 93.6024 128.258Z" fill="white"/>
<path d="M98.679 128.111L96.3509 123.388L97.6781 122.733L100.006 127.457L98.679 128.111Z" fill="white"/>
<path d="M103.7 123.828C103.803 123.944 103.942 123.999 104.116 123.993C104.289 123.985 104.481 123.915 104.69 123.783C104.982 123.599 105.223 123.369 105.413 123.094L105.913 123.887C105.686 124.2 105.356 124.493 104.923 124.765C104.398 125.096 103.905 125.219 103.444 125.135C102.983 125.051 102.604 124.773 102.308 124.303C102.104 123.98 101.988 123.655 101.96 123.327C101.934 122.999 102.002 122.686 102.166 122.389C102.329 122.089 102.563 121.843 102.867 121.652C103.178 121.456 103.483 121.348 103.781 121.33C104.079 121.312 104.354 121.377 104.606 121.525C104.86 121.672 105.079 121.892 105.264 122.186L105.561 122.656L103.7 123.828ZM104.04 122.699C103.821 122.352 103.588 122.257 103.339 122.414C103.235 122.479 103.178 122.582 103.168 122.723C103.157 122.861 103.194 123.012 103.281 123.176L104.04 122.699Z" fill="white"/>
<path d="M114.149 119.706L109.287 114.514L110.115 113.737L114.978 118.929L114.149 119.706Z" fill="white"/>
<path d="M119.888 111.014L115.856 108.088L117.678 105.578L118.628 106.267L117.688 107.563L118.275 107.99L119.159 106.772L120.109 107.462L119.226 108.679L119.819 109.11L120.826 107.721L121.777 108.41L119.888 111.014Z" fill="white"/>
<path d="M123.425 102L125.636 101.913L124.813 103.403L123.92 103.345C123.819 103.34 123.687 103.324 123.522 103.296L123.515 103.308C123.63 103.427 123.7 103.501 123.725 103.532C123.749 103.561 123.943 103.823 124.307 104.318L123.488 105.798L122.491 103.897L120.409 104.015L121.236 102.52L122.145 102.586C122.252 102.587 122.39 102.605 122.559 102.64L122.566 102.628C122.422 102.472 122.329 102.367 122.288 102.312L121.746 101.599L122.527 100.186L123.425 102Z" fill="white"/>
<path d="M126.765 94.5076C127.126 94.6513 127.422 94.8396 127.65 95.0726C127.879 95.3056 128.026 95.5643 128.089 95.8488C128.153 96.1334 128.13 96.4155 128.018 96.6952C127.865 97.0826 127.607 97.3203 127.245 97.4084L127.24 97.4213L129.103 98.1615L128.556 99.5366L123.731 97.6188L124.277 96.2437L124.726 96.422L124.731 96.4091C124.609 96.2335 124.536 96.0402 124.513 95.8291C124.487 95.6172 124.519 95.4004 124.607 95.1787C124.776 94.7526 125.048 94.483 125.422 94.37C125.796 94.2548 126.244 94.3006 126.765 94.5076ZM126.253 95.9187C126.044 95.8358 125.864 95.8117 125.713 95.8464C125.563 95.879 125.455 95.9792 125.388 96.1471C125.33 96.2934 125.345 96.4365 125.434 96.5765C125.523 96.7165 125.676 96.8297 125.894 96.9161L125.958 96.9417C126.167 97.0247 126.349 97.0522 126.505 97.0244C126.66 96.9965 126.769 96.9051 126.831 96.7501C126.896 96.5844 126.879 96.4295 126.78 96.2852C126.678 96.1401 126.502 96.0179 126.253 95.9187Z" fill="white"/>
<path d="M128.009 88.8477C127.97 88.8948 127.929 88.9616 127.884 89.048C127.839 89.1344 127.809 89.2077 127.793 89.2682C127.667 89.7403 127.877 90.0491 128.423 90.1946L129.913 90.5916L129.532 92.0214L126.096 91.1057L126.476 89.6759L127.081 89.8369L127.084 89.8234C126.89 89.6783 126.759 89.5103 126.69 89.3194C126.619 89.1279 126.612 88.9248 126.669 88.7099C126.69 88.6316 126.722 88.567 126.764 88.5159L128.009 88.8477Z" fill="white"/>
<path d="M129.83 84.4167C129.985 84.4139 130.117 84.3445 130.226 84.2085C130.333 84.0721 130.405 83.8814 130.441 83.6363C130.492 83.295 130.474 82.9623 130.389 82.6383L131.316 82.7757C131.406 83.1518 131.413 83.593 131.338 84.0992C131.247 84.7131 131.02 85.1675 130.655 85.4623C130.291 85.7571 129.834 85.8639 129.284 85.7824C128.906 85.7265 128.584 85.6027 128.317 85.411C128.051 85.2171 127.858 84.9615 127.739 84.6442C127.618 84.3243 127.584 83.9868 127.636 83.6317C127.69 83.2675 127.807 82.9665 127.988 82.7287C128.168 82.4909 128.396 82.3245 128.672 82.2297C128.949 82.1325 129.259 82.1094 129.603 82.1603L130.152 82.2417L129.83 84.4167ZM129.194 83.4236C128.789 83.3635 128.565 83.479 128.522 83.7699C128.504 83.8913 128.545 84.0015 128.645 84.1006C128.742 84.1994 128.882 84.2692 129.063 84.3101L129.194 83.4236Z" fill="white"/>
<path d="M130.696 76.1663C131.099 76.1799 131.406 76.3443 131.618 76.6596C131.827 76.9725 131.923 77.4032 131.904 77.9517C131.899 78.1114 131.876 78.3087 131.836 78.5437C131.795 78.7763 131.75 78.9659 131.698 79.1125L130.66 79.0776C130.869 78.6467 130.979 78.2843 130.989 77.9904C130.999 77.7011 130.928 77.5539 130.778 77.5488C130.715 77.5467 130.663 77.5786 130.622 77.6444C130.578 77.7101 130.504 77.8837 130.399 78.1651C130.289 78.4765 130.149 78.7012 129.98 78.8392C129.811 78.9771 129.595 79.0417 129.331 79.0328C128.963 79.0204 128.677 78.8648 128.474 78.566C128.269 78.2648 128.175 77.8493 128.193 77.3193C128.203 77.0092 128.26 76.682 128.361 76.3379L129.358 76.3715C129.29 76.5152 129.233 76.6731 129.185 76.8453C129.138 77.0175 129.112 77.1626 129.108 77.2806C129.105 77.3778 129.119 77.4559 129.149 77.5148C129.179 77.5738 129.224 77.6042 129.281 77.6062C129.349 77.6084 129.404 77.579 129.448 77.5179C129.492 77.4569 129.546 77.3336 129.61 77.148C129.728 76.7883 129.874 76.5325 130.046 76.3808C130.218 76.229 130.434 76.1575 130.696 76.1663Z" fill="white"/>
<path d="M130.412 69.9926C130.813 69.9624 131.137 70.0925 131.382 70.3829C131.624 70.6712 131.766 71.0889 131.807 71.6362C131.819 71.7955 131.818 71.9942 131.803 72.2321C131.788 72.4678 131.763 72.6613 131.728 72.8125L130.693 72.8905C130.854 72.4395 130.923 72.0673 130.901 71.7741C130.879 71.4854 130.793 71.3468 130.643 71.3581C130.581 71.3628 130.533 71.4001 130.498 71.47C130.462 71.5401 130.407 71.7207 130.334 72.0119C130.258 72.3334 130.144 72.5719 129.991 72.7274C129.837 72.8829 129.629 72.9706 129.366 72.9904C128.999 73.018 128.698 72.8944 128.464 72.6194C128.227 72.3424 128.089 71.9394 128.049 71.4106C128.025 71.1012 128.046 70.7699 128.11 70.4168L129.104 70.3419C129.052 70.4921 129.012 70.6553 128.984 70.8316C128.955 71.008 128.946 71.155 128.954 71.2728C128.962 71.3697 128.984 71.4459 129.02 71.5012C129.057 71.5565 129.104 71.5819 129.162 71.5776C129.229 71.5726 129.281 71.5373 129.318 71.4718C129.355 71.4063 129.395 71.2779 129.439 71.0865C129.517 70.716 129.634 70.446 129.789 70.2764C129.943 70.1069 130.151 70.0123 130.412 69.9926Z" fill="white"/>
<path d="M36.0338 34.949L35.1759 34.1356C35.319 34.1249 35.4683 34.0937 35.624 34.0417C35.7818 33.9875 35.937 33.9197 36.0896 33.8382C36.2398 33.7546 36.3819 33.6632 36.5158 33.5641C36.6497 33.465 36.7642 33.3652 36.8594 33.2649C37.1914 32.9147 37.3798 32.5991 37.4247 32.3181C37.4718 32.0347 37.3844 31.7878 37.1627 31.5775C37.0436 31.4647 36.9133 31.3965 36.7716 31.3729C36.6297 31.3448 36.474 31.3478 36.3042 31.3819C36.1344 31.416 35.9505 31.4721 35.7523 31.5502C35.554 31.6237 35.3435 31.7055 35.1206 31.7956C34.868 31.8797 34.6253 31.951 34.3925 32.0095C34.1596 32.068 33.9352 32.099 33.7191 32.1025C33.5029 32.1014 33.2938 32.0649 33.0916 31.9929C32.8917 31.9185 32.696 31.7906 32.5046 31.6091C32.2688 31.3856 32.1144 31.1394 32.0413 30.8706C31.968 30.5972 31.9573 30.321 32.009 30.042C32.0606 29.7585 32.1648 29.4804 32.3213 29.2077C32.4756 28.9329 32.6623 28.6799 32.8814 28.4488C33.3794 27.9236 33.802 27.5972 34.149 27.4697L34.9718 28.2499C34.4963 28.3399 34.0461 28.609 33.6212 29.0572C33.5038 29.1809 33.3982 29.3157 33.3042 29.4615C33.2125 29.605 33.147 29.7513 33.1077 29.9002C33.0706 30.0468 33.0653 30.1903 33.0918 30.3307C33.1183 30.471 33.1911 30.5977 33.3101 30.7106C33.4222 30.8168 33.5412 30.8853 33.6671 30.9161C33.7931 30.9469 33.932 30.95 34.0838 30.9255C34.2378 30.8987 34.4084 30.852 34.5954 30.7856C34.7824 30.7147 34.994 30.6294 35.2303 30.5299C35.4874 30.4411 35.7391 30.3673 35.9856 30.3084C36.2342 30.2472 36.4746 30.2158 36.7066 30.2142C36.9409 30.2102 37.1648 30.2452 37.3784 30.3192C37.5919 30.3886 37.7931 30.513 37.9822 30.6923C38.2366 30.9335 38.4027 31.1885 38.4804 31.4572C38.558 31.7259 38.5687 31.9998 38.5124 32.2789C38.4583 32.5557 38.3485 32.8305 38.1828 33.1034C38.0171 33.3763 37.8147 33.6388 37.5757 33.8909C37.496 33.975 37.3905 34.0722 37.2592 34.1826C37.1324 34.2929 36.9953 34.4001 36.8479 34.5041C36.7028 34.6104 36.5586 34.7041 36.4151 34.7853C36.2716 34.8664 36.1445 34.921 36.0338 34.949Z" fill="white"/>
<path d="M47.7365 25.3138L46.8105 25.9429L45.2921 23.7077C44.7425 22.8988 44.1977 22.6779 43.6575 23.0448C43.3861 23.2292 43.2368 23.5018 43.2096 23.8624C43.1825 24.2231 43.2927 24.5858 43.5403 24.9503L45.0344 27.1495L44.1044 27.7813L39.9938 21.7305L40.9237 21.0987L42.7188 23.7409L42.7347 23.7301C42.6927 23.0042 42.9591 22.446 43.5338 22.0556C44.4411 21.4391 45.2717 21.6857 46.0255 22.7953L47.7365 25.3138Z" fill="white"/>
<path d="M51.406 16.6975C51.2379 16.7707 51.0697 16.7791 50.9012 16.7227C50.7357 16.665 50.6163 16.5521 50.5431 16.384C50.4699 16.2159 50.4678 16.0501 50.537 15.8866C50.6091 15.7219 50.7291 15.6029 50.8972 15.5297C51.0712 15.4539 51.2431 15.4457 51.4128 15.5051C51.5826 15.5644 51.7041 15.6782 51.7773 15.8463C51.8467 16.0055 51.846 16.169 51.7752 16.3367C51.7031 16.5014 51.58 16.6217 51.406 16.6975ZM54.3026 21.9567L53.2763 22.4039L51.3028 17.8741L52.3291 17.427L54.3026 21.9567Z" fill="white"/>
<path d="M61.3931 18.7829L61.3743 18.7872L62.0439 21.7128L60.9527 21.9626L59.3433 14.9307L60.4345 14.681L60.6283 15.5276L60.6471 15.5233C60.8739 14.7982 61.3463 14.3535 62.0643 14.1892C62.6758 14.0492 63.2016 14.1549 63.6417 14.5063C64.0818 14.8576 64.3848 15.3955 64.5506 16.1199C64.7343 16.9226 64.6886 17.6096 64.4134 18.1807C64.1382 18.7519 63.6667 19.1139 62.9988 19.2668C62.3842 19.4075 61.849 19.2462 61.3931 18.7829ZM60.93 16.8891L61.0667 17.4865C61.1471 17.8377 61.3266 18.1101 61.6052 18.3037C61.887 18.4966 62.2003 18.5536 62.5452 18.4747C62.9497 18.3821 63.2306 18.1528 63.3877 17.7868C63.5473 17.417 63.5624 16.9499 63.4333 16.3855C63.3249 15.912 63.132 15.5667 62.8547 15.3497C62.5797 15.1288 62.2588 15.0604 61.8919 15.1444C61.5031 15.2334 61.2211 15.4431 61.0459 15.7736C60.8739 16.1034 60.8353 16.4752 60.93 16.8891Z" fill="white"/>
<path d="M74.6261 17L73.7672 15.1037C73.7125 14.9847 73.6755 14.8689 73.6562 14.7563C73.6402 14.6405 73.6273 14.5456 73.6176 14.4716H73.5983C73.579 14.5488 73.5565 14.6501 73.5308 14.7756C73.505 14.901 73.4681 15.0233 73.4198 15.1423L72.6188 17H70.1387L72.2135 13.55L70.3269 10.0807L72.8456 10.0807L73.5163 11.9094C73.5774 12.0799 73.6337 12.3051 73.6852 12.5849H73.7045C73.756 12.2697 73.8155 12.0413 73.883 11.8998L74.6647 10.0807L76.9856 10.0807L75.0411 13.5114L77.0773 17L74.6261 17Z" fill="white"/>
<path d="M83.6752 18.2773L83.6563 18.273L82.9867 21.1986L81.8955 20.9488L83.5049 13.917L84.5962 14.1667L84.4024 15.0134L84.4212 15.0177C84.9407 14.4634 85.5596 14.2684 86.2776 14.4328C86.8891 14.5727 87.3166 14.8966 87.56 15.4044C87.8035 15.9123 87.8424 16.5283 87.6766 17.2527C87.4928 18.0554 87.1529 18.6541 86.6567 19.0488C86.1604 19.4434 85.5784 19.5643 84.9105 19.4114C84.2959 19.2707 83.8841 18.8927 83.6752 18.2773ZM84.0818 16.3706L83.9451 16.9679C83.8647 17.3191 83.9079 17.6425 84.0745 17.938C84.2443 18.2343 84.5017 18.4219 84.8466 18.5008C85.2511 18.5934 85.6037 18.5091 85.9044 18.2479C86.2089 17.9843 86.4258 17.5703 86.555 17.0059C86.6633 16.5324 86.6398 16.1376 86.4845 15.8216C86.333 15.5031 86.0738 15.3019 85.7069 15.2179C85.3181 15.1289 84.9729 15.1951 84.6715 15.4165C84.3731 15.6386 84.1766 15.9566 84.0818 16.3706Z" fill="white"/>
<path d="M94.4861 22.7624C93.7964 22.4375 93.343 21.9697 93.1257 21.3589C92.9128 20.7466 92.9688 20.0955 93.2937 19.4059C93.6473 18.655 94.1374 18.1694 94.764 17.949C95.3934 17.7299 96.0719 17.7917 96.7995 18.1344C97.4979 18.4634 97.9454 18.9249 98.1421 19.5189C98.3388 20.1129 98.2658 20.7736 97.9231 21.5012C97.5872 22.2142 97.1069 22.6866 96.482 22.9185C95.8615 23.1489 95.1962 23.0969 94.4861 22.7624ZM96.358 18.9131C95.9622 18.7267 95.5842 18.7176 95.2241 18.8857C94.864 19.0539 94.5695 19.381 94.3405 19.867C94.1198 20.3355 94.0622 20.7599 94.1675 21.1402C94.2742 21.5176 94.5225 21.7982 94.9125 21.9818C95.3111 22.1696 95.6791 22.1812 96.0163 22.0164C96.3563 21.853 96.6415 21.5269 96.8718 21.038C97.1035 20.5462 97.1747 20.1157 97.0855 19.7465C96.9991 19.3787 96.7566 19.1009 96.358 18.9131Z" fill="white"/>
<path d="M101.68 26.5308L102.305 25.7022C102.447 26.2082 102.72 26.6131 103.123 26.917C103.663 27.3235 104.053 27.3674 104.293 27.0488C104.36 26.9589 104.394 26.8657 104.395 26.7692C104.397 26.6701 104.376 26.5662 104.333 26.4574C104.293 26.3505 104.234 26.2371 104.155 26.1173C104.078 25.9994 103.993 25.8667 103.899 25.7191C103.785 25.5329 103.69 25.3545 103.613 25.1839C103.539 25.0152 103.492 24.8529 103.473 24.6972C103.457 24.5408 103.472 24.3884 103.515 24.2399C103.558 24.0913 103.638 23.94 103.754 23.7858C103.898 23.5957 104.068 23.4626 104.267 23.3864C104.467 23.3077 104.68 23.2767 104.905 23.2932C105.132 23.3072 105.36 23.3624 105.59 23.4588C105.821 23.5526 106.039 23.6769 106.245 23.8317C106.61 24.1066 106.895 24.4076 107.099 24.7349L106.51 25.5173C106.375 25.1181 106.128 24.783 105.769 24.512C105.656 24.4269 105.544 24.361 105.434 24.3144C105.327 24.2698 105.226 24.2439 105.131 24.2366C105.035 24.2293 104.947 24.2417 104.867 24.2736C104.788 24.3031 104.723 24.3525 104.671 24.4218C104.607 24.5066 104.571 24.5921 104.562 24.6783C104.554 24.7645 104.567 24.8568 104.601 24.9554C104.64 25.0532 104.694 25.1582 104.763 25.2703C104.836 25.3818 104.92 25.5077 105.016 25.6482C105.133 25.8453 105.231 26.0302 105.311 26.2028C105.393 26.3773 105.446 26.5466 105.472 26.7107C105.499 26.8723 105.493 27.0328 105.453 27.1922C105.416 27.3491 105.335 27.5098 105.211 27.6742C105.06 27.8746 104.882 28.0145 104.677 28.0938C104.473 28.1732 104.256 28.2036 104.029 28.1851C103.801 28.1666 103.568 28.104 103.33 27.9973C103.093 27.8952 102.863 27.7599 102.639 27.5915C102.208 27.2663 101.888 26.9127 101.68 26.5308Z" fill="white"/>
<path d="M110.942 35.0054C110.714 34.9174 110.48 34.7415 110.239 34.4777C109.593 33.7693 109.61 33.1052 110.29 32.4853L112.355 30.603L111.799 29.9933L112.448 29.4016L113.004 30.0113L113.849 29.2408L114.838 29.8535L113.758 30.8385L114.554 31.7121L113.905 32.3038L113.109 31.4302L111.283 33.0947C111.067 33.292 110.948 33.4721 110.927 33.635C110.906 33.798 110.979 33.971 111.146 34.154C111.273 34.2943 111.424 34.3787 111.598 34.4072L110.942 35.0054Z" fill="white"/>
<path d="M22.5255 53.6008C22.5883 53.9294 22.5271 54.2342 22.3418 54.5153C22.1565 54.7964 21.8995 54.9684 21.5709 55.0312C21.2455 55.0935 20.9416 55.0288 20.6593 54.8371C20.3739 54.6461 20.1997 54.3863 20.1369 54.0577C20.074 53.7291 20.139 53.4268 20.3319 53.1509C20.5247 52.8749 20.7854 52.7055 21.114 52.6426C21.4426 52.5798 21.7443 52.6416 22.019 52.8281C22.2938 53.0147 22.4626 53.2722 22.5255 53.6008Z" fill="white"/>
<path d="M126.893 53.3976C126.924 53.0645 127.069 52.7891 127.325 52.5712C127.582 52.3534 127.877 52.2603 128.21 52.2921C128.54 52.3236 128.813 52.4709 129.03 52.734C129.251 52.9974 129.345 53.2956 129.313 53.6286C129.282 53.9617 129.135 54.2336 128.872 54.4444C128.61 54.6553 128.312 54.7448 127.979 54.713C127.646 54.6812 127.374 54.5373 127.162 54.2812C126.951 54.0252 126.861 53.7306 126.893 53.3976Z" fill="white"/>
<rect x="147.7" y="0.3" width="147.4" height="147.4" rx="73.7" transform="rotate(90 147.7 0.3)" stroke="white" stroke-width="0.6"/>
</svg>
