<svg width="225" height="25" viewBox="0 0 225 25" fill="none" xmlns="http://www.w3.org/2000/svg">
<g clip-path="url(#clip0_15_12095)">
<path d="M16.6069 24.9317C24.4701 24.1999 32.3422 23.6525 40.201 22.9022C43.633 22.5763 47.1726 22.6993 50.5643 21.2048C51.7113 20.7005 53.0734 21.1125 54.3369 21.0941C57.0162 21.0572 59.7 20.9034 62.3748 21.0326C63.5397 21.0879 64.4851 20.27 65.6097 20.147C68.2173 19.8518 70.816 20.4114 73.4147 20.0916C75.0321 19.8948 76.6809 20.3684 78.2805 19.5197C79.0556 19.1076 79.8441 19.8456 80.6506 19.9502C84.4142 20.4237 88.0613 19.1261 91.7667 18.8309C92.2775 18.7878 92.7524 18.6095 93.299 18.7325C95.696 19.2675 98.0752 19.0338 100.481 18.5049C102.081 18.1482 103.685 19.1445 105.338 19.0277C106.893 18.917 108.456 19.083 110.007 18.6525C110.504 18.5111 111.055 18.5172 111.557 18.6464C114.81 19.4828 118.094 19.083 121.369 19.206C122.955 19.2675 124.393 18.2528 126.002 18.468C128.354 18.7817 130.724 18.8985 133.09 18.9539C136.912 19.04 140.734 19.0031 144.56 19.0154C144.932 19.0154 145.335 19.1322 145.676 18.9785C149.323 17.3364 153.073 18.6218 156.756 18.1913C160.631 17.7423 164.489 18.6894 168.356 18.0929C169.265 17.9514 170.309 17.5332 171.066 18.8063C171.237 19.0892 171.407 18.9969 171.635 18.8555C173.755 17.5394 176.04 18.0068 178.226 18.0191C182.886 18.0437 187.55 18.056 192.21 18.1913C195.261 18.2774 198.393 18.1298 201.484 17.8223C201.852 17.7854 202.242 17.9453 202.533 17.5148C203.899 15.5037 205.714 16.0633 207.381 16.0449C208.442 16.0326 209.433 16.0264 210.405 15.3376C210.92 14.9748 211.565 14.6734 212.116 14.7595C214.133 15.0793 215.934 13.8309 217.851 13.4803C218.134 13.4311 218.479 12.9268 218.653 13.0437C220.71 14.3598 222.462 11.8751 224.429 12.2134C224.612 12.2442 224.931 12.0658 224.993 11.869C225.056 11.6722 224.828 11.4385 224.639 11.2478C223.555 10.1654 222.068 10.6513 221.033 9.43972C220.871 9.24907 220.737 9.29827 220.71 9.54428C220.401 12.6132 219.191 10.1962 218.748 9.91328C217.421 9.07072 216.104 9.54427 214.791 9.43357C213.353 9.31672 211.825 10.1347 210.548 8.51106C210.235 8.11746 209.899 8.55411 209.554 8.70172C208.442 9.16912 207.291 9.87638 206.131 9.05227C205.194 8.38806 204.356 7.3364 204.038 9.88868C203.971 10.4299 203.097 10.7312 202.47 10.1347C200.248 8.01906 199.128 7.92681 196.386 8.78782C195.239 9.14452 193.984 8.80012 192.756 8.92927C190.113 9.21217 187.447 8.73247 184.786 8.75707C183.854 8.76322 182.949 8.57257 181.958 8.73862C180.937 8.91082 180.104 7.53935 179.418 6.53074C178.643 5.38683 178.199 5.07318 177.353 6.45694C176.855 7.2749 176.008 7.66851 175.027 7.2872C173.813 6.8198 172.37 7.92681 171.281 6.34624C170.202 8.18511 169.364 5.68819 168.414 6.03874C167.231 6.47539 166.232 5.81734 165.166 5.41758C164.606 5.20233 163.839 4.89483 163.432 5.22693C161.899 6.47539 160.412 5.63284 159.193 4.80873C157.831 3.88007 156.483 5.34993 155.268 4.24907C154.816 5.99569 153.552 5.21463 152.75 5.49753C151.218 6.03874 149.403 6.8444 148.082 4.47662C147.938 4.21832 147.535 4.09532 147.266 4.13222C144.887 4.46432 142.544 3.31426 140.16 3.81242C139.649 3.91697 139.143 4.03997 138.668 3.51106C138.458 3.27736 138.036 3.01906 137.871 3.15436C136.177 4.48277 134.864 3.12361 133.623 1.94895C131.947 0.368383 130.066 0.306883 128.184 0.0670302C127.812 0.0178297 127.391 -0.0928714 127.073 0.0854804C123.726 1.97355 120.379 0.626686 117.019 0.239232C114.671 -0.0313708 112.345 -0.271223 109.93 0.546735C107.74 1.28474 105.253 1.48769 103.08 0.817338C101.651 0.374533 100.414 0.718937 99.0922 0.651286C98.3754 0.614386 97.5285 1.81365 96.9371 0.257682C96.9013 0.159281 96.507 0.214632 96.3367 0.337633C94.8851 1.38314 93.4513 0.921889 91.9996 0.356083C91.6502 0.220782 91.0946 -0.0252207 90.9378 0.190031C89.9073 1.6353 88.6572 0.878838 87.5595 0.786587C85.5433 0.614386 83.5137 0.479084 81.5243 0.712787C76.3091 1.34009 71.0893 0.817338 65.8741 1.02644C63.6428 1.11869 61.4384 1.38314 59.2251 1.91205C57.0475 2.42865 54.8118 2.71156 52.5805 2.71156C48.8528 2.71156 45.2191 3.95387 41.5093 4.35977C38.0056 4.74108 34.466 5.33763 31.034 6.77675C29.6764 7.3487 28.0948 6.9428 26.6162 6.96125C24.1564 6.99815 21.8221 7.65006 19.4385 8.62792C16.7547 9.72878 13.9992 10.4483 11.4095 12.0227C10.7778 12.4102 9.91304 12.3549 9.20064 12.1765C7.34573 11.7091 5.77757 13.3635 3.99434 13.3143C3.80168 13.3081 3.5463 13.5295 3.42084 13.7509C2.73981 14.9563 2.09462 16.0572 1.09547 14.1753C0.996902 13.9846 0.526459 14.0277 0.275558 14.3475C0.0336151 14.655 -0.0291138 15.0855 0.0381012 15.4668C0.141144 16.0695 0.427887 16.5307 0.790817 16.9366C2.26041 18.5541 4.00331 19.5812 5.77757 19.9071C7.68625 20.2638 9.54564 21.0695 11.4902 21.0879C11.7321 21.0879 11.9964 21.174 12.0009 21.4938C12.0099 21.8382 11.7142 21.7706 11.5215 21.8013C11.2975 21.8321 11.069 21.8198 10.8539 21.8997C10.1057 22.2011 10.1057 22.8776 10.6075 23.4373C11.2348 24.1384 11.9651 24.6242 12.8164 24.7349C14.0754 24.9071 15.3344 25.1039 16.6069 24.9317Z" fill="#7CCAF6"/>
</g>
<defs>
<clipPath id="clip0_15_12095">
<rect width="225" height="25" fill="white" transform="matrix(-1 0 0 1 225 0)"/>
</clipPath>
</defs>
</svg>
