<svg width="23" height="23" viewBox="0 0 23 23" fill="none" xmlns="http://www.w3.org/2000/svg">
<path d="M22.5 11.5C22.5 17.5751 17.5751 22.5 11.5 22.5C5.42487 22.5 0.5 17.5751 0.5 11.5C0.5 5.42487 5.42487 0.5 11.5 0.5C17.5751 0.5 22.5 5.42487 22.5 11.5Z" fill="#D5F7FF" stroke="#C8EDFF"/>
<path d="M5.60989 10.64C7.80989 11.3 9.63989 12.47 11.0599 14.19L8.81989 14.32C10.2999 12.92 11.6299 11.41 13.0599 9.95002C14.4799 8.50002 15.9099 7.06002 17.3799 5.65002L17.6199 5.84002C15.5999 9.38002 13.2899 12.7 11.1799 16.18L10.4099 17.44C8.05989 15.84 6.17989 13.7 5.38989 10.86L5.59989 10.65L5.60989 10.64Z" fill="#7196EA"/>
</svg>
